{"glyphs":{"0":{"ha":822,"x_min":104,"x_max":719,"o":"m 404 -8 q 249 44 317 -8 q 142 189 181 96 q 104 401 104 282 q 144 623 104 525 q 255 777 185 721 q 415 833 325 833 q 572 780 504 833 q 680 633 640 726 q 719 418 719 539 q 679 201 719 297 q 568 48 639 104 q 404 -8 497 -8 m 408 33 q 542 83 483 33 q 635 219 601 132 q 669 418 669 306 q 638 609 669 526 q 547 739 606 692 q 408 786 488 786 q 315 769 361 786 q 236 718 269 751 q 173 564 194 644 q 151 401 151 483 q 185 213 151 296 q 276 81 218 129 q 408 33 333 33 z "},"1":{"ha":510,"x_min":50,"x_max":486,"o":"m 50 0 l 50 15 q 151 33 101 26 q 246 42 200 40 l 256 796 l 64 796 l 64 811 l 265 839 l 299 839 l 299 43 l 486 18 l 486 0 l 50 0 z "},"2":{"ha":788,"x_min":113,"x_max":676,"o":"m 113 0 l 114 83 q 150 194 115 143 q 240 290 185 244 q 356 378 294 335 q 472 465 418 421 q 561 558 526 510 q 596 663 596 607 q 576 738 596 708 q 514 785 557 768 l 572 768 q 353 796 461 796 q 250 790 301 796 q 146 771 199 783 l 139 807 q 262 830 204 822 q 371 838 319 838 q 570 793 497 838 q 643 663 643 749 q 608 546 643 599 q 519 447 574 493 q 403 358 465 401 q 287 272 342 315 q 197 183 232 229 q 161 82 163 136 l 160 0 l 113 0 m 144 0 l 144 33 l 654 42 l 656 0 l 144 0 m 618 0 l 657 251 l 669 251 l 676 0 l 618 0 m 144 553 l 139 807 l 192 807 l 157 553 l 144 553 z "},"3":{"ha":771,"x_min":131,"x_max":661,"o":"m 131 24 l 139 60 q 247 38 196 46 q 344 31 299 31 q 538 79 465 31 q 610 221 610 128 q 547 361 610 308 q 374 414 483 414 l 272 414 l 272 457 l 335 457 q 466 481 408 457 q 556 547 524 504 q 589 647 589 590 q 572 722 589 689 q 526 782 554 756 q 383 800 468 800 q 278 793 335 800 q 154 771 221 786 l 144 807 q 268 832 210 824 q 376 840 326 840 q 519 819 461 840 q 608 756 578 797 q 639 656 639 714 q 589 524 639 581 q 449 442 539 467 q 606 365 550 422 q 661 221 661 307 q 622 97 661 149 q 513 18 583 46 q 349 -10 443 -10 q 245 -1 300 -10 q 131 24 190 7 m 138 260 l 150 260 l 188 25 l 131 24 l 138 260 m 151 572 l 144 807 l 201 806 l 164 572 l 151 572 z "},"4":{"ha":736,"x_min":39,"x_max":683,"o":"m 289 0 l 289 14 q 370 32 331 25 q 446 40 410 39 l 457 788 l 465 783 l 88 268 l 81 283 l 683 283 l 683 243 l 53 243 l 39 269 l 446 822 l 497 822 l 497 42 l 643 17 l 643 0 l 289 0 z "},"5":{"ha":793,"x_min":147,"x_max":675,"o":"m 365 -10 q 259 -1 314 -10 q 147 24 204 7 l 156 60 q 268 39 215 46 q 369 32 321 32 q 574 67 475 32 q 615 148 601 107 q 628 228 628 189 q 574 361 628 307 q 424 415 519 415 l 168 415 l 190 457 l 424 457 q 607 397 539 457 q 675 232 675 336 q 593 54 675 118 q 365 -10 511 -10 m 213 25 l 147 24 l 154 258 l 167 258 l 213 25 m 168 415 l 168 822 l 210 822 l 210 440 l 168 415 m 621 781 l 190 782 l 168 822 l 621 822 l 621 781 m 625 579 l 585 822 l 642 822 l 636 579 l 625 579 z "},"6":{"ha":782,"x_min":115,"x_max":660,"o":"m 394 -8 q 182 85 249 -8 q 115 379 115 178 q 201 726 115 611 q 461 840 288 840 q 545 834 501 840 q 638 817 589 828 l 632 771 q 467 800 549 800 q 353 786 410 800 q 242 744 296 772 l 260 760 q 188 592 213 692 q 163 378 163 493 q 220 118 163 201 q 400 35 278 35 q 555 90 499 35 q 611 239 611 144 q 559 371 611 326 q 404 415 507 415 l 139 415 l 139 457 l 410 457 q 594 400 529 457 q 660 238 660 343 q 588 58 660 124 q 394 -8 517 -8 m 622 593 l 582 817 l 638 817 l 632 593 l 622 593 z "},"7":{"ha":678,"x_min":74,"x_max":633,"o":"m 79 550 l 74 822 l 129 822 l 90 550 l 79 550 m 93 779 l 93 822 l 606 822 l 606 781 l 93 779 m 633 818 l 268 0 l 222 0 l 589 822 l 633 822 l 633 818 z "},"8":{"ha":774,"x_min":104,"x_max":672,"o":"m 385 -11 q 240 16 303 -11 q 140 92 176 43 q 104 204 104 140 q 164 352 104 286 q 333 458 224 418 l 342 426 q 197 333 243 385 q 151 211 151 281 q 219 78 151 126 q 401 29 288 29 q 521 42 457 29 q 600 106 571 67 q 629 186 629 144 q 593 271 629 235 q 500 337 557 307 q 379 396 443 367 q 258 459 315 425 q 165 536 201 493 q 129 638 129 579 q 164 742 129 696 q 258 815 199 789 q 393 842 318 842 q 522 817 465 842 q 613 748 579 792 q 646 647 646 704 q 589 499 646 569 q 429 383 532 429 l 421 417 q 556 519 513 465 q 600 639 600 574 q 542 758 600 717 q 383 800 483 800 q 328 797 357 800 q 268 788 300 794 q 199 728 225 765 q 174 647 174 690 q 210 559 174 597 q 303 490 246 521 q 423 429 360 458 q 543 367 486 400 q 636 293 600 335 q 672 194 672 251 q 635 90 672 136 q 532 16 597 43 q 385 -11 467 -11 z "},"9":{"ha":781,"x_min":121,"x_max":665,"o":"m 386 840 q 599 748 532 840 q 665 453 665 656 q 579 107 665 222 q 319 -8 493 -8 q 236 -2 281 -8 q 143 15 192 4 l 149 61 q 314 32 232 32 q 539 88 432 32 l 521 72 q 593 240 568 142 q 618 454 618 339 q 561 715 618 632 q 381 797 504 797 q 226 742 283 797 q 169 593 169 688 q 222 461 169 506 q 376 417 274 417 l 642 417 l 642 375 l 371 375 q 186 432 251 375 q 121 594 121 489 q 192 774 121 708 q 386 840 264 840 m 158 239 l 199 15 l 143 15 l 149 239 l 158 239 z "},"A":{"ha":981,"x_min":38,"x_max":944,"o":"m 842 35 q 894 26 868 31 q 944 14 919 21 l 944 0 l 633 0 l 633 17 l 790 36 l 483 871 l 497 871 l 178 36 q 270 26 225 32 q 361 14 315 21 l 361 0 l 38 0 l 38 17 l 132 36 l 465 894 l 521 894 l 842 35 m 275 326 l 275 368 l 697 368 l 697 326 l 275 326 z "},"Á":{"ha":981,"x_min":38,"x_max":944,"o":"m 842 35 q 894 26 868 31 q 944 14 919 21 l 944 0 l 633 0 l 633 17 l 790 36 l 483 871 l 497 871 l 178 36 q 270 26 225 32 q 361 14 315 21 l 361 0 l 38 0 l 38 17 l 132 36 l 465 894 l 521 894 l 842 35 m 275 326 l 275 368 l 697 368 l 697 326 l 275 326 m 400 1015 l 392 1028 l 608 1207 l 617 1207 l 639 1176 q 522 1093 582 1133 q 400 1015 461 1053 z "},"Ă":{"ha":981,"x_min":38,"x_max":944,"o":"m 842 35 q 894 26 868 31 q 944 14 919 21 l 944 0 l 633 0 l 633 17 l 790 36 l 483 871 l 497 871 l 178 36 q 270 26 225 32 q 361 14 315 21 l 361 0 l 38 0 l 38 17 l 132 36 l 465 894 l 521 894 l 842 35 m 275 326 l 275 368 l 697 368 l 697 326 l 275 326 m 490 1046 q 420 1061 451 1046 q 370 1101 389 1076 q 347 1157 351 1126 l 379 1164 q 416 1103 385 1128 q 490 1079 447 1079 q 565 1103 535 1079 q 601 1164 596 1128 l 633 1157 q 612 1101 631 1126 q 562 1061 593 1076 q 490 1046 531 1046 z "},"Ắ":{"ha":981,"x_min":38,"x_max":944,"o":"m 842 35 q 894 26 868 31 q 944 14 919 21 l 944 0 l 633 0 l 633 17 l 790 36 l 483 871 l 497 871 l 178 36 q 270 26 225 32 q 361 14 315 21 l 361 0 l 38 0 l 38 17 l 132 36 l 465 894 l 521 894 l 842 35 m 275 326 l 275 368 l 697 368 l 697 326 l 275 326 m 368 1140 l 363 1158 l 603 1271 l 611 1268 l 625 1233 q 497 1184 561 1207 q 368 1140 433 1161 m 490 1001 q 422 1014 451 1001 q 374 1048 392 1026 q 353 1094 356 1069 l 385 1101 q 419 1054 390 1074 q 490 1035 449 1035 q 560 1054 532 1035 q 594 1101 589 1074 l 628 1094 q 606 1048 625 1069 q 558 1014 588 1026 q 490 1001 528 1001 z "},"Ặ":{"ha":981,"x_min":38,"x_max":944,"o":"m 842 35 q 894 26 868 31 q 944 14 919 21 l 944 0 l 633 0 l 633 17 l 790 36 l 483 871 l 497 871 l 178 36 q 270 26 225 32 q 361 14 315 21 l 361 0 l 38 0 l 38 17 l 132 36 l 465 894 l 521 894 l 842 35 m 275 326 l 275 368 l 697 368 l 697 326 l 275 326 m 504 -119 q 524 -147 515 -131 q 535 -178 533 -162 q 510 -197 525 -189 q 479 -208 494 -206 q 460 -183 468 -197 q 446 -153 451 -168 q 472 -132 457 -140 q 504 -119 488 -124 m 490 1046 q 420 1061 451 1046 q 370 1101 389 1076 q 347 1157 351 1126 l 379 1164 q 416 1103 385 1128 q 490 1079 447 1079 q 565 1103 535 1079 q 601 1164 596 1128 l 633 1157 q 612 1101 631 1126 q 562 1061 593 1076 q 490 1046 531 1046 z "},"Ẳ":{"ha":981,"x_min":38,"x_max":944,"o":"m 842 35 q 894 26 868 31 q 944 14 919 21 l 944 0 l 633 0 l 633 17 l 790 36 l 483 871 l 497 871 l 178 36 q 270 26 225 32 q 361 14 315 21 l 361 0 l 38 0 l 38 17 l 132 36 l 465 894 l 521 894 l 842 35 m 275 326 l 275 368 l 697 368 l 697 326 l 275 326 m 490 1001 q 419 1014 450 1001 q 371 1048 389 1026 q 349 1096 353 1069 l 382 1103 q 417 1054 388 1074 q 490 1035 447 1035 q 563 1054 533 1035 q 597 1103 592 1074 l 632 1096 q 610 1048 629 1069 q 560 1014 590 1026 q 490 1001 529 1001 m 472 1117 l 472 1140 q 492 1178 472 1164 q 531 1205 511 1192 q 550 1239 550 1218 q 534 1264 550 1256 q 490 1272 518 1272 q 456 1270 474 1272 q 422 1264 439 1268 l 417 1292 q 456 1299 436 1296 q 493 1301 475 1301 q 561 1286 536 1301 q 586 1243 586 1271 q 574 1207 586 1221 q 547 1183 563 1193 q 517 1162 531 1172 q 501 1136 504 1151 l 497 1115 l 472 1117 z "},"Ẵ":{"ha":981,"x_min":38,"x_max":944,"o":"m 842 35 q 894 26 868 31 q 944 14 919 21 l 944 0 l 633 0 l 633 17 l 790 36 l 483 871 l 497 871 l 178 36 q 270 26 225 32 q 361 14 315 21 l 361 0 l 38 0 l 38 17 l 132 36 l 465 894 l 521 894 l 842 35 m 275 326 l 275 368 l 697 368 l 697 326 l 275 326 m 488 1001 q 417 1014 449 1001 q 368 1048 386 1026 q 346 1096 350 1069 l 379 1101 q 415 1053 385 1072 q 488 1033 444 1033 q 558 1053 529 1033 q 596 1101 588 1072 l 626 1096 q 605 1048 624 1069 q 556 1014 586 1026 q 488 1001 526 1001 m 308 1165 l 299 1176 q 361 1232 339 1214 q 400 1254 383 1250 q 436 1254 417 1258 l 581 1222 l 672 1276 l 682 1268 q 619 1211 643 1229 q 579 1190 596 1193 q 542 1190 563 1186 l 400 1222 l 308 1165 z "},"Ǎ":{"ha":981,"x_min":38,"x_max":944,"o":"m 842 35 q 894 26 868 31 q 944 14 919 21 l 944 0 l 633 0 l 633 17 l 790 36 l 483 871 l 497 871 l 178 36 q 270 26 225 32 q 361 14 315 21 l 361 0 l 38 0 l 38 17 l 132 36 l 465 894 l 521 894 l 842 35 m 275 326 l 275 368 l 697 368 l 697 326 l 275 326 m 483 1038 l 340 1164 l 356 1181 l 493 1078 l 628 1181 l 643 1164 l 500 1038 l 483 1038 z "},"Â":{"ha":981,"x_min":38,"x_max":944,"o":"m 842 35 q 894 26 868 31 q 944 14 919 21 l 944 0 l 633 0 l 633 17 l 790 36 l 483 871 l 497 871 l 178 36 q 270 26 225 32 q 361 14 315 21 l 361 0 l 38 0 l 38 17 l 132 36 l 465 894 l 521 894 l 842 35 m 275 326 l 275 368 l 697 368 l 697 326 l 275 326 m 514 1193 l 657 1067 l 642 1050 l 504 1153 l 369 1050 l 354 1067 l 497 1193 l 514 1193 z "},"Ấ":{"ha":981,"x_min":38,"x_max":944,"o":"m 842 35 q 894 26 868 31 q 944 14 919 21 l 944 0 l 633 0 l 633 17 l 790 36 l 483 871 l 497 871 l 178 36 q 270 26 225 32 q 361 14 315 21 l 361 0 l 38 0 l 38 17 l 132 36 l 465 894 l 521 894 l 842 35 m 275 326 l 275 368 l 697 368 l 697 326 l 275 326 m 369 1140 l 364 1158 l 604 1271 l 613 1268 l 626 1233 q 499 1184 563 1207 q 369 1140 435 1161 m 357 1007 l 343 1022 l 478 1125 l 496 1125 l 631 1022 l 617 1007 l 488 1085 l 357 1007 z "},"Ậ":{"ha":981,"x_min":38,"x_max":944,"o":"m 842 35 q 894 26 868 31 q 944 14 919 21 l 944 0 l 633 0 l 633 17 l 790 36 l 483 871 l 497 871 l 178 36 q 270 26 225 32 q 361 14 315 21 l 361 0 l 38 0 l 38 17 l 132 36 l 465 894 l 521 894 l 842 35 m 275 326 l 275 368 l 697 368 l 697 326 l 275 326 m 504 -119 q 524 -147 515 -131 q 535 -178 533 -162 q 510 -197 525 -189 q 479 -208 494 -206 q 460 -183 468 -197 q 446 -153 451 -168 q 472 -132 457 -140 q 504 -119 488 -124 m 514 1193 l 657 1067 l 642 1050 l 504 1153 l 369 1050 l 354 1067 l 497 1193 l 514 1193 z "},"Ầ":{"ha":981,"x_min":38,"x_max":944,"o":"m 842 35 q 894 26 868 31 q 944 14 919 21 l 944 0 l 633 0 l 633 17 l 790 36 l 483 871 l 497 871 l 178 36 q 270 26 225 32 q 361 14 315 21 l 361 0 l 38 0 l 38 17 l 132 36 l 465 894 l 521 894 l 842 35 m 275 326 l 275 368 l 697 368 l 697 326 l 275 326 m 611 1140 q 483 1184 547 1161 q 354 1233 418 1207 l 368 1268 l 376 1271 l 617 1158 l 611 1140 m 364 1007 l 350 1022 l 485 1125 l 503 1125 l 638 1022 l 624 1007 l 493 1085 l 364 1007 z "},"Ẩ":{"ha":981,"x_min":38,"x_max":944,"o":"m 842 35 q 894 26 868 31 q 944 14 919 21 l 944 0 l 633 0 l 633 17 l 790 36 l 483 871 l 497 871 l 178 36 q 270 26 225 32 q 361 14 315 21 l 361 0 l 38 0 l 38 17 l 132 36 l 465 894 l 521 894 l 842 35 m 275 326 l 275 368 l 697 368 l 697 326 l 275 326 m 361 1006 l 343 1022 l 482 1128 l 504 1128 l 643 1022 l 625 1006 l 492 1088 l 361 1006 m 574 1103 l 574 1126 q 593 1164 574 1150 q 632 1191 613 1178 q 651 1225 651 1204 q 592 1258 651 1258 q 558 1256 575 1258 q 524 1250 540 1254 l 518 1278 q 557 1285 538 1282 q 594 1288 576 1288 q 663 1272 638 1288 q 688 1229 688 1257 q 676 1193 688 1207 q 648 1169 664 1179 q 619 1148 632 1158 q 603 1122 606 1138 l 599 1101 l 574 1103 z "},"Ẫ":{"ha":981,"x_min":38,"x_max":944,"o":"m 842 35 q 894 26 868 31 q 944 14 919 21 l 944 0 l 633 0 l 633 17 l 790 36 l 483 871 l 497 871 l 178 36 q 270 26 225 32 q 361 14 315 21 l 361 0 l 38 0 l 38 17 l 132 36 l 465 894 l 521 894 l 842 35 m 275 326 l 275 368 l 697 368 l 697 326 l 275 326 m 356 1007 l 342 1022 l 476 1126 l 494 1126 l 629 1022 l 615 1007 l 486 1086 l 356 1007 m 308 1165 l 299 1176 q 361 1232 339 1214 q 400 1254 383 1250 q 436 1254 417 1258 l 581 1222 l 672 1276 l 682 1268 q 619 1211 643 1229 q 579 1190 596 1193 q 542 1190 563 1186 l 400 1222 l 308 1165 z "},"Ȁ":{"ha":981,"x_min":38,"x_max":944,"o":"m 842 35 q 894 26 868 31 q 944 14 919 21 l 944 0 l 633 0 l 633 17 l 790 36 l 483 871 l 497 871 l 178 36 q 270 26 225 32 q 361 14 315 21 l 361 0 l 38 0 l 38 17 l 132 36 l 465 894 l 521 894 l 842 35 m 275 326 l 275 368 l 697 368 l 697 326 l 275 326 m 475 1017 q 381 1103 428 1060 q 290 1194 335 1147 l 314 1218 l 321 1217 l 486 1026 l 475 1017 m 624 1017 q 530 1103 576 1060 q 439 1194 483 1147 l 463 1218 l 469 1217 l 635 1026 l 624 1017 z "},"Ä":{"ha":981,"x_min":38,"x_max":944,"o":"m 842 35 q 894 26 868 31 q 944 14 919 21 l 944 0 l 633 0 l 633 17 l 790 36 l 483 871 l 497 871 l 178 36 q 270 26 225 32 q 361 14 315 21 l 361 0 l 38 0 l 38 17 l 132 36 l 465 894 l 521 894 l 842 35 m 275 326 l 275 368 l 697 368 l 697 326 l 275 326 m 406 1158 q 425 1132 417 1147 q 435 1101 433 1117 q 410 1083 425 1092 q 381 1072 396 1075 q 362 1097 371 1083 q 349 1126 353 1111 q 374 1147 360 1138 q 406 1158 389 1156 m 603 1158 q 622 1132 614 1147 q 632 1101 631 1117 q 608 1083 622 1092 q 578 1072 593 1075 q 558 1097 565 1083 q 546 1126 550 1111 q 572 1147 557 1138 q 603 1158 586 1156 z "},"Ạ":{"ha":981,"x_min":38,"x_max":944,"o":"m 842 35 q 894 26 868 31 q 944 14 919 21 l 944 0 l 633 0 l 633 17 l 790 36 l 483 871 l 497 871 l 178 36 q 270 26 225 32 q 361 14 315 21 l 361 0 l 38 0 l 38 17 l 132 36 l 465 894 l 521 894 l 842 35 m 275 326 l 275 368 l 697 368 l 697 326 l 275 326 m 504 -119 q 524 -147 515 -131 q 535 -178 533 -162 q 510 -197 525 -189 q 479 -208 494 -206 q 460 -183 468 -197 q 446 -153 451 -168 q 472 -132 457 -140 q 504 -119 488 -124 z "},"À":{"ha":981,"x_min":38,"x_max":944,"o":"m 842 35 q 894 26 868 31 q 944 14 919 21 l 944 0 l 633 0 l 633 17 l 790 36 l 483 871 l 497 871 l 178 36 q 270 26 225 32 q 361 14 315 21 l 361 0 l 38 0 l 38 17 l 132 36 l 465 894 l 521 894 l 842 35 m 275 326 l 275 368 l 697 368 l 697 326 l 275 326 m 606 1015 q 484 1093 544 1053 q 367 1176 424 1133 l 389 1207 l 397 1207 l 614 1028 l 606 1015 z "},"Ả":{"ha":981,"x_min":38,"x_max":944,"o":"m 842 35 q 894 26 868 31 q 944 14 919 21 l 944 0 l 633 0 l 633 17 l 790 36 l 483 871 l 497 871 l 178 36 q 270 26 225 32 q 361 14 315 21 l 361 0 l 38 0 l 38 17 l 132 36 l 465 894 l 521 894 l 842 35 m 275 326 l 275 368 l 697 368 l 697 326 l 275 326 m 471 967 l 471 997 q 483 1035 471 1019 q 513 1063 496 1050 q 543 1089 531 1075 q 556 1124 556 1103 q 538 1156 556 1146 q 490 1167 521 1167 q 456 1165 475 1167 q 415 1156 436 1163 l 410 1186 q 454 1196 433 1193 q 493 1199 475 1199 q 566 1181 539 1199 q 593 1126 593 1163 q 580 1081 593 1099 q 549 1051 567 1064 q 517 1025 532 1038 q 500 993 503 1013 l 496 965 l 471 967 z "},"Ȃ":{"ha":981,"x_min":38,"x_max":944,"o":"m 842 35 q 894 26 868 31 q 944 14 919 21 l 944 0 l 633 0 l 633 17 l 790 36 l 483 871 l 497 871 l 178 36 q 270 26 225 32 q 361 14 315 21 l 361 0 l 38 0 l 38 17 l 132 36 l 465 894 l 521 894 l 842 35 m 275 326 l 275 368 l 697 368 l 697 326 l 275 326 m 490 1164 q 561 1149 531 1164 q 611 1108 592 1133 q 633 1053 631 1083 l 601 1046 q 565 1106 596 1082 q 490 1131 535 1131 q 416 1106 446 1131 q 379 1046 386 1082 l 347 1053 q 369 1108 350 1083 q 419 1149 388 1133 q 490 1164 451 1164 z "},"Ā":{"ha":981,"x_min":38,"x_max":944,"o":"m 842 35 q 894 26 868 31 q 944 14 919 21 l 944 0 l 633 0 l 633 17 l 790 36 l 483 871 l 497 871 l 178 36 q 270 26 225 32 q 361 14 315 21 l 361 0 l 38 0 l 38 17 l 132 36 l 465 894 l 521 894 l 842 35 m 275 326 l 275 368 l 697 368 l 697 326 l 275 326 m 343 1097 l 343 1133 l 639 1133 l 639 1097 l 343 1097 z "},"Ą":{"ha":981,"x_min":38,"x_max":944,"o":"m 842 35 q 894 26 868 31 q 944 14 919 21 l 944 0 l 633 0 l 633 17 l 790 36 l 483 871 l 497 871 l 178 36 q 270 26 225 32 q 361 14 315 21 l 361 0 l 38 0 l 38 17 l 132 36 l 465 894 l 521 894 l 842 35 m 275 326 l 275 368 l 697 368 l 697 326 l 275 326 m 778 -285 q 723 -271 744 -285 q 693 -235 701 -257 q 691 -185 685 -212 q 721 -129 697 -157 l 847 22 l 874 22 l 757 -133 q 733 -212 724 -178 q 788 -246 742 -246 q 845 -231 818 -246 q 894 -187 872 -215 l 903 -207 q 851 -264 883 -243 q 778 -285 818 -285 z "},"Å":{"ha":981,"x_min":38,"x_max":944,"o":"m 842 35 q 894 26 868 31 q 944 14 919 21 l 944 0 l 633 0 l 633 17 l 790 36 l 483 871 l 497 871 l 178 36 q 270 26 225 32 q 361 14 315 21 l 361 0 l 38 0 l 38 17 l 132 36 l 465 894 l 521 894 l 842 35 m 275 326 l 275 368 l 697 368 l 697 326 l 275 326 m 490 1018 q 441 1031 463 1018 q 407 1065 419 1043 q 394 1114 394 1086 q 407 1163 394 1142 q 441 1197 419 1185 q 490 1210 463 1210 q 559 1183 532 1210 q 586 1114 586 1156 q 574 1065 586 1086 q 540 1031 561 1043 q 490 1018 518 1018 m 490 1050 q 536 1069 518 1050 q 554 1114 554 1088 q 536 1160 554 1142 q 490 1178 518 1178 q 445 1160 464 1178 q 426 1114 426 1142 q 445 1069 426 1088 q 490 1050 464 1050 z "},"Ǻ":{"ha":981,"x_min":38,"x_max":944,"o":"m 842 35 q 894 26 868 31 q 944 14 919 21 l 944 0 l 633 0 l 633 17 l 790 36 l 483 871 l 497 871 l 178 36 q 270 26 225 32 q 361 14 315 21 l 361 0 l 38 0 l 38 17 l 132 36 l 465 894 l 521 894 l 842 35 m 275 326 l 275 368 l 697 368 l 697 326 l 275 326 m 489 863 q 440 875 461 863 q 406 909 418 888 q 393 958 393 931 q 406 1008 393 986 q 440 1042 418 1029 q 489 1054 461 1054 q 558 1027 531 1054 q 585 958 585 1000 q 572 909 585 931 q 538 875 560 888 q 489 863 517 863 m 489 894 q 535 913 517 894 q 553 958 553 932 q 535 1004 553 986 q 489 1022 517 1022 q 444 1004 463 1022 q 425 958 425 986 q 444 913 425 932 q 489 894 463 894 m 399 1078 l 390 1090 l 607 1269 l 615 1269 l 638 1239 q 520 1156 581 1196 q 399 1078 460 1115 z "},"Ã":{"ha":981,"x_min":38,"x_max":944,"o":"m 842 35 q 894 26 868 31 q 944 14 919 21 l 944 0 l 633 0 l 633 17 l 790 36 l 483 871 l 497 871 l 178 36 q 270 26 225 32 q 361 14 315 21 l 361 0 l 38 0 l 38 17 l 132 36 l 465 894 l 521 894 l 842 35 m 275 326 l 275 368 l 697 368 l 697 326 l 275 326 m 319 1049 l 310 1060 q 359 1121 340 1100 q 390 1149 378 1142 q 411 1156 401 1157 q 432 1153 421 1156 l 582 1113 l 661 1185 l 671 1175 q 610 1101 632 1122 q 576 1078 589 1079 q 549 1081 564 1076 l 399 1121 l 319 1049 z "},"Æ":{"ha":1303,"x_min":38,"x_max":1167,"o":"m 1156 285 l 1167 285 l 1167 0 l 606 0 l 606 17 l 767 36 l 539 871 l 553 869 l 153 36 q 243 26 199 32 q 332 14 288 21 l 332 0 l 38 0 l 38 17 l 107 38 l 504 857 l 349 879 l 349 894 l 1128 894 l 1128 639 l 1117 639 l 1075 853 l 571 853 l 583 871 l 819 24 l 796 42 l 1113 42 l 1156 285 m 999 322 l 953 467 l 999 613 l 1008 613 l 1008 322 l 999 322 m 279 326 l 279 368 l 701 368 l 701 326 l 279 326 m 675 446 l 675 488 l 993 488 l 993 446 l 675 446 z "},"Ǽ":{"ha":1303,"x_min":38,"x_max":1167,"o":"m 1156 285 l 1167 285 l 1167 0 l 606 0 l 606 17 l 767 36 l 539 871 l 553 869 l 153 36 q 243 26 199 32 q 332 14 288 21 l 332 0 l 38 0 l 38 17 l 107 38 l 504 857 l 349 879 l 349 894 l 1128 894 l 1128 639 l 1117 639 l 1075 853 l 571 853 l 583 871 l 819 24 l 796 42 l 1113 42 l 1156 285 m 999 322 l 953 467 l 999 613 l 1008 613 l 1008 322 l 999 322 m 279 326 l 279 368 l 701 368 l 701 326 l 279 326 m 675 446 l 675 488 l 993 488 l 993 446 l 675 446 m 664 1015 l 656 1028 l 872 1207 l 881 1207 l 903 1176 q 785 1093 846 1133 q 664 1015 725 1053 z "},"B":{"ha":925,"x_min":67,"x_max":817,"o":"m 575 468 q 751 389 686 450 q 817 243 817 328 q 733 66 817 132 q 504 0 649 0 l 67 0 l 67 14 q 130 32 90 25 q 229 40 169 39 l 240 854 l 67 879 l 67 894 l 515 894 q 701 838 631 894 q 771 692 771 782 q 717 555 771 615 q 575 468 664 494 m 282 24 l 264 42 l 582 42 q 719 111 669 60 q 769 236 769 163 q 695 385 769 328 q 500 442 621 442 l 272 442 l 272 483 l 529 483 q 725 683 725 544 q 667 807 725 761 q 511 853 610 853 l 264 853 l 282 871 l 282 24 z "},"C":{"ha":925,"x_min":111,"x_max":775,"o":"m 543 -8 q 222 108 333 -8 q 111 446 111 225 q 165 692 111 589 q 320 851 219 796 q 560 907 421 907 q 664 900 608 907 q 775 878 719 893 l 768 829 q 665 853 717 844 q 563 861 614 861 q 407 842 483 861 q 257 786 331 824 l 275 801 q 188 633 218 725 q 158 439 158 542 q 263 140 158 246 q 551 35 368 35 q 654 42 600 35 q 768 67 708 50 l 775 22 q 543 -8 647 -8 m 711 22 l 764 274 l 775 274 l 775 22 l 711 22 m 764 626 l 711 878 l 775 878 l 775 626 l 764 626 z "},"Ć":{"ha":925,"x_min":111,"x_max":775,"o":"m 543 -8 q 222 108 333 -8 q 111 446 111 225 q 165 692 111 589 q 320 851 219 796 q 560 907 421 907 q 664 900 608 907 q 775 878 719 893 l 768 829 q 665 853 717 844 q 563 861 614 861 q 407 842 483 861 q 257 786 331 824 l 275 801 q 188 633 218 725 q 158 439 158 542 q 263 140 158 246 q 551 35 368 35 q 654 42 600 35 q 768 67 708 50 l 775 22 q 543 -8 647 -8 m 711 22 l 764 274 l 775 274 l 775 22 l 711 22 m 764 626 l 711 878 l 775 878 l 775 626 l 764 626 m 446 1015 l 438 1028 l 654 1207 l 663 1207 l 685 1176 q 567 1093 628 1133 q 446 1015 507 1053 z "},"Č":{"ha":925,"x_min":111,"x_max":775,"o":"m 543 -8 q 222 108 333 -8 q 111 446 111 225 q 165 692 111 589 q 320 851 219 796 q 560 907 421 907 q 664 900 608 907 q 775 878 719 893 l 768 829 q 665 853 717 844 q 563 861 614 861 q 407 842 483 861 q 257 786 331 824 l 275 801 q 188 633 218 725 q 158 439 158 542 q 263 140 158 246 q 551 35 368 35 q 654 42 600 35 q 768 67 708 50 l 775 22 q 543 -8 647 -8 m 711 22 l 764 274 l 775 274 l 775 22 l 711 22 m 764 626 l 711 878 l 775 878 l 775 626 l 764 626 m 529 1038 l 386 1164 l 401 1181 l 539 1078 l 674 1181 l 689 1164 l 546 1038 l 529 1038 z "},"Ç":{"ha":925,"x_min":111,"x_max":775,"o":"m 543 -8 q 222 108 333 -8 q 111 446 111 225 q 165 692 111 589 q 320 851 219 796 q 560 907 421 907 q 664 900 608 907 q 775 878 719 893 l 768 829 q 665 853 717 844 q 563 861 614 861 q 407 842 483 861 q 257 786 331 824 l 275 801 q 188 633 218 725 q 158 439 158 542 q 263 140 158 246 q 551 35 368 35 q 654 42 600 35 q 768 67 708 50 l 775 22 q 543 -8 647 -8 m 711 22 l 764 274 l 775 274 l 775 22 l 711 22 m 764 626 l 711 878 l 775 878 l 775 626 l 764 626 m 443 -267 l 447 -231 q 533 -246 492 -240 q 617 -253 574 -251 q 641 -227 632 -243 q 650 -194 650 -211 q 635 -160 650 -176 q 586 -129 619 -144 q 500 -99 553 -114 l 517 -67 q 645 -118 604 -89 q 686 -190 686 -147 q 652 -258 686 -232 q 563 -286 618 -283 q 443 -267 508 -289 m 525 15 l 557 15 l 532 -99 l 500 -99 l 525 15 z "},"Ḉ":{"ha":925,"x_min":111,"x_max":775,"o":"m 543 -8 q 222 108 333 -8 q 111 446 111 225 q 165 692 111 589 q 320 851 219 796 q 560 907 421 907 q 664 900 608 907 q 775 878 719 893 l 768 829 q 665 853 717 844 q 563 861 614 861 q 407 842 483 861 q 257 786 331 824 l 275 801 q 188 633 218 725 q 158 439 158 542 q 263 140 158 246 q 551 35 368 35 q 654 42 600 35 q 768 67 708 50 l 775 22 q 543 -8 647 -8 m 711 22 l 764 274 l 775 274 l 775 22 l 711 22 m 764 626 l 711 878 l 775 878 l 775 626 l 764 626 m 443 -267 l 447 -231 q 533 -246 492 -240 q 617 -253 574 -251 q 641 -227 632 -243 q 650 -194 650 -211 q 635 -160 650 -176 q 586 -129 619 -144 q 500 -99 553 -114 l 517 -67 q 645 -118 604 -89 q 686 -190 686 -147 q 652 -258 686 -232 q 563 -286 618 -283 q 443 -267 508 -289 m 525 15 l 557 15 l 532 -99 l 500 -99 l 525 15 m 446 1015 l 438 1028 l 654 1207 l 663 1207 l 685 1176 q 567 1093 628 1133 q 446 1015 507 1053 z "},"Ĉ":{"ha":925,"x_min":111,"x_max":775,"o":"m 543 -8 q 222 108 333 -8 q 111 446 111 225 q 165 692 111 589 q 320 851 219 796 q 560 907 421 907 q 664 900 608 907 q 775 878 719 893 l 768 829 q 665 853 717 844 q 563 861 614 861 q 407 842 483 861 q 257 786 331 824 l 275 801 q 188 633 218 725 q 158 439 158 542 q 263 140 158 246 q 551 35 368 35 q 654 42 600 35 q 768 67 708 50 l 775 22 q 543 -8 647 -8 m 711 22 l 764 274 l 775 274 l 775 22 l 711 22 m 764 626 l 711 878 l 775 878 l 775 626 l 764 626 m 560 1193 l 703 1067 l 688 1050 l 550 1153 l 415 1050 l 400 1067 l 543 1193 l 560 1193 z "},"Ċ":{"ha":925,"x_min":111,"x_max":775,"o":"m 543 -8 q 222 108 333 -8 q 111 446 111 225 q 165 692 111 589 q 320 851 219 796 q 560 907 421 907 q 664 900 608 907 q 775 878 719 893 l 768 829 q 665 853 717 844 q 563 861 614 861 q 407 842 483 861 q 257 786 331 824 l 275 801 q 188 633 218 725 q 158 439 158 542 q 263 140 158 246 q 551 35 368 35 q 654 42 600 35 q 768 67 708 50 l 775 22 q 543 -8 647 -8 m 711 22 l 764 274 l 775 274 l 775 22 l 711 22 m 764 626 l 711 878 l 775 878 l 775 626 l 764 626 m 550 1163 q 572 1135 563 1151 q 582 1103 581 1118 q 556 1082 572 1090 q 525 1071 540 1074 q 503 1097 513 1082 q 490 1128 494 1113 q 517 1151 501 1142 q 550 1163 533 1160 z "},"D":{"ha":1017,"x_min":67,"x_max":908,"o":"m 521 894 q 724 840 636 894 q 860 686 811 785 q 908 457 908 588 q 858 221 908 324 q 721 59 808 118 q 521 0 633 0 l 67 0 l 67 14 q 143 32 103 25 q 229 40 183 39 l 240 854 l 67 879 l 67 894 l 521 894 m 606 42 q 794 199 729 94 q 860 450 860 303 q 836 616 860 542 q 767 743 813 690 q 660 824 722 796 q 521 853 599 853 l 264 853 l 282 871 l 282 24 l 264 42 l 606 42 z "},"Ǆ":{"ha":1869,"x_min":67,"x_max":1764,"o":"m 521 894 q 724 840 636 894 q 860 686 811 785 q 908 457 908 588 q 858 221 908 324 q 721 59 808 118 q 521 0 633 0 l 67 0 l 67 14 q 143 32 103 25 q 229 40 183 39 l 240 854 l 67 879 l 67 894 l 521 894 m 606 42 q 794 199 729 94 q 860 450 860 303 q 836 616 860 542 q 767 743 813 690 q 660 824 722 796 q 521 853 599 853 l 264 853 l 282 871 l 282 24 l 264 42 l 606 42 m 1068 0 l 1068 4 l 1682 861 l 1144 851 l 1114 646 l 1104 646 l 1099 894 l 1756 894 l 1756 890 l 1143 33 l 1717 43 l 1747 258 l 1757 258 l 1764 0 l 1068 0 m 1414 1038 l 1271 1164 l 1286 1181 l 1424 1078 l 1558 1181 l 1574 1164 l 1431 1038 l 1414 1038 z "},"Ð":{"ha":1046,"x_min":96,"x_max":938,"o":"m 550 894 q 753 840 665 894 q 889 686 840 785 q 938 457 938 588 q 888 221 938 324 q 750 59 838 118 q 550 0 663 0 l 96 0 l 96 14 q 172 32 132 25 q 258 40 213 39 l 269 854 l 96 879 l 96 894 l 550 894 m 635 42 q 824 199 758 94 q 889 450 889 303 q 865 616 889 542 q 797 743 842 690 q 690 824 751 796 q 550 853 628 853 l 293 853 l 311 871 l 311 24 l 293 42 l 635 42 m 111 482 l 536 482 l 536 444 l 111 444 l 111 482 z "},"Ď":{"ha":1017,"x_min":67,"x_max":908,"o":"m 521 894 q 724 840 636 894 q 860 686 811 785 q 908 457 908 588 q 858 221 908 324 q 721 59 808 118 q 521 0 633 0 l 67 0 l 67 14 q 143 32 103 25 q 229 40 183 39 l 240 854 l 67 879 l 67 894 l 521 894 m 606 42 q 794 199 729 94 q 860 450 860 303 q 836 616 860 542 q 767 743 813 690 q 660 824 722 796 q 521 853 599 853 l 264 853 l 282 871 l 282 24 l 264 42 l 606 42 m 479 1038 l 336 1164 l 351 1181 l 489 1078 l 624 1181 l 639 1164 l 496 1038 l 479 1038 z "},"Đ":{"ha":1046,"x_min":96,"x_max":938,"o":"m 550 894 q 753 840 665 894 q 889 686 840 785 q 938 457 938 588 q 888 221 938 324 q 750 59 838 118 q 550 0 663 0 l 96 0 l 96 14 q 172 32 132 25 q 258 40 213 39 l 269 854 l 96 879 l 96 894 l 550 894 m 635 42 q 824 199 758 94 q 889 450 889 303 q 865 616 889 542 q 797 743 842 690 q 690 824 751 796 q 550 853 628 853 l 293 853 l 311 871 l 311 24 l 293 42 l 635 42 m 111 482 l 536 482 l 536 444 l 111 444 l 111 482 z "},"Ḍ":{"ha":1017,"x_min":67,"x_max":908,"o":"m 521 894 q 724 840 636 894 q 860 686 811 785 q 908 457 908 588 q 858 221 908 324 q 721 59 808 118 q 521 0 633 0 l 67 0 l 67 14 q 143 32 103 25 q 229 40 183 39 l 240 854 l 67 879 l 67 894 l 521 894 m 606 42 q 794 199 729 94 q 860 450 860 303 q 836 616 860 542 q 767 743 813 690 q 660 824 722 796 q 521 853 599 853 l 264 853 l 282 871 l 282 24 l 264 42 l 606 42 m 403 -119 q 423 -147 414 -131 q 433 -178 432 -162 q 408 -197 424 -189 q 378 -208 393 -206 q 358 -183 367 -197 q 344 -153 350 -168 q 371 -132 356 -140 q 403 -119 386 -124 z "},"Ḏ":{"ha":1017,"x_min":67,"x_max":908,"o":"m 521 894 q 724 840 636 894 q 860 686 811 785 q 908 457 908 588 q 858 221 908 324 q 721 59 808 118 q 521 0 633 0 l 67 0 l 67 14 q 143 32 103 25 q 229 40 183 39 l 240 854 l 67 879 l 67 894 l 521 894 m 606 42 q 794 199 729 94 q 860 450 860 303 q 836 616 860 542 q 767 743 813 690 q 660 824 722 796 q 521 853 599 853 l 264 853 l 282 871 l 282 24 l 264 42 l 606 42 m 242 -186 l 242 -150 l 538 -150 l 538 -186 l 242 -186 z "},"ǅ":{"ha":1675,"x_min":67,"x_max":1608,"o":"m 521 894 q 724 840 636 894 q 860 686 811 785 q 908 457 908 588 q 858 221 908 324 q 721 59 808 118 q 521 0 633 0 l 67 0 l 67 14 q 143 32 103 25 q 229 40 183 39 l 240 854 l 67 879 l 67 894 l 521 894 m 606 42 q 794 199 729 94 q 860 450 860 303 q 836 616 860 542 q 767 743 813 690 q 660 824 722 796 q 521 853 599 853 l 264 853 l 282 871 l 282 24 l 264 42 l 606 42 m 1069 0 l 1069 4 l 1525 628 l 1146 628 l 1115 471 l 1106 471 l 1100 664 l 1599 664 l 1599 660 l 1144 36 l 1561 35 l 1592 203 l 1600 203 l 1608 0 l 1069 0 m 1338 807 l 1194 933 l 1210 950 l 1347 847 l 1482 950 l 1497 933 l 1354 807 l 1338 807 z "},"E":{"ha":939,"x_min":67,"x_max":790,"o":"m 779 285 l 790 285 l 790 0 l 67 0 l 67 14 q 150 32 110 25 q 229 40 190 39 l 240 854 l 67 879 l 67 894 l 776 894 l 776 639 l 765 639 l 724 853 l 264 853 l 282 871 l 282 485 l 593 485 l 632 610 l 642 610 l 642 319 l 632 319 l 593 443 l 282 443 l 282 24 l 264 42 l 736 42 l 779 285 z "},"É":{"ha":939,"x_min":67,"x_max":790,"o":"m 779 285 l 790 285 l 790 0 l 67 0 l 67 14 q 150 32 110 25 q 229 40 190 39 l 240 854 l 67 879 l 67 894 l 776 894 l 776 639 l 765 639 l 724 853 l 264 853 l 282 871 l 282 485 l 593 485 l 632 610 l 642 610 l 642 319 l 632 319 l 593 443 l 282 443 l 282 24 l 264 42 l 736 42 l 779 285 m 394 1015 l 386 1028 l 603 1207 l 611 1207 l 633 1176 q 516 1093 576 1133 q 394 1015 456 1053 z "},"Ĕ":{"ha":939,"x_min":67,"x_max":790,"o":"m 779 285 l 790 285 l 790 0 l 67 0 l 67 14 q 150 32 110 25 q 229 40 190 39 l 240 854 l 67 879 l 67 894 l 776 894 l 776 639 l 765 639 l 724 853 l 264 853 l 282 871 l 282 485 l 593 485 l 632 610 l 642 610 l 642 319 l 632 319 l 593 443 l 282 443 l 282 24 l 264 42 l 736 42 l 779 285 m 485 1046 q 415 1061 446 1046 q 365 1101 383 1076 q 342 1157 346 1126 l 374 1164 q 410 1103 379 1128 q 485 1079 442 1079 q 560 1103 529 1079 q 596 1164 590 1128 l 628 1157 q 606 1101 625 1126 q 556 1061 588 1076 q 485 1046 525 1046 z "},"Ě":{"ha":939,"x_min":67,"x_max":790,"o":"m 779 285 l 790 285 l 790 0 l 67 0 l 67 14 q 150 32 110 25 q 229 40 190 39 l 240 854 l 67 879 l 67 894 l 776 894 l 776 639 l 765 639 l 724 853 l 264 853 l 282 871 l 282 485 l 593 485 l 632 610 l 642 610 l 642 319 l 632 319 l 593 443 l 282 443 l 282 24 l 264 42 l 736 42 l 779 285 m 478 1038 l 335 1164 l 350 1181 l 488 1078 l 622 1181 l 638 1164 l 494 1038 l 478 1038 z "},"Ḝ":{"ha":939,"x_min":67,"x_max":790,"o":"m 779 285 l 790 285 l 790 0 l 67 0 l 67 14 q 150 32 110 25 q 229 40 190 39 l 240 854 l 67 879 l 67 894 l 776 894 l 776 639 l 765 639 l 724 853 l 264 853 l 282 871 l 282 485 l 593 485 l 632 610 l 642 610 l 642 319 l 632 319 l 593 443 l 282 443 l 282 24 l 264 42 l 736 42 l 779 285 m 378 -267 l 382 -231 q 467 -246 426 -240 q 551 -253 508 -251 q 576 -227 567 -243 q 585 -194 585 -211 q 569 -160 585 -176 q 521 -129 554 -144 q 435 -99 488 -114 l 451 -67 q 580 -118 539 -89 q 621 -190 621 -147 q 587 -258 621 -232 q 498 -286 553 -283 q 378 -267 443 -289 m 460 15 l 492 15 l 467 -99 l 435 -99 l 460 15 m 485 1046 q 415 1061 446 1046 q 365 1101 383 1076 q 342 1157 346 1126 l 374 1164 q 410 1103 379 1128 q 485 1079 442 1079 q 560 1103 529 1079 q 596 1164 590 1128 l 628 1157 q 606 1101 625 1126 q 556 1061 588 1076 q 485 1046 525 1046 z "},"Ê":{"ha":939,"x_min":67,"x_max":790,"o":"m 779 285 l 790 285 l 790 0 l 67 0 l 67 14 q 150 32 110 25 q 229 40 190 39 l 240 854 l 67 879 l 67 894 l 776 894 l 776 639 l 765 639 l 724 853 l 264 853 l 282 871 l 282 485 l 593 485 l 632 610 l 642 610 l 642 319 l 632 319 l 593 443 l 282 443 l 282 24 l 264 42 l 736 42 l 779 285 m 508 1193 l 651 1067 l 636 1050 l 499 1153 l 364 1050 l 349 1067 l 492 1193 l 508 1193 z "},"Ế":{"ha":939,"x_min":67,"x_max":790,"o":"m 779 285 l 790 285 l 790 0 l 67 0 l 67 14 q 150 32 110 25 q 229 40 190 39 l 240 854 l 67 879 l 67 894 l 776 894 l 776 639 l 765 639 l 724 853 l 264 853 l 282 871 l 282 485 l 593 485 l 632 610 l 642 610 l 642 319 l 632 319 l 593 443 l 282 443 l 282 24 l 264 42 l 736 42 l 779 285 m 364 1140 l 358 1158 l 599 1271 l 607 1268 l 621 1233 q 493 1184 557 1207 q 364 1140 429 1161 m 351 1007 l 338 1022 l 472 1125 l 490 1125 l 625 1022 l 611 1007 l 482 1085 l 351 1007 z "},"Ệ":{"ha":939,"x_min":67,"x_max":790,"o":"m 779 285 l 790 285 l 790 0 l 67 0 l 67 14 q 150 32 110 25 q 229 40 190 39 l 240 854 l 67 879 l 67 894 l 776 894 l 776 639 l 765 639 l 724 853 l 264 853 l 282 871 l 282 485 l 593 485 l 632 610 l 642 610 l 642 319 l 632 319 l 593 443 l 282 443 l 282 24 l 264 42 l 736 42 l 779 285 m 485 -119 q 505 -147 496 -131 q 515 -178 514 -162 q 490 -197 506 -189 q 460 -208 475 -206 q 440 -183 449 -197 q 426 -153 432 -168 q 453 -132 438 -140 q 485 -119 468 -124 m 508 1193 l 651 1067 l 636 1050 l 499 1153 l 364 1050 l 349 1067 l 492 1193 l 508 1193 z "},"Ề":{"ha":939,"x_min":67,"x_max":790,"o":"m 779 285 l 790 285 l 790 0 l 67 0 l 67 14 q 150 32 110 25 q 229 40 190 39 l 240 854 l 67 879 l 67 894 l 776 894 l 776 639 l 765 639 l 724 853 l 264 853 l 282 871 l 282 485 l 593 485 l 632 610 l 642 610 l 642 319 l 632 319 l 593 443 l 282 443 l 282 24 l 264 42 l 736 42 l 779 285 m 606 1140 q 477 1184 542 1161 q 349 1233 413 1207 l 363 1268 l 371 1271 l 611 1158 l 606 1140 m 358 1007 l 344 1022 l 479 1125 l 497 1125 l 632 1022 l 618 1007 l 488 1085 l 358 1007 z "},"Ể":{"ha":939,"x_min":67,"x_max":790,"o":"m 779 285 l 790 285 l 790 0 l 67 0 l 67 14 q 150 32 110 25 q 229 40 190 39 l 240 854 l 67 879 l 67 894 l 776 894 l 776 639 l 765 639 l 724 853 l 264 853 l 282 871 l 282 485 l 593 485 l 632 610 l 642 610 l 642 319 l 632 319 l 593 443 l 282 443 l 282 24 l 264 42 l 736 42 l 779 285 m 356 1006 l 338 1022 l 476 1128 l 499 1128 l 638 1022 l 619 1006 l 486 1088 l 356 1006 m 568 1103 l 568 1126 q 588 1164 568 1150 q 626 1191 607 1178 q 646 1225 646 1204 q 586 1258 646 1258 q 552 1256 569 1258 q 518 1250 535 1254 l 513 1278 q 551 1285 532 1282 q 589 1288 571 1288 q 657 1272 632 1288 q 682 1229 682 1257 q 670 1193 682 1207 q 642 1169 658 1179 q 613 1148 626 1158 q 597 1122 600 1138 l 593 1101 l 568 1103 z "},"Ễ":{"ha":939,"x_min":67,"x_max":790,"o":"m 779 285 l 790 285 l 790 0 l 67 0 l 67 14 q 150 32 110 25 q 229 40 190 39 l 240 854 l 67 879 l 67 894 l 776 894 l 776 639 l 765 639 l 724 853 l 264 853 l 282 871 l 282 485 l 593 485 l 632 610 l 642 610 l 642 319 l 632 319 l 593 443 l 282 443 l 282 24 l 264 42 l 736 42 l 779 285 m 350 1007 l 336 1022 l 471 1126 l 489 1126 l 624 1022 l 610 1007 l 481 1086 l 350 1007 m 303 1165 l 293 1176 q 356 1232 333 1214 q 394 1254 378 1250 q 431 1254 411 1258 l 575 1222 l 667 1276 l 676 1268 q 614 1211 638 1229 q 574 1190 590 1193 q 536 1190 557 1186 l 394 1222 l 303 1165 z "},"Ȅ":{"ha":939,"x_min":67,"x_max":790,"o":"m 779 285 l 790 285 l 790 0 l 67 0 l 67 14 q 150 32 110 25 q 229 40 190 39 l 240 854 l 67 879 l 67 894 l 776 894 l 776 639 l 765 639 l 724 853 l 264 853 l 282 871 l 282 485 l 593 485 l 632 610 l 642 610 l 642 319 l 632 319 l 593 443 l 282 443 l 282 24 l 264 42 l 736 42 l 779 285 m 469 1017 q 376 1103 422 1060 q 285 1194 329 1147 l 308 1218 l 315 1217 l 481 1026 l 469 1017 m 618 1017 q 524 1103 571 1060 q 433 1194 478 1147 l 457 1218 l 464 1217 l 629 1026 l 618 1017 z "},"Ë":{"ha":939,"x_min":67,"x_max":790,"o":"m 779 285 l 790 285 l 790 0 l 67 0 l 67 14 q 150 32 110 25 q 229 40 190 39 l 240 854 l 67 879 l 67 894 l 776 894 l 776 639 l 765 639 l 724 853 l 264 853 l 282 871 l 282 485 l 593 485 l 632 610 l 642 610 l 642 319 l 632 319 l 593 443 l 282 443 l 282 24 l 264 42 l 736 42 l 779 285 m 400 1158 q 419 1132 411 1147 q 429 1101 428 1117 q 405 1083 419 1092 q 375 1072 390 1075 q 356 1097 365 1083 q 343 1126 347 1111 q 369 1147 354 1138 q 400 1158 383 1156 m 597 1158 q 617 1132 608 1147 q 626 1101 625 1117 q 602 1083 617 1092 q 572 1072 588 1075 q 552 1097 560 1083 q 540 1126 544 1111 q 566 1147 551 1138 q 597 1158 581 1156 z "},"Ė":{"ha":939,"x_min":67,"x_max":790,"o":"m 779 285 l 790 285 l 790 0 l 67 0 l 67 14 q 150 32 110 25 q 229 40 190 39 l 240 854 l 67 879 l 67 894 l 776 894 l 776 639 l 765 639 l 724 853 l 264 853 l 282 871 l 282 485 l 593 485 l 632 610 l 642 610 l 642 319 l 632 319 l 593 443 l 282 443 l 282 24 l 264 42 l 736 42 l 779 285 m 499 1163 q 520 1135 511 1151 q 531 1103 529 1118 q 505 1082 521 1090 q 474 1071 489 1074 q 452 1097 461 1082 q 439 1128 443 1113 q 466 1151 450 1142 q 499 1163 482 1160 z "},"Ẹ":{"ha":939,"x_min":67,"x_max":790,"o":"m 779 285 l 790 285 l 790 0 l 67 0 l 67 14 q 150 32 110 25 q 229 40 190 39 l 240 854 l 67 879 l 67 894 l 776 894 l 776 639 l 765 639 l 724 853 l 264 853 l 282 871 l 282 485 l 593 485 l 632 610 l 642 610 l 642 319 l 632 319 l 593 443 l 282 443 l 282 24 l 264 42 l 736 42 l 779 285 m 485 -119 q 505 -147 496 -131 q 515 -178 514 -162 q 490 -197 506 -189 q 460 -208 475 -206 q 440 -183 449 -197 q 426 -153 432 -168 q 453 -132 438 -140 q 485 -119 468 -124 z "},"È":{"ha":939,"x_min":67,"x_max":790,"o":"m 779 285 l 790 285 l 790 0 l 67 0 l 67 14 q 150 32 110 25 q 229 40 190 39 l 240 854 l 67 879 l 67 894 l 776 894 l 776 639 l 765 639 l 724 853 l 264 853 l 282 871 l 282 485 l 593 485 l 632 610 l 642 610 l 642 319 l 632 319 l 593 443 l 282 443 l 282 24 l 264 42 l 736 42 l 779 285 m 600 1015 q 478 1093 539 1053 q 361 1176 418 1133 l 383 1207 l 392 1207 l 608 1028 l 600 1015 z "},"Ẻ":{"ha":939,"x_min":67,"x_max":790,"o":"m 779 285 l 790 285 l 790 0 l 67 0 l 67 14 q 150 32 110 25 q 229 40 190 39 l 240 854 l 67 879 l 67 894 l 776 894 l 776 639 l 765 639 l 724 853 l 264 853 l 282 871 l 282 485 l 593 485 l 632 610 l 642 610 l 642 319 l 632 319 l 593 443 l 282 443 l 282 24 l 264 42 l 736 42 l 779 285 m 465 967 l 465 997 q 478 1035 465 1019 q 508 1063 490 1050 q 538 1089 525 1075 q 550 1124 550 1103 q 533 1156 550 1146 q 485 1167 515 1167 q 450 1165 469 1167 q 410 1156 431 1163 l 404 1186 q 449 1196 428 1193 q 488 1199 469 1199 q 560 1181 533 1199 q 588 1126 588 1163 q 574 1081 588 1099 q 544 1051 561 1064 q 512 1025 526 1038 q 494 993 497 1013 l 490 965 l 465 967 z "},"Ȇ":{"ha":939,"x_min":67,"x_max":790,"o":"m 779 285 l 790 285 l 790 0 l 67 0 l 67 14 q 150 32 110 25 q 229 40 190 39 l 240 854 l 67 879 l 67 894 l 776 894 l 776 639 l 765 639 l 724 853 l 264 853 l 282 871 l 282 485 l 593 485 l 632 610 l 642 610 l 642 319 l 632 319 l 593 443 l 282 443 l 282 24 l 264 42 l 736 42 l 779 285 m 485 1164 q 556 1149 525 1164 q 606 1108 586 1133 q 628 1053 625 1083 l 596 1046 q 560 1106 590 1082 q 485 1131 529 1131 q 410 1106 440 1131 q 374 1046 381 1082 l 342 1053 q 363 1108 344 1083 q 414 1149 382 1133 q 485 1164 446 1164 z "},"Ē":{"ha":939,"x_min":67,"x_max":790,"o":"m 779 285 l 790 285 l 790 0 l 67 0 l 67 14 q 150 32 110 25 q 229 40 190 39 l 240 854 l 67 879 l 67 894 l 776 894 l 776 639 l 765 639 l 724 853 l 264 853 l 282 871 l 282 485 l 593 485 l 632 610 l 642 610 l 642 319 l 632 319 l 593 443 l 282 443 l 282 24 l 264 42 l 736 42 l 779 285 m 338 1097 l 338 1133 l 633 1133 l 633 1097 l 338 1097 z "},"Ḗ":{"ha":939,"x_min":67,"x_max":790,"o":"m 779 285 l 790 285 l 790 0 l 67 0 l 67 14 q 150 32 110 25 q 229 40 190 39 l 240 854 l 67 879 l 67 894 l 776 894 l 776 639 l 765 639 l 724 853 l 264 853 l 282 871 l 282 485 l 593 485 l 632 610 l 642 610 l 642 319 l 632 319 l 593 443 l 282 443 l 282 24 l 264 42 l 736 42 l 779 285 m 317 1021 l 317 1056 l 653 1056 l 653 1021 l 317 1021 m 349 1136 l 346 1150 l 607 1253 l 615 1251 l 626 1215 q 489 1172 558 1192 q 349 1136 419 1153 z "},"Ḕ":{"ha":939,"x_min":67,"x_max":790,"o":"m 779 285 l 790 285 l 790 0 l 67 0 l 67 14 q 150 32 110 25 q 229 40 190 39 l 240 854 l 67 879 l 67 894 l 776 894 l 776 639 l 765 639 l 724 853 l 264 853 l 282 871 l 282 485 l 593 485 l 632 610 l 642 610 l 642 319 l 632 319 l 593 443 l 282 443 l 282 24 l 264 42 l 736 42 l 779 285 m 621 1136 q 481 1172 550 1153 q 343 1215 411 1192 l 354 1251 l 363 1253 l 624 1150 l 621 1136 m 317 1021 l 317 1056 l 653 1056 l 653 1021 l 317 1021 z "},"Ę":{"ha":939,"x_min":67,"x_max":792,"o":"m 779 285 l 790 285 l 790 0 l 67 0 l 67 14 q 150 32 110 25 q 229 40 190 39 l 240 854 l 67 879 l 67 894 l 776 894 l 776 639 l 765 639 l 724 853 l 264 853 l 282 871 l 282 485 l 593 485 l 632 610 l 642 610 l 642 319 l 632 319 l 593 443 l 282 443 l 282 24 l 264 42 l 736 42 l 779 285 m 667 -285 q 612 -271 633 -285 q 582 -235 590 -257 q 580 -185 574 -212 q 610 -129 586 -157 l 736 22 l 763 22 l 646 -133 q 622 -212 613 -178 q 676 -246 631 -246 q 734 -231 707 -246 q 783 -187 761 -215 l 792 -207 q 740 -264 772 -243 q 667 -285 707 -285 z "},"Ẽ":{"ha":939,"x_min":67,"x_max":790,"o":"m 779 285 l 790 285 l 790 0 l 67 0 l 67 14 q 150 32 110 25 q 229 40 190 39 l 240 854 l 67 879 l 67 894 l 776 894 l 776 639 l 765 639 l 724 853 l 264 853 l 282 871 l 282 485 l 593 485 l 632 610 l 642 610 l 642 319 l 632 319 l 593 443 l 282 443 l 282 24 l 264 42 l 736 42 l 779 285 m 314 1049 l 304 1060 q 353 1121 335 1100 q 384 1149 372 1142 q 406 1156 396 1157 q 426 1153 415 1156 l 576 1113 l 656 1185 l 665 1175 q 605 1101 626 1122 q 571 1078 583 1079 q 543 1081 558 1076 l 393 1121 l 314 1049 z "},"F":{"ha":821,"x_min":67,"x_max":731,"o":"m 731 894 l 731 639 l 719 639 l 678 853 l 264 853 l 282 871 l 282 465 l 558 465 l 597 590 l 607 590 l 607 300 l 597 300 l 558 424 l 282 424 l 282 42 l 479 17 l 479 0 l 67 0 l 67 14 q 150 32 110 25 q 229 40 190 39 l 240 854 l 67 879 l 67 894 l 731 894 z "},"G":{"ha":993,"x_min":110,"x_max":919,"o":"m 556 -8 q 225 108 340 -8 q 110 446 110 225 q 166 692 110 589 q 327 851 222 796 q 578 907 432 907 q 681 900 625 907 q 794 878 738 893 l 788 829 q 683 852 736 844 q 578 860 631 860 q 415 841 496 860 q 260 786 335 822 l 278 801 q 188 633 218 725 q 157 439 157 542 q 266 140 157 246 q 564 35 375 35 q 672 42 615 35 q 788 67 728 50 l 794 22 q 668 -1 728 7 q 556 -8 608 -8 m 742 22 l 747 396 l 533 421 l 533 436 l 919 436 l 919 424 q 860 407 892 414 q 794 397 829 400 l 794 22 l 742 22 m 783 626 l 731 878 l 794 878 l 794 626 l 783 626 z "},"Ğ":{"ha":993,"x_min":110,"x_max":919,"o":"m 556 -8 q 225 108 340 -8 q 110 446 110 225 q 166 692 110 589 q 327 851 222 796 q 578 907 432 907 q 681 900 625 907 q 794 878 738 893 l 788 829 q 683 852 736 844 q 578 860 631 860 q 415 841 496 860 q 260 786 335 822 l 278 801 q 188 633 218 725 q 157 439 157 542 q 266 140 157 246 q 564 35 375 35 q 672 42 615 35 q 788 67 728 50 l 794 22 q 668 -1 728 7 q 556 -8 608 -8 m 742 22 l 747 396 l 533 421 l 533 436 l 919 436 l 919 424 q 860 407 892 414 q 794 397 829 400 l 794 22 l 742 22 m 783 626 l 731 878 l 794 878 l 794 626 l 783 626 m 578 1046 q 508 1061 539 1046 q 458 1101 476 1076 q 435 1157 439 1126 l 467 1164 q 503 1103 472 1128 q 578 1079 535 1079 q 653 1103 622 1079 q 689 1164 683 1128 l 721 1157 q 699 1101 718 1126 q 649 1061 681 1076 q 578 1046 618 1046 z "},"Ǧ":{"ha":993,"x_min":110,"x_max":919,"o":"m 556 -8 q 225 108 340 -8 q 110 446 110 225 q 166 692 110 589 q 327 851 222 796 q 578 907 432 907 q 681 900 625 907 q 794 878 738 893 l 788 829 q 683 852 736 844 q 578 860 631 860 q 415 841 496 860 q 260 786 335 822 l 278 801 q 188 633 218 725 q 157 439 157 542 q 266 140 157 246 q 564 35 375 35 q 672 42 615 35 q 788 67 728 50 l 794 22 q 668 -1 728 7 q 556 -8 608 -8 m 742 22 l 747 396 l 533 421 l 533 436 l 919 436 l 919 424 q 860 407 892 414 q 794 397 829 400 l 794 22 l 742 22 m 783 626 l 731 878 l 794 878 l 794 626 l 783 626 m 571 1038 l 428 1164 l 443 1181 l 581 1078 l 715 1181 l 731 1164 l 588 1038 l 571 1038 z "},"Ĝ":{"ha":993,"x_min":110,"x_max":919,"o":"m 556 -8 q 225 108 340 -8 q 110 446 110 225 q 166 692 110 589 q 327 851 222 796 q 578 907 432 907 q 681 900 625 907 q 794 878 738 893 l 788 829 q 683 852 736 844 q 578 860 631 860 q 415 841 496 860 q 260 786 335 822 l 278 801 q 188 633 218 725 q 157 439 157 542 q 266 140 157 246 q 564 35 375 35 q 672 42 615 35 q 788 67 728 50 l 794 22 q 668 -1 728 7 q 556 -8 608 -8 m 742 22 l 747 396 l 533 421 l 533 436 l 919 436 l 919 424 q 860 407 892 414 q 794 397 829 400 l 794 22 l 742 22 m 783 626 l 731 878 l 794 878 l 794 626 l 783 626 m 601 1193 l 744 1067 l 729 1050 l 592 1153 l 457 1050 l 442 1067 l 585 1193 l 601 1193 z "},"Ģ":{"ha":993,"x_min":110,"x_max":919,"o":"m 556 -8 q 225 108 340 -8 q 110 446 110 225 q 166 692 110 589 q 327 851 222 796 q 578 907 432 907 q 681 900 625 907 q 794 878 738 893 l 788 829 q 683 852 736 844 q 578 860 631 860 q 415 841 496 860 q 260 786 335 822 l 278 801 q 188 633 218 725 q 157 439 157 542 q 266 140 157 246 q 564 35 375 35 q 672 42 615 35 q 788 67 728 50 l 794 22 q 668 -1 728 7 q 556 -8 608 -8 m 742 22 l 747 396 l 533 421 l 533 436 l 919 436 l 919 424 q 860 407 892 414 q 794 397 829 400 l 794 22 l 742 22 m 783 626 l 731 878 l 794 878 l 794 626 l 783 626 m 510 -256 l 539 -118 l 596 -104 q 564 -181 582 -142 q 522 -260 546 -219 l 510 -256 m 543 -139 l 511 -85 q 540 -66 526 -72 q 568 -54 553 -60 q 584 -75 578 -64 q 596 -104 590 -86 l 543 -139 z "},"Ġ":{"ha":993,"x_min":110,"x_max":919,"o":"m 556 -8 q 225 108 340 -8 q 110 446 110 225 q 166 692 110 589 q 327 851 222 796 q 578 907 432 907 q 681 900 625 907 q 794 878 738 893 l 788 829 q 683 852 736 844 q 578 860 631 860 q 415 841 496 860 q 260 786 335 822 l 278 801 q 188 633 218 725 q 157 439 157 542 q 266 140 157 246 q 564 35 375 35 q 672 42 615 35 q 788 67 728 50 l 794 22 q 668 -1 728 7 q 556 -8 608 -8 m 742 22 l 747 396 l 533 421 l 533 436 l 919 436 l 919 424 q 860 407 892 414 q 794 397 829 400 l 794 22 l 742 22 m 783 626 l 731 878 l 794 878 l 794 626 l 783 626 m 592 1163 q 613 1135 604 1151 q 624 1103 622 1118 q 598 1082 614 1090 q 567 1071 582 1074 q 545 1097 554 1082 q 532 1128 536 1113 q 559 1151 543 1142 q 592 1163 575 1160 z "},"Ḡ":{"ha":993,"x_min":110,"x_max":919,"o":"m 556 -8 q 225 108 340 -8 q 110 446 110 225 q 166 692 110 589 q 327 851 222 796 q 578 907 432 907 q 681 900 625 907 q 794 878 738 893 l 788 829 q 683 852 736 844 q 578 860 631 860 q 415 841 496 860 q 260 786 335 822 l 278 801 q 188 633 218 725 q 157 439 157 542 q 266 140 157 246 q 564 35 375 35 q 672 42 615 35 q 788 67 728 50 l 794 22 q 668 -1 728 7 q 556 -8 608 -8 m 742 22 l 747 396 l 533 421 l 533 436 l 919 436 l 919 424 q 860 407 892 414 q 794 397 829 400 l 794 22 l 742 22 m 783 626 l 731 878 l 794 878 l 794 626 l 783 626 m 431 1097 l 431 1133 l 726 1133 l 726 1097 l 431 1097 z "},"H":{"ha":1101,"x_min":67,"x_max":1031,"o":"m 653 0 l 653 10 q 736 31 696 22 q 815 40 776 39 l 826 854 l 653 879 l 653 894 l 1031 894 l 1031 882 q 953 865 994 872 q 868 856 913 858 l 868 42 l 1031 17 l 1031 0 l 653 0 m 67 0 l 67 14 q 150 32 110 25 q 229 40 190 39 l 240 854 l 67 879 l 67 894 l 444 894 l 444 882 q 367 865 408 872 q 282 856 326 858 l 282 42 l 444 17 l 444 0 l 67 0 m 258 443 l 258 485 l 846 485 l 846 443 l 258 443 z "},"Ħ":{"ha":1136,"x_min":85,"x_max":1049,"o":"m 671 0 l 671 10 q 754 31 714 22 q 833 40 794 39 l 844 854 l 671 879 l 671 894 l 1049 894 l 1049 882 q 972 865 1013 872 q 886 856 931 858 l 886 42 l 1049 17 l 1049 0 l 671 0 m 85 0 l 85 14 q 168 32 128 25 q 247 40 208 39 l 258 854 l 85 879 l 85 894 l 463 894 l 463 882 q 385 865 426 872 q 300 856 344 858 l 300 42 l 463 17 l 463 0 l 85 0 m 276 433 l 276 475 l 864 475 l 864 433 l 276 433 m 128 703 l 1014 703 l 1014 665 l 128 665 l 128 703 z "},"Ḫ":{"ha":1101,"x_min":67,"x_max":1031,"o":"m 653 0 l 653 10 q 736 31 696 22 q 815 40 776 39 l 826 854 l 653 879 l 653 894 l 1031 894 l 1031 882 q 953 865 994 872 q 868 856 913 858 l 868 42 l 1031 17 l 1031 0 l 653 0 m 67 0 l 67 14 q 150 32 110 25 q 229 40 190 39 l 240 854 l 67 879 l 67 894 l 444 894 l 444 882 q 367 865 408 872 q 282 856 326 858 l 282 42 l 444 17 l 444 0 l 67 0 m 258 443 l 258 485 l 846 485 l 846 443 l 258 443 m 551 -224 q 481 -208 513 -224 q 431 -168 450 -193 q 408 -112 413 -143 l 440 -106 q 477 -166 446 -142 q 551 -190 508 -190 q 626 -166 596 -190 q 663 -106 657 -142 l 694 -112 q 673 -168 692 -143 q 623 -208 654 -193 q 551 -224 592 -224 z "},"Ĥ":{"ha":1101,"x_min":67,"x_max":1031,"o":"m 653 0 l 653 10 q 736 31 696 22 q 815 40 776 39 l 826 854 l 653 879 l 653 894 l 1031 894 l 1031 882 q 953 865 994 872 q 868 856 913 858 l 868 42 l 1031 17 l 1031 0 l 653 0 m 67 0 l 67 14 q 150 32 110 25 q 229 40 190 39 l 240 854 l 67 879 l 67 894 l 444 894 l 444 882 q 367 865 408 872 q 282 856 326 858 l 282 42 l 444 17 l 444 0 l 67 0 m 258 443 l 258 485 l 846 485 l 846 443 l 258 443 m 575 1193 l 718 1067 l 703 1050 l 565 1153 l 431 1050 l 415 1067 l 558 1193 l 575 1193 z "},"Ḥ":{"ha":1101,"x_min":67,"x_max":1031,"o":"m 653 0 l 653 10 q 736 31 696 22 q 815 40 776 39 l 826 854 l 653 879 l 653 894 l 1031 894 l 1031 882 q 953 865 994 872 q 868 856 913 858 l 868 42 l 1031 17 l 1031 0 l 653 0 m 67 0 l 67 14 q 150 32 110 25 q 229 40 190 39 l 240 854 l 67 879 l 67 894 l 444 894 l 444 882 q 367 865 408 872 q 282 856 326 858 l 282 42 l 444 17 l 444 0 l 67 0 m 258 443 l 258 485 l 846 485 l 846 443 l 258 443 m 565 -119 q 585 -147 576 -131 q 596 -178 594 -162 q 571 -197 586 -189 q 540 -208 556 -206 q 521 -183 529 -197 q 507 -153 513 -168 q 533 -132 518 -140 q 565 -119 549 -124 z "},"I":{"ha":515,"x_min":67,"x_max":444,"o":"m 67 0 l 67 14 q 150 32 110 25 q 229 40 190 39 l 240 854 l 67 879 l 67 894 l 444 894 l 444 882 q 367 865 408 872 q 282 856 326 858 l 282 42 l 444 17 l 444 0 l 67 0 z "},"Ĳ":{"ha":1192,"x_min":67,"x_max":1142,"o":"m 67 0 l 67 14 q 150 32 110 25 q 229 40 190 39 l 240 854 l 67 879 l 67 894 l 444 894 l 444 882 q 367 865 408 872 q 282 856 326 858 l 282 42 l 444 17 l 444 0 l 67 0 m 600 0 l 608 39 q 665 35 639 36 q 714 33 692 33 q 824 47 781 33 q 896 92 867 61 q 947 175 925 124 l 942 144 l 947 854 l 747 879 l 747 894 l 1142 894 l 1142 882 q 1075 865 1111 872 q 990 856 1039 858 l 990 279 q 708 -10 990 -10 q 656 -7 683 -10 q 600 0 629 -4 m 600 0 l 600 285 l 610 285 l 657 0 l 600 0 z "},"Í":{"ha":515,"x_min":67,"x_max":444,"o":"m 67 0 l 67 14 q 150 32 110 25 q 229 40 190 39 l 240 854 l 67 879 l 67 894 l 444 894 l 444 882 q 367 865 408 872 q 282 856 326 858 l 282 42 l 444 17 l 444 0 l 67 0 m 168 1015 l 160 1028 l 376 1207 l 385 1207 l 407 1176 q 290 1093 350 1133 q 168 1015 229 1053 z "},"Ĭ":{"ha":515,"x_min":67,"x_max":444,"o":"m 67 0 l 67 14 q 150 32 110 25 q 229 40 190 39 l 240 854 l 67 879 l 67 894 l 444 894 l 444 882 q 367 865 408 872 q 282 856 326 858 l 282 42 l 444 17 l 444 0 l 67 0 m 258 1046 q 188 1061 219 1046 q 138 1101 157 1076 q 115 1157 119 1126 l 147 1164 q 184 1103 153 1128 q 258 1079 215 1079 q 333 1103 303 1079 q 369 1164 364 1128 l 401 1157 q 380 1101 399 1126 q 330 1061 361 1076 q 258 1046 299 1046 z "},"Ǐ":{"ha":515,"x_min":67,"x_max":444,"o":"m 67 0 l 67 14 q 150 32 110 25 q 229 40 190 39 l 240 854 l 67 879 l 67 894 l 444 894 l 444 882 q 367 865 408 872 q 282 856 326 858 l 282 42 l 444 17 l 444 0 l 67 0 m 251 1038 l 108 1164 l 124 1181 l 261 1078 l 396 1181 l 411 1164 l 268 1038 l 251 1038 z "},"Î":{"ha":515,"x_min":67,"x_max":444,"o":"m 67 0 l 67 14 q 150 32 110 25 q 229 40 190 39 l 240 854 l 67 879 l 67 894 l 444 894 l 444 882 q 367 865 408 872 q 282 856 326 858 l 282 42 l 444 17 l 444 0 l 67 0 m 282 1193 l 425 1067 l 410 1050 l 272 1153 l 138 1050 l 122 1067 l 265 1193 l 282 1193 z "},"Ȉ":{"ha":515,"x_min":58,"x_max":444,"o":"m 67 0 l 67 14 q 150 32 110 25 q 229 40 190 39 l 240 854 l 67 879 l 67 894 l 444 894 l 444 882 q 367 865 408 872 q 282 856 326 858 l 282 42 l 444 17 l 444 0 l 67 0 m 243 1017 q 149 1103 196 1060 q 58 1194 103 1147 l 82 1218 l 89 1217 l 254 1026 l 243 1017 m 392 1017 q 298 1103 344 1060 q 207 1194 251 1147 l 231 1218 l 238 1217 l 403 1026 l 392 1017 z "},"Ï":{"ha":515,"x_min":67,"x_max":444,"o":"m 67 0 l 67 14 q 150 32 110 25 q 229 40 190 39 l 240 854 l 67 879 l 67 894 l 444 894 l 444 882 q 367 865 408 872 q 282 856 326 858 l 282 42 l 444 17 l 444 0 l 67 0 m 174 1158 q 193 1132 185 1147 q 203 1101 201 1117 q 178 1083 193 1092 q 149 1072 164 1075 q 130 1097 139 1083 q 117 1126 121 1111 q 142 1147 128 1138 q 174 1158 157 1156 m 371 1158 q 390 1132 382 1147 q 400 1101 399 1117 q 376 1083 390 1092 q 346 1072 361 1075 q 326 1097 333 1083 q 314 1126 318 1111 q 340 1147 325 1138 q 371 1158 354 1156 z "},"Ḯ":{"ha":515,"x_min":67,"x_max":444,"o":"m 67 0 l 67 14 q 150 32 110 25 q 229 40 190 39 l 240 854 l 67 879 l 67 894 l 444 894 l 444 882 q 367 865 408 872 q 282 856 326 858 l 282 42 l 444 17 l 444 0 l 67 0 m 124 1140 l 118 1158 l 358 1271 l 367 1268 l 381 1233 q 253 1184 317 1207 q 124 1140 189 1161 m 133 1007 q 113 1032 122 1018 q 100 1060 104 1046 q 126 1081 111 1072 q 158 1092 142 1090 q 179 1067 171 1082 q 189 1036 188 1051 q 164 1018 179 1026 q 133 1007 149 1010 m 336 1007 q 315 1032 324 1018 q 303 1060 307 1046 q 329 1081 314 1072 q 361 1092 344 1090 q 381 1067 372 1082 q 392 1036 390 1051 q 367 1018 382 1026 q 336 1007 351 1010 z "},"İ":{"ha":515,"x_min":67,"x_max":444,"o":"m 67 0 l 67 14 q 150 32 110 25 q 229 40 190 39 l 240 854 l 67 879 l 67 894 l 444 894 l 444 882 q 367 865 408 872 q 282 856 326 858 l 282 42 l 444 17 l 444 0 l 67 0 m 272 1163 q 294 1135 285 1151 q 304 1103 303 1118 q 278 1082 294 1090 q 247 1071 263 1074 q 226 1097 235 1082 q 213 1128 217 1113 q 240 1151 224 1142 q 272 1163 256 1160 z "},"Ị":{"ha":515,"x_min":67,"x_max":444,"o":"m 67 0 l 67 14 q 150 32 110 25 q 229 40 190 39 l 240 854 l 67 879 l 67 894 l 444 894 l 444 882 q 367 865 408 872 q 282 856 326 858 l 282 42 l 444 17 l 444 0 l 67 0 m 272 -119 q 292 -147 283 -131 q 303 -178 301 -162 q 278 -197 293 -189 q 247 -208 263 -206 q 228 -183 236 -197 q 214 -153 219 -168 q 240 -132 225 -140 q 272 -119 256 -124 z "},"Ì":{"ha":515,"x_min":67,"x_max":444,"o":"m 67 0 l 67 14 q 150 32 110 25 q 229 40 190 39 l 240 854 l 67 879 l 67 894 l 444 894 l 444 882 q 367 865 408 872 q 282 856 326 858 l 282 42 l 444 17 l 444 0 l 67 0 m 374 1015 q 252 1093 313 1053 q 135 1176 192 1133 l 157 1207 l 165 1207 l 382 1028 l 374 1015 z "},"Ỉ":{"ha":515,"x_min":67,"x_max":444,"o":"m 67 0 l 67 14 q 150 32 110 25 q 229 40 190 39 l 240 854 l 67 879 l 67 894 l 444 894 l 444 882 q 367 865 408 872 q 282 856 326 858 l 282 42 l 444 17 l 444 0 l 67 0 m 239 967 l 239 997 q 251 1035 239 1019 q 281 1063 264 1050 q 311 1089 299 1075 q 324 1124 324 1103 q 306 1156 324 1146 q 258 1167 289 1167 q 224 1165 243 1167 q 183 1156 204 1163 l 178 1186 q 222 1196 201 1193 q 261 1199 243 1199 q 334 1181 307 1199 q 361 1126 361 1163 q 348 1081 361 1099 q 317 1051 335 1064 q 285 1025 300 1038 q 268 993 271 1013 l 264 965 l 239 967 z "},"Ȋ":{"ha":515,"x_min":67,"x_max":444,"o":"m 67 0 l 67 14 q 150 32 110 25 q 229 40 190 39 l 240 854 l 67 879 l 67 894 l 444 894 l 444 882 q 367 865 408 872 q 282 856 326 858 l 282 42 l 444 17 l 444 0 l 67 0 m 258 1164 q 329 1149 299 1164 q 379 1108 360 1133 q 401 1053 399 1083 l 369 1046 q 333 1106 364 1082 q 258 1131 303 1131 q 184 1106 214 1131 q 147 1046 154 1082 l 115 1053 q 137 1108 118 1083 q 188 1149 156 1133 q 258 1164 219 1164 z "},"Ī":{"ha":515,"x_min":67,"x_max":444,"o":"m 67 0 l 67 14 q 150 32 110 25 q 229 40 190 39 l 240 854 l 67 879 l 67 894 l 444 894 l 444 882 q 367 865 408 872 q 282 856 326 858 l 282 42 l 444 17 l 444 0 l 67 0 m 110 1097 l 110 1133 l 406 1133 l 406 1097 l 110 1097 z "},"Į":{"ha":515,"x_min":67,"x_max":444,"o":"m 67 0 l 67 14 q 150 32 110 25 q 229 40 190 39 l 240 854 l 67 879 l 67 894 l 444 894 l 444 882 q 367 865 408 872 q 282 856 326 858 l 282 42 l 444 17 l 444 0 l 67 0 m 281 -285 q 226 -271 247 -285 q 196 -235 204 -257 q 194 -185 188 -212 q 224 -129 200 -157 l 350 22 l 376 22 l 260 -133 q 235 -212 226 -178 q 290 -246 244 -246 q 348 -231 321 -246 q 397 -187 375 -215 l 406 -207 q 353 -264 386 -243 q 281 -285 321 -285 z "},"Ĩ":{"ha":515,"x_min":67,"x_max":444,"o":"m 67 0 l 67 14 q 150 32 110 25 q 229 40 190 39 l 240 854 l 67 879 l 67 894 l 444 894 l 444 882 q 367 865 408 872 q 282 856 326 858 l 282 42 l 444 17 l 444 0 l 67 0 m 88 1049 l 78 1060 q 127 1121 108 1100 q 158 1149 146 1142 q 179 1156 169 1157 q 200 1153 189 1156 l 350 1113 l 429 1185 l 439 1175 q 378 1101 400 1122 q 344 1078 357 1079 q 317 1081 332 1076 l 167 1121 l 88 1049 z "},"J":{"ha":676,"x_min":85,"x_max":626,"o":"m 85 0 l 93 39 q 150 35 124 36 q 199 33 176 33 q 308 47 265 33 q 381 92 351 61 q 432 175 410 124 l 426 144 l 432 854 l 232 879 l 232 894 l 626 894 l 626 882 q 560 865 596 872 q 475 856 524 858 l 475 279 q 193 -10 475 -10 q 141 -7 168 -10 q 85 0 114 -4 m 85 0 l 85 285 l 94 285 l 142 0 l 85 0 z "},"Ĵ":{"ha":676,"x_min":85,"x_max":626,"o":"m 85 0 l 93 39 q 150 35 124 36 q 199 33 176 33 q 308 47 265 33 q 381 92 351 61 q 432 175 410 124 l 426 144 l 432 854 l 232 879 l 232 894 l 626 894 l 626 882 q 560 865 596 872 q 475 856 524 858 l 475 279 q 193 -10 475 -10 q 141 -7 168 -10 q 85 0 114 -4 m 85 0 l 85 285 l 94 285 l 142 0 l 85 0 m 479 1193 l 622 1067 l 607 1050 l 469 1153 l 335 1050 l 319 1067 l 463 1193 l 479 1193 z "},"K":{"ha":1029,"x_min":67,"x_max":975,"o":"m 67 0 l 67 14 q 150 32 110 25 q 229 40 190 39 l 240 854 l 67 879 l 67 894 l 444 894 l 444 882 q 367 865 408 872 q 282 856 326 858 l 282 42 l 444 17 l 444 0 l 67 0 m 597 0 l 597 10 q 711 34 654 25 q 828 44 768 43 l 975 17 l 975 0 l 597 0 m 760 850 l 571 878 l 571 894 l 949 894 l 949 885 q 856 861 903 869 q 760 850 808 853 m 399 453 l 399 481 l 858 25 l 858 14 l 797 14 l 349 464 l 765 881 l 821 881 l 821 876 l 399 453 z "},"Ķ":{"ha":1029,"x_min":67,"x_max":975,"o":"m 67 0 l 67 14 q 150 32 110 25 q 229 40 190 39 l 240 854 l 67 879 l 67 894 l 444 894 l 444 882 q 367 865 408 872 q 282 856 326 858 l 282 42 l 444 17 l 444 0 l 67 0 m 597 0 l 597 10 q 711 34 654 25 q 828 44 768 43 l 975 17 l 975 0 l 597 0 m 760 850 l 571 878 l 571 894 l 949 894 l 949 885 q 856 861 903 869 q 760 850 808 853 m 399 453 l 399 481 l 858 25 l 858 14 l 797 14 l 349 464 l 765 881 l 821 881 l 821 876 l 399 453 m 469 -256 l 499 -118 l 556 -104 q 524 -181 542 -142 q 482 -260 506 -219 l 469 -256 m 503 -139 l 471 -85 q 499 -66 486 -72 q 528 -54 513 -60 q 544 -75 538 -64 q 556 -104 550 -86 l 503 -139 z "},"L":{"ha":810,"x_min":67,"x_max":725,"o":"m 715 347 l 725 347 l 725 0 l 67 0 l 67 14 q 150 32 110 25 q 229 40 190 39 l 240 854 l 67 879 l 67 894 l 458 894 l 458 882 q 375 865 419 872 q 282 856 331 858 l 282 42 l 674 42 l 715 347 z "},"Ǉ":{"ha":1486,"x_min":67,"x_max":1436,"o":"m 715 347 l 725 347 l 725 0 l 67 0 l 67 14 q 150 32 110 25 q 229 40 190 39 l 240 854 l 67 879 l 67 894 l 458 894 l 458 882 q 375 865 419 872 q 282 856 331 858 l 282 42 l 674 42 l 715 347 m 894 0 l 903 39 q 960 35 933 36 q 1008 33 986 33 q 1118 47 1075 33 q 1190 92 1161 61 q 1242 175 1219 124 l 1236 144 l 1242 854 l 1042 879 l 1042 894 l 1436 894 l 1436 882 q 1369 865 1406 872 q 1285 856 1333 858 l 1285 279 q 1003 -10 1285 -10 q 951 -7 978 -10 q 894 0 924 -4 m 894 0 l 894 285 l 904 285 l 951 0 l 894 0 z "},"Ĺ":{"ha":810,"x_min":67,"x_max":725,"o":"m 715 347 l 725 347 l 725 0 l 67 0 l 67 14 q 150 32 110 25 q 229 40 190 39 l 240 854 l 67 879 l 67 894 l 458 894 l 458 882 q 375 865 419 872 q 282 856 331 858 l 282 42 l 674 42 l 715 347 m 176 1015 l 168 1028 l 385 1207 l 393 1207 l 415 1176 q 298 1093 358 1133 q 176 1015 238 1053 z "},"Ľ":{"ha":867,"x_min":58,"x_max":717,"o":"m 707 347 l 717 347 l 717 0 l 58 0 l 58 14 q 142 32 101 25 q 221 40 182 39 l 232 854 l 58 879 l 58 894 l 450 894 l 450 882 q 367 865 411 872 q 274 856 322 858 l 274 42 l 665 42 l 707 347 m 601 796 l 585 1001 q 646 1001 615 1008 l 628 796 l 601 796 z "},"Ļ":{"ha":810,"x_min":67,"x_max":725,"o":"m 715 347 l 725 347 l 725 0 l 67 0 l 67 14 q 150 32 110 25 q 229 40 190 39 l 240 854 l 67 879 l 67 894 l 458 894 l 458 882 q 375 865 419 872 q 282 856 331 858 l 282 42 l 674 42 l 715 347 m 379 -256 l 408 -118 l 465 -104 q 433 -181 451 -142 q 392 -260 415 -219 l 379 -256 m 413 -139 l 381 -85 q 409 -66 396 -72 q 438 -54 422 -60 q 453 -75 447 -64 q 465 -104 460 -86 l 413 -139 z "},"Ŀ":{"ha":839,"x_min":67,"x_max":725,"o":"m 715 347 l 725 347 l 725 0 l 67 0 l 67 14 q 150 32 110 25 q 229 40 190 39 l 240 854 l 67 879 l 67 894 l 458 894 l 458 882 q 375 865 419 872 q 282 856 331 858 l 282 42 l 674 42 l 715 347 m 618 565 q 599 591 607 576 q 585 621 590 606 q 611 642 596 633 q 643 654 626 650 q 663 627 654 643 q 674 596 672 611 q 649 576 664 585 q 618 565 633 568 z "},"Ḷ":{"ha":810,"x_min":67,"x_max":725,"o":"m 715 347 l 725 347 l 725 0 l 67 0 l 67 14 q 150 32 110 25 q 229 40 190 39 l 240 854 l 67 879 l 67 894 l 458 894 l 458 882 q 375 865 419 872 q 282 856 331 858 l 282 42 l 674 42 l 715 347 m 433 -119 q 453 -147 444 -131 q 464 -178 463 -162 q 439 -197 454 -189 q 408 -208 424 -206 q 389 -183 397 -197 q 375 -153 381 -168 q 401 -132 386 -140 q 433 -119 417 -124 z "},"ǈ":{"ha":1124,"x_min":67,"x_max":1007,"o":"m 715 347 l 725 347 l 725 0 l 67 0 l 67 14 q 150 32 110 25 q 229 40 190 39 l 240 854 l 67 879 l 67 894 l 458 894 l 458 882 q 375 865 419 872 q 282 856 331 858 l 282 42 l 674 42 l 715 347 m 825 -276 l 818 -268 l 942 -83 l 954 564 l 888 635 q 937 660 911 650 q 990 676 963 671 l 990 -1 q 947 -150 990 -85 q 825 -276 904 -215 m 975 932 q 997 904 988 921 q 1007 872 1006 888 q 981 851 997 860 q 950 840 965 843 q 928 867 938 851 q 915 897 919 882 q 942 920 926 911 q 975 932 958 929 z "},"Ḻ":{"ha":810,"x_min":67,"x_max":725,"o":"m 715 347 l 725 347 l 725 0 l 67 0 l 67 14 q 150 32 110 25 q 229 40 190 39 l 240 854 l 67 879 l 67 894 l 458 894 l 458 882 q 375 865 419 872 q 282 856 331 858 l 282 42 l 674 42 l 715 347 m 272 -186 l 272 -150 l 568 -150 l 568 -186 l 272 -186 z "},"Ł":{"ha":860,"x_min":81,"x_max":739,"o":"m 729 347 l 739 347 l 739 0 l 81 0 l 81 14 q 164 32 124 25 q 243 40 204 39 l 254 854 l 81 879 l 81 894 l 472 894 l 472 882 q 389 865 433 872 q 296 856 344 858 l 296 42 l 688 42 l 729 347 m 122 335 l 100 361 l 468 682 l 490 656 l 122 335 z "},"M":{"ha":1307,"x_min":58,"x_max":1247,"o":"m 1079 42 l 1247 17 l 1247 0 l 860 0 l 860 14 q 944 32 903 25 q 1026 40 986 39 l 1021 860 l 1028 858 l 651 0 l 639 0 l 282 854 l 289 856 l 274 42 l 460 17 l 460 0 l 58 0 l 58 14 q 144 32 103 25 q 225 40 186 39 l 253 854 l 74 879 l 74 894 l 314 894 l 654 81 l 640 81 l 999 894 l 1232 894 l 1232 882 q 1153 865 1194 872 q 1065 856 1111 858 l 1079 42 z "},"Ṃ":{"ha":1307,"x_min":58,"x_max":1247,"o":"m 1079 42 l 1247 17 l 1247 0 l 860 0 l 860 14 q 944 32 903 25 q 1026 40 986 39 l 1021 860 l 1028 858 l 651 0 l 639 0 l 282 854 l 289 856 l 274 42 l 460 17 l 460 0 l 58 0 l 58 14 q 144 32 103 25 q 225 40 186 39 l 253 854 l 74 879 l 74 894 l 314 894 l 654 81 l 640 81 l 999 894 l 1232 894 l 1232 882 q 1153 865 1194 872 q 1065 856 1111 858 l 1079 42 m 654 -119 q 674 -147 665 -131 q 685 -178 683 -162 q 660 -197 675 -189 q 629 -208 644 -206 q 610 -183 618 -197 q 596 -153 601 -168 q 622 -132 607 -140 q 654 -119 638 -124 z "},"N":{"ha":1085,"x_min":67,"x_max":1038,"o":"m 661 894 l 1038 894 l 1038 882 q 955 865 994 871 q 876 856 915 858 l 875 0 l 831 0 l 265 826 l 276 829 l 276 42 l 457 17 l 457 0 l 67 0 l 67 14 q 150 32 110 25 q 229 40 190 39 l 240 854 l 67 879 l 67 894 l 278 894 l 851 56 l 840 53 l 828 854 l 661 879 l 661 894 z "},"Ǌ":{"ha":1761,"x_min":67,"x_max":1711,"o":"m 661 894 l 1038 894 l 1038 882 q 955 865 994 871 q 876 856 915 858 l 875 0 l 831 0 l 265 826 l 276 829 l 276 42 l 457 17 l 457 0 l 67 0 l 67 14 q 150 32 110 25 q 229 40 190 39 l 240 854 l 67 879 l 67 894 l 278 894 l 851 56 l 840 53 l 828 854 l 661 879 l 661 894 m 1169 0 l 1178 39 q 1235 35 1208 36 q 1283 33 1261 33 q 1393 47 1350 33 q 1465 92 1436 61 q 1517 175 1494 124 l 1511 144 l 1517 854 l 1317 879 l 1317 894 l 1711 894 l 1711 882 q 1644 865 1681 872 q 1560 856 1608 858 l 1560 279 q 1278 -10 1560 -10 q 1226 -7 1253 -10 q 1169 0 1199 -4 m 1169 0 l 1169 285 l 1179 285 l 1226 0 l 1169 0 z "},"Ń":{"ha":1085,"x_min":67,"x_max":1038,"o":"m 661 894 l 1038 894 l 1038 882 q 955 865 994 871 q 876 856 915 858 l 875 0 l 831 0 l 265 826 l 276 829 l 276 42 l 457 17 l 457 0 l 67 0 l 67 14 q 150 32 110 25 q 229 40 190 39 l 240 854 l 67 879 l 67 894 l 278 894 l 851 56 l 840 53 l 828 854 l 661 879 l 661 894 m 456 1015 l 447 1028 l 664 1207 l 672 1207 l 694 1176 q 577 1093 638 1133 q 456 1015 517 1053 z "},"Ň":{"ha":1085,"x_min":67,"x_max":1038,"o":"m 661 894 l 1038 894 l 1038 882 q 955 865 994 871 q 876 856 915 858 l 875 0 l 831 0 l 265 826 l 276 829 l 276 42 l 457 17 l 457 0 l 67 0 l 67 14 q 150 32 110 25 q 229 40 190 39 l 240 854 l 67 879 l 67 894 l 278 894 l 851 56 l 840 53 l 828 854 l 661 879 l 661 894 m 539 1038 l 396 1164 l 411 1181 l 549 1078 l 683 1181 l 699 1164 l 556 1038 l 539 1038 z "},"Ņ":{"ha":1085,"x_min":67,"x_max":1038,"o":"m 661 894 l 1038 894 l 1038 882 q 955 865 994 871 q 876 856 915 858 l 875 0 l 831 0 l 265 826 l 276 829 l 276 42 l 457 17 l 457 0 l 67 0 l 67 14 q 150 32 110 25 q 229 40 190 39 l 240 854 l 67 879 l 67 894 l 278 894 l 851 56 l 840 53 l 828 854 l 661 879 l 661 894 m 506 -256 l 535 -118 l 592 -104 q 560 -181 578 -142 q 518 -260 542 -219 l 506 -256 m 539 -139 l 507 -85 q 535 -66 522 -72 q 564 -54 549 -60 q 580 -75 574 -64 q 592 -104 586 -86 l 539 -139 z "},"Ṅ":{"ha":1085,"x_min":67,"x_max":1038,"o":"m 661 894 l 1038 894 l 1038 882 q 955 865 994 871 q 876 856 915 858 l 875 0 l 831 0 l 265 826 l 276 829 l 276 42 l 457 17 l 457 0 l 67 0 l 67 14 q 150 32 110 25 q 229 40 190 39 l 240 854 l 67 879 l 67 894 l 278 894 l 851 56 l 840 53 l 828 854 l 661 879 l 661 894 m 560 1163 q 581 1135 572 1151 q 592 1103 590 1118 q 566 1082 582 1090 q 535 1071 550 1074 q 513 1097 522 1082 q 500 1128 504 1113 q 527 1151 511 1142 q 560 1163 543 1160 z "},"Ṇ":{"ha":1085,"x_min":67,"x_max":1038,"o":"m 661 894 l 1038 894 l 1038 882 q 955 865 994 871 q 876 856 915 858 l 875 0 l 831 0 l 265 826 l 276 829 l 276 42 l 457 17 l 457 0 l 67 0 l 67 14 q 150 32 110 25 q 229 40 190 39 l 240 854 l 67 879 l 67 894 l 278 894 l 851 56 l 840 53 l 828 854 l 661 879 l 661 894 m 560 -119 q 580 -147 571 -131 q 590 -178 589 -162 q 565 -197 581 -189 q 535 -208 550 -206 q 515 -183 524 -197 q 501 -153 507 -168 q 528 -132 513 -140 q 560 -119 543 -124 z "},"Ŋ":{"ha":1086,"x_min":67,"x_max":1038,"o":"m 661 894 l 1038 894 l 1038 882 q 955 865 994 871 q 876 856 915 858 l 875 -1 q 828 -150 875 -85 q 696 -276 782 -215 l 688 -269 l 857 -29 l 856 -60 l 267 825 l 276 828 l 276 42 l 457 17 l 457 0 l 67 0 l 67 14 q 150 32 110 25 q 229 40 190 39 l 240 854 l 67 879 l 67 894 l 278 894 l 851 38 l 840 35 l 828 854 l 661 879 l 661 894 z "},"ǋ":{"ha":1399,"x_min":67,"x_max":1282,"o":"m 661 894 l 1038 894 l 1038 882 q 955 865 994 871 q 876 856 915 858 l 875 0 l 831 0 l 265 826 l 276 829 l 276 42 l 457 17 l 457 0 l 67 0 l 67 14 q 150 32 110 25 q 229 40 190 39 l 240 854 l 67 879 l 67 894 l 278 894 l 851 56 l 840 53 l 828 854 l 661 879 l 661 894 m 1100 -276 l 1093 -268 l 1217 -83 l 1229 564 l 1163 635 q 1212 660 1186 650 q 1265 676 1238 671 l 1265 -1 q 1222 -150 1265 -85 q 1100 -276 1179 -215 m 1250 932 q 1272 904 1263 921 q 1282 872 1281 888 q 1256 851 1272 860 q 1225 840 1240 843 q 1203 867 1213 851 q 1190 897 1194 882 q 1217 920 1201 911 q 1250 932 1233 929 z "},"Ṉ":{"ha":1085,"x_min":67,"x_max":1038,"o":"m 661 894 l 1038 894 l 1038 882 q 955 865 994 871 q 876 856 915 858 l 875 0 l 831 0 l 265 826 l 276 829 l 276 42 l 457 17 l 457 0 l 67 0 l 67 14 q 150 32 110 25 q 229 40 190 39 l 240 854 l 67 879 l 67 894 l 278 894 l 851 56 l 840 53 l 828 854 l 661 879 l 661 894 m 399 -186 l 399 -150 l 694 -150 l 694 -186 l 399 -186 z "},"Ñ":{"ha":1085,"x_min":67,"x_max":1038,"o":"m 661 894 l 1038 894 l 1038 882 q 955 865 994 871 q 876 856 915 858 l 875 0 l 831 0 l 265 826 l 276 829 l 276 42 l 457 17 l 457 0 l 67 0 l 67 14 q 150 32 110 25 q 229 40 190 39 l 240 854 l 67 879 l 67 894 l 278 894 l 851 56 l 840 53 l 828 854 l 661 879 l 661 894 m 375 1049 l 365 1060 q 415 1121 396 1100 q 445 1149 433 1142 q 467 1156 457 1157 q 488 1153 476 1156 l 638 1113 l 717 1185 l 726 1175 q 666 1101 688 1122 q 632 1078 644 1079 q 604 1081 619 1076 l 454 1121 l 375 1049 z "},"O":{"ha":1001,"x_min":110,"x_max":893,"o":"m 492 -10 q 295 47 382 -10 q 159 204 208 104 q 110 435 110 304 q 162 675 110 569 q 304 842 214 781 q 508 904 394 904 q 706 846 619 904 q 843 687 793 788 q 893 456 893 586 q 841 217 893 322 q 699 51 789 113 q 492 -10 608 -10 m 499 32 q 676 87 599 32 q 799 237 754 142 q 844 454 844 332 q 801 663 844 572 q 681 806 758 754 q 501 858 604 858 q 374 837 438 858 q 258 774 310 815 l 276 793 q 157 438 157 625 q 201 229 157 321 q 323 85 246 138 q 499 32 400 32 z "},"Ó":{"ha":1001,"x_min":110,"x_max":893,"o":"m 492 -10 q 295 47 382 -10 q 159 204 208 104 q 110 435 110 304 q 162 675 110 569 q 304 842 214 781 q 508 904 394 904 q 706 846 619 904 q 843 687 793 788 q 893 456 893 586 q 841 217 893 322 q 699 51 789 113 q 492 -10 608 -10 m 499 32 q 676 87 599 32 q 799 237 754 142 q 844 454 844 332 q 801 663 844 572 q 681 806 758 754 q 501 858 604 858 q 374 837 438 858 q 258 774 310 815 l 276 793 q 157 438 157 625 q 201 229 157 321 q 323 85 246 138 q 499 32 400 32 m 411 1015 l 403 1028 l 619 1207 l 628 1207 l 650 1176 q 533 1093 593 1133 q 411 1015 472 1053 z "},"Ŏ":{"ha":1001,"x_min":110,"x_max":893,"o":"m 492 -10 q 295 47 382 -10 q 159 204 208 104 q 110 435 110 304 q 162 675 110 569 q 304 842 214 781 q 508 904 394 904 q 706 846 619 904 q 843 687 793 788 q 893 456 893 586 q 841 217 893 322 q 699 51 789 113 q 492 -10 608 -10 m 499 32 q 676 87 599 32 q 799 237 754 142 q 844 454 844 332 q 801 663 844 572 q 681 806 758 754 q 501 858 604 858 q 374 837 438 858 q 258 774 310 815 l 276 793 q 157 438 157 625 q 201 229 157 321 q 323 85 246 138 q 499 32 400 32 m 501 1046 q 431 1061 463 1046 q 381 1101 400 1076 q 358 1157 363 1126 l 390 1164 q 427 1103 396 1128 q 501 1079 458 1079 q 576 1103 546 1079 q 613 1164 607 1128 l 644 1157 q 623 1101 642 1126 q 573 1061 604 1076 q 501 1046 542 1046 z "},"Ǒ":{"ha":1001,"x_min":110,"x_max":893,"o":"m 492 -10 q 295 47 382 -10 q 159 204 208 104 q 110 435 110 304 q 162 675 110 569 q 304 842 214 781 q 508 904 394 904 q 706 846 619 904 q 843 687 793 788 q 893 456 893 586 q 841 217 893 322 q 699 51 789 113 q 492 -10 608 -10 m 499 32 q 676 87 599 32 q 799 237 754 142 q 844 454 844 332 q 801 663 844 572 q 681 806 758 754 q 501 858 604 858 q 374 837 438 858 q 258 774 310 815 l 276 793 q 157 438 157 625 q 201 229 157 321 q 323 85 246 138 q 499 32 400 32 m 494 1038 l 351 1164 l 367 1181 l 504 1078 l 639 1181 l 654 1164 l 511 1038 l 494 1038 z "},"Ô":{"ha":1001,"x_min":110,"x_max":893,"o":"m 492 -10 q 295 47 382 -10 q 159 204 208 104 q 110 435 110 304 q 162 675 110 569 q 304 842 214 781 q 508 904 394 904 q 706 846 619 904 q 843 687 793 788 q 893 456 893 586 q 841 217 893 322 q 699 51 789 113 q 492 -10 608 -10 m 499 32 q 676 87 599 32 q 799 237 754 142 q 844 454 844 332 q 801 663 844 572 q 681 806 758 754 q 501 858 604 858 q 374 837 438 858 q 258 774 310 815 l 276 793 q 157 438 157 625 q 201 229 157 321 q 323 85 246 138 q 499 32 400 32 m 525 1193 l 668 1067 l 653 1050 l 515 1153 l 381 1050 l 365 1067 l 508 1193 l 525 1193 z "},"Ố":{"ha":1001,"x_min":110,"x_max":893,"o":"m 492 -10 q 295 47 382 -10 q 159 204 208 104 q 110 435 110 304 q 162 675 110 569 q 304 842 214 781 q 508 904 394 904 q 706 846 619 904 q 843 687 793 788 q 893 456 893 586 q 841 217 893 322 q 699 51 789 113 q 492 -10 608 -10 m 499 32 q 676 87 599 32 q 799 237 754 142 q 844 454 844 332 q 801 663 844 572 q 681 806 758 754 q 501 858 604 858 q 374 837 438 858 q 258 774 310 815 l 276 793 q 157 438 157 625 q 201 229 157 321 q 323 85 246 138 q 499 32 400 32 m 381 1140 l 375 1158 l 615 1271 l 624 1268 l 638 1233 q 510 1184 574 1207 q 381 1140 446 1161 m 368 1007 l 354 1022 l 489 1125 l 507 1125 l 642 1022 l 628 1007 l 499 1085 l 368 1007 z "},"Ộ":{"ha":1001,"x_min":110,"x_max":893,"o":"m 492 -10 q 295 47 382 -10 q 159 204 208 104 q 110 435 110 304 q 162 675 110 569 q 304 842 214 781 q 508 904 394 904 q 706 846 619 904 q 843 687 793 788 q 893 456 893 586 q 841 217 893 322 q 699 51 789 113 q 492 -10 608 -10 m 499 32 q 676 87 599 32 q 799 237 754 142 q 844 454 844 332 q 801 663 844 572 q 681 806 758 754 q 501 858 604 858 q 374 837 438 858 q 258 774 310 815 l 276 793 q 157 438 157 625 q 201 229 157 321 q 323 85 246 138 q 499 32 400 32 m 515 -119 q 535 -147 526 -131 q 546 -178 544 -162 q 521 -197 536 -189 q 490 -208 506 -206 q 471 -183 479 -197 q 457 -153 463 -168 q 483 -132 468 -140 q 515 -119 499 -124 m 525 1193 l 668 1067 l 653 1050 l 515 1153 l 381 1050 l 365 1067 l 508 1193 l 525 1193 z "},"Ồ":{"ha":1001,"x_min":110,"x_max":893,"o":"m 492 -10 q 295 47 382 -10 q 159 204 208 104 q 110 435 110 304 q 162 675 110 569 q 304 842 214 781 q 508 904 394 904 q 706 846 619 904 q 843 687 793 788 q 893 456 893 586 q 841 217 893 322 q 699 51 789 113 q 492 -10 608 -10 m 499 32 q 676 87 599 32 q 799 237 754 142 q 844 454 844 332 q 801 663 844 572 q 681 806 758 754 q 501 858 604 858 q 374 837 438 858 q 258 774 310 815 l 276 793 q 157 438 157 625 q 201 229 157 321 q 323 85 246 138 q 499 32 400 32 m 622 1140 q 494 1184 558 1161 q 365 1233 429 1207 l 379 1268 l 388 1271 l 628 1158 l 622 1140 m 375 1007 l 361 1022 l 496 1125 l 514 1125 l 649 1022 l 635 1007 l 504 1085 l 375 1007 z "},"Ổ":{"ha":1001,"x_min":110,"x_max":893,"o":"m 492 -10 q 295 47 382 -10 q 159 204 208 104 q 110 435 110 304 q 162 675 110 569 q 304 842 214 781 q 508 904 394 904 q 706 846 619 904 q 843 687 793 788 q 893 456 893 586 q 841 217 893 322 q 699 51 789 113 q 492 -10 608 -10 m 499 32 q 676 87 599 32 q 799 237 754 142 q 844 454 844 332 q 801 663 844 572 q 681 806 758 754 q 501 858 604 858 q 374 837 438 858 q 258 774 310 815 l 276 793 q 157 438 157 625 q 201 229 157 321 q 323 85 246 138 q 499 32 400 32 m 372 1006 l 354 1022 l 493 1128 l 515 1128 l 654 1022 l 636 1006 l 503 1088 l 372 1006 m 585 1103 l 585 1126 q 604 1164 585 1150 q 643 1191 624 1178 q 663 1225 663 1204 q 603 1258 663 1258 q 569 1256 586 1258 q 535 1250 551 1254 l 529 1278 q 568 1285 549 1282 q 606 1288 588 1288 q 674 1272 649 1288 q 699 1229 699 1257 q 687 1193 699 1207 q 659 1169 675 1179 q 630 1148 643 1158 q 614 1122 617 1138 l 610 1101 l 585 1103 z "},"Ỗ":{"ha":1001,"x_min":110,"x_max":893,"o":"m 492 -10 q 295 47 382 -10 q 159 204 208 104 q 110 435 110 304 q 162 675 110 569 q 304 842 214 781 q 508 904 394 904 q 706 846 619 904 q 843 687 793 788 q 893 456 893 586 q 841 217 893 322 q 699 51 789 113 q 492 -10 608 -10 m 499 32 q 676 87 599 32 q 799 237 754 142 q 844 454 844 332 q 801 663 844 572 q 681 806 758 754 q 501 858 604 858 q 374 837 438 858 q 258 774 310 815 l 276 793 q 157 438 157 625 q 201 229 157 321 q 323 85 246 138 q 499 32 400 32 m 367 1007 l 353 1022 l 488 1126 l 506 1126 l 640 1022 l 626 1007 l 497 1086 l 367 1007 m 319 1165 l 310 1176 q 372 1232 350 1214 q 411 1254 394 1250 q 447 1254 428 1258 l 592 1222 l 683 1276 l 693 1268 q 631 1211 654 1229 q 590 1190 607 1193 q 553 1190 574 1186 l 411 1222 l 319 1165 z "},"Ȍ":{"ha":1001,"x_min":110,"x_max":893,"o":"m 492 -10 q 295 47 382 -10 q 159 204 208 104 q 110 435 110 304 q 162 675 110 569 q 304 842 214 781 q 508 904 394 904 q 706 846 619 904 q 843 687 793 788 q 893 456 893 586 q 841 217 893 322 q 699 51 789 113 q 492 -10 608 -10 m 499 32 q 676 87 599 32 q 799 237 754 142 q 844 454 844 332 q 801 663 844 572 q 681 806 758 754 q 501 858 604 858 q 374 837 438 858 q 258 774 310 815 l 276 793 q 157 438 157 625 q 201 229 157 321 q 323 85 246 138 q 499 32 400 32 m 486 1017 q 392 1103 439 1060 q 301 1194 346 1147 l 325 1218 l 332 1217 l 497 1026 l 486 1017 m 635 1017 q 541 1103 588 1060 q 450 1194 494 1147 l 474 1218 l 481 1217 l 646 1026 l 635 1017 z "},"Ö":{"ha":1001,"x_min":110,"x_max":893,"o":"m 492 -10 q 295 47 382 -10 q 159 204 208 104 q 110 435 110 304 q 162 675 110 569 q 304 842 214 781 q 508 904 394 904 q 706 846 619 904 q 843 687 793 788 q 893 456 893 586 q 841 217 893 322 q 699 51 789 113 q 492 -10 608 -10 m 499 32 q 676 87 599 32 q 799 237 754 142 q 844 454 844 332 q 801 663 844 572 q 681 806 758 754 q 501 858 604 858 q 374 837 438 858 q 258 774 310 815 l 276 793 q 157 438 157 625 q 201 229 157 321 q 323 85 246 138 q 499 32 400 32 m 417 1158 q 436 1132 428 1147 q 446 1101 444 1117 q 422 1083 436 1092 q 392 1072 407 1075 q 373 1097 382 1083 q 360 1126 364 1111 q 385 1147 371 1138 q 417 1158 400 1156 m 614 1158 q 633 1132 625 1147 q 643 1101 642 1117 q 619 1083 633 1092 q 589 1072 604 1075 q 569 1097 576 1083 q 557 1126 561 1111 q 583 1147 568 1138 q 614 1158 597 1156 z "},"Ȫ":{"ha":1001,"x_min":110,"x_max":893,"o":"m 492 -10 q 295 47 382 -10 q 159 204 208 104 q 110 435 110 304 q 162 675 110 569 q 304 842 214 781 q 508 904 394 904 q 706 846 619 904 q 843 687 793 788 q 893 456 893 586 q 841 217 893 322 q 699 51 789 113 q 492 -10 608 -10 m 499 32 q 676 87 599 32 q 799 237 754 142 q 844 454 844 332 q 801 663 844 572 q 681 806 758 754 q 501 858 604 858 q 374 837 438 858 q 258 774 310 815 l 276 793 q 157 438 157 625 q 201 229 157 321 q 323 85 246 138 q 499 32 400 32 m 417 1088 q 438 1063 429 1078 q 447 1032 446 1047 q 422 1014 438 1022 q 392 1003 407 1006 q 372 1028 381 1014 q 358 1057 363 1042 q 385 1077 369 1068 q 417 1088 400 1086 m 619 1088 q 640 1063 631 1078 q 650 1032 649 1047 q 625 1014 640 1022 q 594 1003 610 1006 q 574 1028 582 1014 q 561 1057 565 1042 q 588 1077 572 1068 q 619 1088 603 1086 m 336 1186 l 336 1221 l 672 1221 l 672 1186 l 336 1186 z "},"Ȱ":{"ha":1001,"x_min":110,"x_max":893,"o":"m 492 -10 q 295 47 382 -10 q 159 204 208 104 q 110 435 110 304 q 162 675 110 569 q 304 842 214 781 q 508 904 394 904 q 706 846 619 904 q 843 687 793 788 q 893 456 893 586 q 841 217 893 322 q 699 51 789 113 q 492 -10 608 -10 m 499 32 q 676 87 599 32 q 799 237 754 142 q 844 454 844 332 q 801 663 844 572 q 681 806 758 754 q 501 858 604 858 q 374 837 438 858 q 258 774 310 815 l 276 793 q 157 438 157 625 q 201 229 157 321 q 323 85 246 138 q 499 32 400 32 m 517 1092 q 538 1064 529 1081 q 549 1032 547 1047 q 523 1011 539 1019 q 492 1000 507 1003 q 470 1026 479 1011 q 457 1057 461 1042 q 484 1080 468 1071 q 517 1092 500 1089 m 354 1186 l 354 1221 l 650 1221 l 650 1186 l 354 1186 z "},"Ọ":{"ha":1001,"x_min":110,"x_max":893,"o":"m 492 -10 q 295 47 382 -10 q 159 204 208 104 q 110 435 110 304 q 162 675 110 569 q 304 842 214 781 q 508 904 394 904 q 706 846 619 904 q 843 687 793 788 q 893 456 893 586 q 841 217 893 322 q 699 51 789 113 q 492 -10 608 -10 m 499 32 q 676 87 599 32 q 799 237 754 142 q 844 454 844 332 q 801 663 844 572 q 681 806 758 754 q 501 858 604 858 q 374 837 438 858 q 258 774 310 815 l 276 793 q 157 438 157 625 q 201 229 157 321 q 323 85 246 138 q 499 32 400 32 m 515 -119 q 535 -147 526 -131 q 546 -178 544 -162 q 521 -197 536 -189 q 490 -208 506 -206 q 471 -183 479 -197 q 457 -153 463 -168 q 483 -132 468 -140 q 515 -119 499 -124 z "},"Ò":{"ha":1001,"x_min":110,"x_max":893,"o":"m 492 -10 q 295 47 382 -10 q 159 204 208 104 q 110 435 110 304 q 162 675 110 569 q 304 842 214 781 q 508 904 394 904 q 706 846 619 904 q 843 687 793 788 q 893 456 893 586 q 841 217 893 322 q 699 51 789 113 q 492 -10 608 -10 m 499 32 q 676 87 599 32 q 799 237 754 142 q 844 454 844 332 q 801 663 844 572 q 681 806 758 754 q 501 858 604 858 q 374 837 438 858 q 258 774 310 815 l 276 793 q 157 438 157 625 q 201 229 157 321 q 323 85 246 138 q 499 32 400 32 m 617 1015 q 495 1093 556 1053 q 378 1176 435 1133 l 400 1207 l 408 1207 l 625 1028 l 617 1015 z "},"Ỏ":{"ha":1001,"x_min":110,"x_max":893,"o":"m 492 -10 q 295 47 382 -10 q 159 204 208 104 q 110 435 110 304 q 162 675 110 569 q 304 842 214 781 q 508 904 394 904 q 706 846 619 904 q 843 687 793 788 q 893 456 893 586 q 841 217 893 322 q 699 51 789 113 q 492 -10 608 -10 m 499 32 q 676 87 599 32 q 799 237 754 142 q 844 454 844 332 q 801 663 844 572 q 681 806 758 754 q 501 858 604 858 q 374 837 438 858 q 258 774 310 815 l 276 793 q 157 438 157 625 q 201 229 157 321 q 323 85 246 138 q 499 32 400 32 m 482 967 l 482 997 q 494 1035 482 1019 q 524 1063 507 1050 q 554 1089 542 1075 q 567 1124 567 1103 q 549 1156 567 1146 q 501 1167 532 1167 q 467 1165 486 1167 q 426 1156 447 1163 l 421 1186 q 465 1196 444 1193 q 504 1199 486 1199 q 577 1181 550 1199 q 604 1126 604 1163 q 591 1081 604 1099 q 560 1051 578 1064 q 528 1025 543 1038 q 511 993 514 1013 l 507 965 l 482 967 z "},"Ơ":{"ha":1022,"x_min":110,"x_max":893,"o":"m 492 -10 q 294 47 381 -10 q 159 205 208 104 q 110 435 110 306 q 140 620 110 535 q 223 769 169 706 q 349 869 276 833 q 504 904 421 904 q 628 899 565 904 q 747 888 692 893 q 835 882 801 882 l 797 1011 l 849 1025 q 879 901 879 947 q 861 852 879 867 q 807 843 843 838 l 656 864 l 664 867 q 830 704 767 815 q 893 450 893 593 q 863 269 893 353 q 778 122 832 185 q 651 25 724 60 q 492 -10 578 -10 m 499 32 q 677 87 599 32 q 800 238 756 142 q 844 454 844 333 q 801 665 844 574 q 680 807 757 756 q 501 858 603 858 q 268 782 371 858 q 157 439 157 635 q 201 230 157 322 q 324 85 246 138 q 499 32 401 32 z "},"Ớ":{"ha":1022,"x_min":110,"x_max":893,"o":"m 492 -10 q 294 47 381 -10 q 159 205 208 104 q 110 435 110 306 q 140 620 110 535 q 223 769 169 706 q 349 869 276 833 q 504 904 421 904 q 628 899 565 904 q 747 888 692 893 q 835 882 801 882 l 797 1011 l 849 1025 q 879 901 879 947 q 861 852 879 867 q 807 843 843 838 l 656 864 l 664 867 q 830 704 767 815 q 893 450 893 593 q 863 269 893 353 q 778 122 832 185 q 651 25 724 60 q 492 -10 578 -10 m 499 32 q 677 87 599 32 q 800 238 756 142 q 844 454 844 333 q 801 665 844 574 q 680 807 757 756 q 501 858 603 858 q 268 782 371 858 q 157 439 157 635 q 201 230 157 322 q 324 85 246 138 q 499 32 401 32 m 411 1015 l 403 1028 l 619 1207 l 628 1207 l 650 1176 q 533 1093 593 1133 q 411 1015 472 1053 z "},"Ợ":{"ha":1022,"x_min":110,"x_max":893,"o":"m 492 -10 q 294 47 381 -10 q 159 205 208 104 q 110 435 110 306 q 140 620 110 535 q 223 769 169 706 q 349 869 276 833 q 504 904 421 904 q 628 899 565 904 q 747 888 692 893 q 835 882 801 882 l 797 1011 l 849 1025 q 879 901 879 947 q 861 852 879 867 q 807 843 843 838 l 656 864 l 664 867 q 830 704 767 815 q 893 450 893 593 q 863 269 893 353 q 778 122 832 185 q 651 25 724 60 q 492 -10 578 -10 m 499 32 q 677 87 599 32 q 800 238 756 142 q 844 454 844 333 q 801 665 844 574 q 680 807 757 756 q 501 858 603 858 q 268 782 371 858 q 157 439 157 635 q 201 230 157 322 q 324 85 246 138 q 499 32 401 32 m 515 -119 q 535 -147 526 -131 q 546 -178 544 -162 q 521 -197 536 -189 q 490 -208 506 -206 q 471 -183 479 -197 q 457 -153 463 -168 q 483 -132 468 -140 q 515 -119 499 -124 z "},"Ờ":{"ha":1022,"x_min":110,"x_max":893,"o":"m 492 -10 q 294 47 381 -10 q 159 205 208 104 q 110 435 110 306 q 140 620 110 535 q 223 769 169 706 q 349 869 276 833 q 504 904 421 904 q 628 899 565 904 q 747 888 692 893 q 835 882 801 882 l 797 1011 l 849 1025 q 879 901 879 947 q 861 852 879 867 q 807 843 843 838 l 656 864 l 664 867 q 830 704 767 815 q 893 450 893 593 q 863 269 893 353 q 778 122 832 185 q 651 25 724 60 q 492 -10 578 -10 m 499 32 q 677 87 599 32 q 800 238 756 142 q 844 454 844 333 q 801 665 844 574 q 680 807 757 756 q 501 858 603 858 q 268 782 371 858 q 157 439 157 635 q 201 230 157 322 q 324 85 246 138 q 499 32 401 32 m 617 1015 q 495 1093 556 1053 q 378 1176 435 1133 l 400 1207 l 408 1207 l 625 1028 l 617 1015 z "},"Ở":{"ha":1022,"x_min":110,"x_max":893,"o":"m 492 -10 q 294 47 381 -10 q 159 205 208 104 q 110 435 110 306 q 140 620 110 535 q 223 769 169 706 q 349 869 276 833 q 504 904 421 904 q 628 899 565 904 q 747 888 692 893 q 835 882 801 882 l 797 1011 l 849 1025 q 879 901 879 947 q 861 852 879 867 q 807 843 843 838 l 656 864 l 664 867 q 830 704 767 815 q 893 450 893 593 q 863 269 893 353 q 778 122 832 185 q 651 25 724 60 q 492 -10 578 -10 m 499 32 q 677 87 599 32 q 800 238 756 142 q 844 454 844 333 q 801 665 844 574 q 680 807 757 756 q 501 858 603 858 q 268 782 371 858 q 157 439 157 635 q 201 230 157 322 q 324 85 246 138 q 499 32 401 32 m 482 967 l 482 997 q 494 1035 482 1019 q 524 1063 507 1050 q 554 1089 542 1075 q 567 1124 567 1103 q 549 1156 567 1146 q 501 1167 532 1167 q 467 1165 486 1167 q 426 1156 447 1163 l 421 1186 q 465 1196 444 1193 q 504 1199 486 1199 q 577 1181 550 1199 q 604 1126 604 1163 q 591 1081 604 1099 q 560 1051 578 1064 q 528 1025 543 1038 q 511 993 514 1013 l 507 965 l 482 967 z "},"Ỡ":{"ha":1022,"x_min":110,"x_max":893,"o":"m 492 -10 q 294 47 381 -10 q 159 205 208 104 q 110 435 110 306 q 140 620 110 535 q 223 769 169 706 q 349 869 276 833 q 504 904 421 904 q 628 899 565 904 q 747 888 692 893 q 835 882 801 882 l 797 1011 l 849 1025 q 879 901 879 947 q 861 852 879 867 q 807 843 843 838 l 656 864 l 664 867 q 830 704 767 815 q 893 450 893 593 q 863 269 893 353 q 778 122 832 185 q 651 25 724 60 q 492 -10 578 -10 m 499 32 q 677 87 599 32 q 800 238 756 142 q 844 454 844 333 q 801 665 844 574 q 680 807 757 756 q 501 858 603 858 q 268 782 371 858 q 157 439 157 635 q 201 230 157 322 q 324 85 246 138 q 499 32 401 32 m 331 1049 l 321 1060 q 370 1121 351 1100 q 401 1149 389 1142 q 422 1156 413 1157 q 443 1153 432 1156 l 593 1113 l 672 1185 l 682 1175 q 622 1101 643 1122 q 588 1078 600 1079 q 560 1081 575 1076 l 410 1121 l 331 1049 z "},"Ő":{"ha":1001,"x_min":110,"x_max":893,"o":"m 492 -10 q 295 47 382 -10 q 159 204 208 104 q 110 435 110 304 q 162 675 110 569 q 304 842 214 781 q 508 904 394 904 q 706 846 619 904 q 843 687 793 788 q 893 456 893 586 q 841 217 893 322 q 699 51 789 113 q 492 -10 608 -10 m 499 32 q 676 87 599 32 q 799 237 754 142 q 844 454 844 332 q 801 663 844 572 q 681 806 758 754 q 501 858 604 858 q 374 837 438 858 q 258 774 310 815 l 276 793 q 157 438 157 625 q 201 229 157 321 q 323 85 246 138 q 499 32 400 32 m 342 1031 l 482 1211 l 490 1213 l 519 1188 q 440 1101 481 1144 q 357 1015 399 1057 l 342 1031 m 540 1031 l 681 1211 l 689 1213 l 718 1188 q 638 1101 679 1144 q 556 1015 597 1057 l 540 1031 z "},"Ȏ":{"ha":1001,"x_min":110,"x_max":893,"o":"m 492 -10 q 295 47 382 -10 q 159 204 208 104 q 110 435 110 304 q 162 675 110 569 q 304 842 214 781 q 508 904 394 904 q 706 846 619 904 q 843 687 793 788 q 893 456 893 586 q 841 217 893 322 q 699 51 789 113 q 492 -10 608 -10 m 499 32 q 676 87 599 32 q 799 237 754 142 q 844 454 844 332 q 801 663 844 572 q 681 806 758 754 q 501 858 604 858 q 374 837 438 858 q 258 774 310 815 l 276 793 q 157 438 157 625 q 201 229 157 321 q 323 85 246 138 q 499 32 400 32 m 501 1164 q 572 1149 542 1164 q 622 1108 603 1133 q 644 1053 642 1083 l 613 1046 q 576 1106 607 1082 q 501 1131 546 1131 q 427 1106 457 1131 q 390 1046 397 1082 l 358 1053 q 380 1108 361 1083 q 431 1149 399 1133 q 501 1164 463 1164 z "},"Ō":{"ha":1001,"x_min":110,"x_max":893,"o":"m 492 -10 q 295 47 382 -10 q 159 204 208 104 q 110 435 110 304 q 162 675 110 569 q 304 842 214 781 q 508 904 394 904 q 706 846 619 904 q 843 687 793 788 q 893 456 893 586 q 841 217 893 322 q 699 51 789 113 q 492 -10 608 -10 m 499 32 q 676 87 599 32 q 799 237 754 142 q 844 454 844 332 q 801 663 844 572 q 681 806 758 754 q 501 858 604 858 q 374 837 438 858 q 258 774 310 815 l 276 793 q 157 438 157 625 q 201 229 157 321 q 323 85 246 138 q 499 32 400 32 m 354 1097 l 354 1133 l 650 1133 l 650 1097 l 354 1097 z "},"Ṓ":{"ha":1001,"x_min":110,"x_max":893,"o":"m 492 -10 q 295 47 382 -10 q 159 204 208 104 q 110 435 110 304 q 162 675 110 569 q 304 842 214 781 q 508 904 394 904 q 706 846 619 904 q 843 687 793 788 q 893 456 893 586 q 841 217 893 322 q 699 51 789 113 q 492 -10 608 -10 m 499 32 q 676 87 599 32 q 799 237 754 142 q 844 454 844 332 q 801 663 844 572 q 681 806 758 754 q 501 858 604 858 q 374 837 438 858 q 258 774 310 815 l 276 793 q 157 438 157 625 q 201 229 157 321 q 323 85 246 138 q 499 32 400 32 m 333 1021 l 333 1056 l 669 1056 l 669 1021 l 333 1021 m 365 1136 l 363 1150 l 624 1253 l 632 1251 l 643 1215 q 506 1172 575 1192 q 365 1136 436 1153 z "},"Ṑ":{"ha":1001,"x_min":110,"x_max":893,"o":"m 492 -10 q 295 47 382 -10 q 159 204 208 104 q 110 435 110 304 q 162 675 110 569 q 304 842 214 781 q 508 904 394 904 q 706 846 619 904 q 843 687 793 788 q 893 456 893 586 q 841 217 893 322 q 699 51 789 113 q 492 -10 608 -10 m 499 32 q 676 87 599 32 q 799 237 754 142 q 844 454 844 332 q 801 663 844 572 q 681 806 758 754 q 501 858 604 858 q 374 837 438 858 q 258 774 310 815 l 276 793 q 157 438 157 625 q 201 229 157 321 q 323 85 246 138 q 499 32 400 32 m 638 1136 q 497 1172 567 1153 q 360 1215 428 1192 l 371 1251 l 379 1253 l 640 1150 l 638 1136 m 333 1021 l 333 1056 l 669 1056 l 669 1021 l 333 1021 z "},"Ǫ":{"ha":1001,"x_min":110,"x_max":893,"o":"m 492 -10 q 295 47 382 -10 q 159 204 208 104 q 110 435 110 304 q 162 675 110 569 q 304 842 214 781 q 508 904 394 904 q 706 846 619 904 q 843 687 793 788 q 893 456 893 586 q 841 217 893 322 q 699 51 789 113 q 492 -10 608 -10 m 499 32 q 676 87 599 32 q 799 237 754 142 q 844 454 844 332 q 801 663 844 572 q 681 806 758 754 q 501 858 604 858 q 374 837 438 858 q 258 774 310 815 l 276 793 q 157 438 157 625 q 201 229 157 321 q 323 85 246 138 q 499 32 400 32 m 607 -257 q 552 -243 574 -257 q 522 -207 531 -229 q 520 -157 514 -185 q 550 -101 526 -129 l 676 50 l 703 50 l 586 -106 q 562 -184 553 -150 q 617 -218 571 -218 q 674 -203 647 -218 q 724 -160 701 -187 l 732 -179 q 680 -236 713 -215 q 607 -257 647 -257 z "},"Ø":{"ha":1007,"x_min":114,"x_max":897,"o":"m 319 65 l 232 -112 l 196 -99 l 286 85 l 319 65 m 496 -10 q 299 47 386 -10 q 163 204 213 104 q 114 435 114 304 q 166 675 114 569 q 308 842 218 781 q 513 904 399 904 q 710 846 624 904 q 847 687 797 788 q 897 456 897 586 q 845 217 897 322 q 703 51 793 113 q 496 -10 613 -10 m 503 32 q 681 87 603 32 q 803 237 758 142 q 849 454 849 332 q 806 663 849 572 q 685 806 763 754 q 506 858 608 858 q 383 839 444 858 q 272 782 322 819 q 161 438 161 618 q 206 229 161 321 q 327 85 250 138 q 503 32 404 32 m 658 847 l 736 1004 l 772 990 l 693 828 l 658 847 m 286 85 l 658 847 l 693 828 l 319 65 l 286 85 z "},"Ǿ":{"ha":1007,"x_min":114,"x_max":897,"o":"m 319 65 l 232 -112 l 196 -99 l 286 85 l 319 65 m 496 -10 q 299 47 386 -10 q 163 204 213 104 q 114 435 114 304 q 166 675 114 569 q 308 842 218 781 q 513 904 399 904 q 710 846 624 904 q 847 687 797 788 q 897 456 897 586 q 845 217 897 322 q 703 51 793 113 q 496 -10 613 -10 m 503 32 q 681 87 603 32 q 803 237 758 142 q 849 454 849 332 q 806 663 849 572 q 685 806 763 754 q 506 858 608 858 q 383 839 444 858 q 272 782 322 819 q 161 438 161 618 q 206 229 161 321 q 327 85 250 138 q 503 32 404 32 m 658 847 l 736 1004 l 772 990 l 693 828 l 658 847 m 286 85 l 658 847 l 693 828 l 319 65 l 286 85 m 393 1015 l 385 1028 l 601 1207 l 610 1207 l 632 1176 q 515 1093 575 1133 q 393 1015 454 1053 z "},"Õ":{"ha":1001,"x_min":110,"x_max":893,"o":"m 492 -10 q 295 47 382 -10 q 159 204 208 104 q 110 435 110 304 q 162 675 110 569 q 304 842 214 781 q 508 904 394 904 q 706 846 619 904 q 843 687 793 788 q 893 456 893 586 q 841 217 893 322 q 699 51 789 113 q 492 -10 608 -10 m 499 32 q 676 87 599 32 q 799 237 754 142 q 844 454 844 332 q 801 663 844 572 q 681 806 758 754 q 501 858 604 858 q 374 837 438 858 q 258 774 310 815 l 276 793 q 157 438 157 625 q 201 229 157 321 q 323 85 246 138 q 499 32 400 32 m 331 1049 l 321 1060 q 370 1121 351 1100 q 401 1149 389 1142 q 422 1156 413 1157 q 443 1153 432 1156 l 593 1113 l 672 1185 l 682 1175 q 622 1101 643 1122 q 588 1078 600 1079 q 560 1081 575 1076 l 410 1121 l 331 1049 z "},"Ṍ":{"ha":1001,"x_min":110,"x_max":893,"o":"m 492 -10 q 295 47 382 -10 q 159 204 208 104 q 110 435 110 304 q 162 675 110 569 q 304 842 214 781 q 508 904 394 904 q 706 846 619 904 q 843 687 793 788 q 893 456 893 586 q 841 217 893 322 q 699 51 789 113 q 492 -10 608 -10 m 499 32 q 676 87 599 32 q 799 237 754 142 q 844 454 844 332 q 801 663 844 572 q 681 806 758 754 q 501 858 604 858 q 374 837 438 858 q 258 774 310 815 l 276 793 q 157 438 157 625 q 201 229 157 321 q 323 85 246 138 q 499 32 400 32 m 319 1003 l 310 1014 q 372 1069 350 1051 q 411 1092 394 1088 q 447 1092 428 1096 l 592 1060 l 683 1114 l 693 1106 q 631 1049 654 1067 q 590 1027 607 1031 q 553 1028 574 1024 l 411 1060 l 319 1003 m 357 1136 l 354 1150 l 615 1253 l 624 1251 l 635 1215 q 497 1172 567 1192 q 357 1136 428 1153 z "},"Ṏ":{"ha":1001,"x_min":110,"x_max":893,"o":"m 492 -10 q 295 47 382 -10 q 159 204 208 104 q 110 435 110 304 q 162 675 110 569 q 304 842 214 781 q 508 904 394 904 q 706 846 619 904 q 843 687 793 788 q 893 456 893 586 q 841 217 893 322 q 699 51 789 113 q 492 -10 608 -10 m 499 32 q 676 87 599 32 q 799 237 754 142 q 844 454 844 332 q 801 663 844 572 q 681 806 758 754 q 501 858 604 858 q 374 837 438 858 q 258 774 310 815 l 276 793 q 157 438 157 625 q 201 229 157 321 q 323 85 246 138 q 499 32 400 32 m 319 1003 l 310 1014 q 372 1069 350 1051 q 411 1092 394 1088 q 447 1092 428 1096 l 592 1060 l 683 1114 l 693 1106 q 631 1049 654 1067 q 590 1027 607 1031 q 553 1028 574 1024 l 411 1060 l 319 1003 m 376 1154 q 357 1180 365 1165 q 346 1210 349 1194 q 372 1229 357 1221 q 401 1239 386 1238 q 422 1214 414 1228 q 435 1185 431 1200 q 409 1165 425 1174 q 376 1154 393 1157 m 579 1154 q 559 1180 567 1165 q 549 1210 551 1194 q 574 1229 558 1221 q 604 1239 589 1238 q 624 1214 615 1228 q 638 1185 633 1200 q 611 1165 626 1174 q 579 1154 596 1157 z "},"Ȭ":{"ha":1001,"x_min":110,"x_max":893,"o":"m 492 -10 q 295 47 382 -10 q 159 204 208 104 q 110 435 110 304 q 162 675 110 569 q 304 842 214 781 q 508 904 394 904 q 706 846 619 904 q 843 687 793 788 q 893 456 893 586 q 841 217 893 322 q 699 51 789 113 q 492 -10 608 -10 m 499 32 q 676 87 599 32 q 799 237 754 142 q 844 454 844 332 q 801 663 844 572 q 681 806 758 754 q 501 858 604 858 q 374 837 438 858 q 258 774 310 815 l 276 793 q 157 438 157 625 q 201 229 157 321 q 323 85 246 138 q 499 32 400 32 m 319 1003 l 310 1014 q 372 1069 350 1051 q 411 1092 394 1088 q 447 1092 428 1096 l 592 1060 l 683 1114 l 693 1106 q 631 1049 654 1067 q 590 1027 607 1031 q 553 1028 574 1024 l 411 1060 l 319 1003 m 343 1186 l 343 1221 l 639 1221 l 639 1186 l 343 1186 z "},"Œ":{"ha":1374,"x_min":108,"x_max":1225,"o":"m 1214 285 l 1225 285 l 1225 0 l 472 0 q 285 57 368 0 q 156 212 203 114 q 108 435 108 310 q 138 616 108 532 q 218 763 167 700 q 338 860 269 825 q 488 894 407 894 l 1211 894 l 1211 639 l 1200 639 l 1160 853 l 628 853 l 636 858 q 782 703 728 810 q 836 456 836 597 q 778 198 836 308 q 622 36 721 88 l 614 42 l 1172 42 l 1214 285 m 156 454 q 199 244 156 338 q 316 95 242 150 q 482 40 390 40 q 640 92 571 40 q 748 233 708 143 q 788 439 788 322 q 690 775 788 621 q 482 850 600 850 q 313 799 386 850 q 197 660 239 749 q 156 454 156 571 m 1071 317 l 1026 461 l 1071 607 l 1082 607 l 1082 317 l 1071 317 m 814 440 l 814 482 l 1060 482 l 1060 440 l 814 440 z "},"P":{"ha":849,"x_min":67,"x_max":769,"o":"m 501 894 q 646 865 586 894 q 738 782 706 836 q 769 650 769 728 q 732 504 769 567 q 626 407 694 442 q 467 372 558 372 l 258 372 l 258 414 l 576 414 q 689 513 654 460 q 724 640 724 567 q 666 798 724 743 q 497 853 608 853 l 282 853 l 282 42 l 483 17 l 483 0 l 67 0 l 67 14 q 130 32 90 25 q 229 40 169 39 l 240 854 l 67 879 l 67 894 l 501 894 z "},"Þ":{"ha":849,"x_min":67,"x_max":769,"o":"m 67 0 l 67 14 q 150 32 110 25 q 229 40 190 39 l 240 854 l 67 879 l 67 894 l 444 894 l 444 882 q 367 865 408 872 q 282 856 326 858 l 282 42 l 444 17 l 444 0 l 67 0 m 258 206 l 258 247 l 576 247 q 689 347 654 293 q 724 474 724 400 q 666 631 724 576 q 497 686 608 686 l 258 686 l 258 728 l 501 728 q 699 663 629 728 q 769 483 769 599 q 732 338 769 400 q 626 240 694 275 q 467 206 558 206 l 258 206 z "},"Q":{"ha":1006,"x_min":108,"x_max":990,"o":"m 490 -8 q 294 49 381 -8 q 158 206 207 106 q 108 436 108 306 q 160 676 108 571 q 303 844 213 782 q 507 906 393 906 q 705 847 618 906 q 842 688 792 789 q 892 457 892 588 q 840 219 892 324 q 697 53 788 114 q 490 -8 607 -8 m 946 -150 l 519 1 l 531 24 q 642 -2 590 11 q 764 -39 694 -15 l 990 -114 q 969 -133 981 -124 q 946 -150 957 -143 m 497 33 q 675 88 597 33 q 798 238 753 143 q 843 456 843 333 q 800 666 843 575 q 680 808 757 757 q 500 860 603 860 q 381 842 442 860 q 267 783 319 824 q 183 615 211 703 q 156 439 156 528 q 200 231 156 322 q 322 86 244 139 q 497 33 399 33 z "},"R":{"ha":956,"x_min":67,"x_max":911,"o":"m 769 44 l 911 17 l 911 0 l 726 0 l 678 253 q 619 378 661 342 q 493 414 578 414 l 268 414 l 268 456 l 549 456 q 688 547 644 496 q 732 668 732 599 q 674 803 732 754 q 518 853 617 853 l 282 853 l 282 42 l 444 17 l 444 0 l 67 0 l 67 14 q 131 32 90 25 q 229 40 171 39 l 240 854 l 67 879 l 67 894 l 522 894 q 708 835 638 894 q 778 679 778 775 q 723 529 778 594 q 578 439 668 464 q 674 382 639 425 q 726 257 710 339 l 769 44 z "},"Ŕ":{"ha":956,"x_min":67,"x_max":911,"o":"m 769 44 l 911 17 l 911 0 l 726 0 l 678 253 q 619 378 661 342 q 493 414 578 414 l 268 414 l 268 456 l 549 456 q 688 547 644 496 q 732 668 732 599 q 674 803 732 754 q 518 853 617 853 l 282 853 l 282 42 l 444 17 l 444 0 l 67 0 l 67 14 q 131 32 90 25 q 229 40 171 39 l 240 854 l 67 879 l 67 894 l 522 894 q 708 835 638 894 q 778 679 778 775 q 723 529 778 594 q 578 439 668 464 q 674 382 639 425 q 726 257 710 339 l 769 44 m 390 1015 l 382 1028 l 599 1207 l 607 1207 l 629 1176 q 512 1093 572 1133 q 390 1015 451 1053 z "},"Ř":{"ha":956,"x_min":67,"x_max":911,"o":"m 769 44 l 911 17 l 911 0 l 726 0 l 678 253 q 619 378 661 342 q 493 414 578 414 l 268 414 l 268 456 l 549 456 q 688 547 644 496 q 732 668 732 599 q 674 803 732 754 q 518 853 617 853 l 282 853 l 282 42 l 444 17 l 444 0 l 67 0 l 67 14 q 131 32 90 25 q 229 40 171 39 l 240 854 l 67 879 l 67 894 l 522 894 q 708 835 638 894 q 778 679 778 775 q 723 529 778 594 q 578 439 668 464 q 674 382 639 425 q 726 257 710 339 l 769 44 m 474 1038 l 331 1164 l 346 1181 l 483 1078 l 618 1181 l 633 1164 l 490 1038 l 474 1038 z "},"Ŗ":{"ha":956,"x_min":67,"x_max":911,"o":"m 769 44 l 911 17 l 911 0 l 726 0 l 678 253 q 619 378 661 342 q 493 414 578 414 l 268 414 l 268 456 l 549 456 q 688 547 644 496 q 732 668 732 599 q 674 803 732 754 q 518 853 617 853 l 282 853 l 282 42 l 444 17 l 444 0 l 67 0 l 67 14 q 131 32 90 25 q 229 40 171 39 l 240 854 l 67 879 l 67 894 l 522 894 q 708 835 638 894 q 778 679 778 775 q 723 529 778 594 q 578 439 668 464 q 674 382 639 425 q 726 257 710 339 l 769 44 m 440 -256 l 469 -118 l 526 -104 q 494 -181 513 -142 q 453 -260 476 -219 l 440 -256 m 474 -139 l 442 -85 q 470 -66 457 -72 q 499 -54 483 -60 q 515 -75 508 -64 q 526 -104 521 -86 l 474 -139 z "},"Ȑ":{"ha":956,"x_min":67,"x_max":911,"o":"m 769 44 l 911 17 l 911 0 l 726 0 l 678 253 q 619 378 661 342 q 493 414 578 414 l 268 414 l 268 456 l 549 456 q 688 547 644 496 q 732 668 732 599 q 674 803 732 754 q 518 853 617 853 l 282 853 l 282 42 l 444 17 l 444 0 l 67 0 l 67 14 q 131 32 90 25 q 229 40 171 39 l 240 854 l 67 879 l 67 894 l 522 894 q 708 835 638 894 q 778 679 778 775 q 723 529 778 594 q 578 439 668 464 q 674 382 639 425 q 726 257 710 339 l 769 44 m 465 1017 q 372 1103 418 1060 q 281 1194 325 1147 l 304 1218 l 311 1217 l 476 1026 l 465 1017 m 614 1017 q 520 1103 567 1060 q 429 1194 474 1147 l 453 1218 l 460 1217 l 625 1026 l 614 1017 z "},"Ṛ":{"ha":956,"x_min":67,"x_max":911,"o":"m 769 44 l 911 17 l 911 0 l 726 0 l 678 253 q 619 378 661 342 q 493 414 578 414 l 268 414 l 268 456 l 549 456 q 688 547 644 496 q 732 668 732 599 q 674 803 732 754 q 518 853 617 853 l 282 853 l 282 42 l 444 17 l 444 0 l 67 0 l 67 14 q 131 32 90 25 q 229 40 171 39 l 240 854 l 67 879 l 67 894 l 522 894 q 708 835 638 894 q 778 679 778 775 q 723 529 778 594 q 578 439 668 464 q 674 382 639 425 q 726 257 710 339 l 769 44 m 494 -119 q 515 -147 506 -131 q 525 -178 524 -162 q 500 -197 515 -189 q 469 -208 485 -206 q 450 -183 458 -197 q 436 -153 442 -168 q 463 -132 447 -140 q 494 -119 478 -124 z "},"Ȓ":{"ha":956,"x_min":67,"x_max":911,"o":"m 769 44 l 911 17 l 911 0 l 726 0 l 678 253 q 619 378 661 342 q 493 414 578 414 l 268 414 l 268 456 l 549 456 q 688 547 644 496 q 732 668 732 599 q 674 803 732 754 q 518 853 617 853 l 282 853 l 282 42 l 444 17 l 444 0 l 67 0 l 67 14 q 131 32 90 25 q 229 40 171 39 l 240 854 l 67 879 l 67 894 l 522 894 q 708 835 638 894 q 778 679 778 775 q 723 529 778 594 q 578 439 668 464 q 674 382 639 425 q 726 257 710 339 l 769 44 m 481 1164 q 551 1149 521 1164 q 601 1108 582 1133 q 624 1053 621 1083 l 592 1046 q 556 1106 586 1082 q 481 1131 525 1131 q 406 1106 436 1131 q 369 1046 376 1082 l 338 1053 q 359 1108 340 1083 q 410 1149 378 1133 q 481 1164 442 1164 z "},"Ṟ":{"ha":956,"x_min":67,"x_max":911,"o":"m 769 44 l 911 17 l 911 0 l 726 0 l 678 253 q 619 378 661 342 q 493 414 578 414 l 268 414 l 268 456 l 549 456 q 688 547 644 496 q 732 668 732 599 q 674 803 732 754 q 518 853 617 853 l 282 853 l 282 42 l 444 17 l 444 0 l 67 0 l 67 14 q 131 32 90 25 q 229 40 171 39 l 240 854 l 67 879 l 67 894 l 522 894 q 708 835 638 894 q 778 679 778 775 q 723 529 778 594 q 578 439 668 464 q 674 382 639 425 q 726 257 710 339 l 769 44 m 333 -186 l 333 -150 l 629 -150 l 629 -186 l 333 -186 z "},"S":{"ha":836,"x_min":124,"x_max":721,"o":"m 376 -11 q 254 -2 317 -11 q 124 25 192 7 l 135 64 q 264 40 196 49 q 403 32 332 32 q 488 35 444 32 q 574 43 531 38 l 549 35 q 615 81 588 54 q 659 138 643 107 q 675 201 675 169 q 637 292 675 254 q 539 363 599 331 q 411 426 479 394 q 283 493 343 457 q 185 577 224 529 q 147 690 147 625 q 187 805 147 757 q 299 878 226 853 q 472 904 372 904 q 578 897 525 904 q 686 875 632 890 l 678 839 q 561 856 618 850 q 451 861 504 861 q 357 856 403 861 q 268 842 311 851 l 290 850 q 219 789 247 829 q 192 700 192 749 q 230 599 192 642 q 328 524 268 557 q 456 461 389 492 q 584 397 524 431 q 683 317 644 363 q 721 208 721 272 q 678 92 721 142 q 558 16 636 43 q 376 -11 481 -11 m 181 26 l 124 25 l 131 276 l 142 276 l 181 26 m 665 638 l 629 875 l 686 875 l 676 638 l 665 638 z "},"Ś":{"ha":836,"x_min":124,"x_max":721,"o":"m 376 -11 q 254 -2 317 -11 q 124 25 192 7 l 135 64 q 264 40 196 49 q 403 32 332 32 q 488 35 444 32 q 574 43 531 38 l 549 35 q 615 81 588 54 q 659 138 643 107 q 675 201 675 169 q 637 292 675 254 q 539 363 599 331 q 411 426 479 394 q 283 493 343 457 q 185 577 224 529 q 147 690 147 625 q 187 805 147 757 q 299 878 226 853 q 472 904 372 904 q 578 897 525 904 q 686 875 632 890 l 678 839 q 561 856 618 850 q 451 861 504 861 q 357 856 403 861 q 268 842 311 851 l 290 850 q 219 789 247 829 q 192 700 192 749 q 230 599 192 642 q 328 524 268 557 q 456 461 389 492 q 584 397 524 431 q 683 317 644 363 q 721 208 721 272 q 678 92 721 142 q 558 16 636 43 q 376 -11 481 -11 m 181 26 l 124 25 l 131 276 l 142 276 l 181 26 m 665 638 l 629 875 l 686 875 l 676 638 l 665 638 m 354 1015 l 346 1028 l 563 1207 l 571 1207 l 593 1176 q 476 1093 536 1133 q 354 1015 415 1053 z "},"Ṥ":{"ha":836,"x_min":124,"x_max":721,"o":"m 376 -11 q 254 -2 317 -11 q 124 25 192 7 l 135 64 q 264 40 196 49 q 403 32 332 32 q 488 35 444 32 q 574 43 531 38 l 549 35 q 615 81 588 54 q 659 138 643 107 q 675 201 675 169 q 637 292 675 254 q 539 363 599 331 q 411 426 479 394 q 283 493 343 457 q 185 577 224 529 q 147 690 147 625 q 187 805 147 757 q 299 878 226 853 q 472 904 372 904 q 578 897 525 904 q 686 875 632 890 l 678 839 q 561 856 618 850 q 451 861 504 861 q 357 856 403 861 q 268 842 311 851 l 290 850 q 219 789 247 829 q 192 700 192 749 q 230 599 192 642 q 328 524 268 557 q 456 461 389 492 q 584 397 524 431 q 683 317 644 363 q 721 208 721 272 q 678 92 721 142 q 558 16 636 43 q 376 -11 481 -11 m 181 26 l 124 25 l 131 276 l 142 276 l 181 26 m 665 638 l 629 875 l 686 875 l 676 638 l 665 638 m 319 1001 l 314 1019 l 554 1132 l 563 1129 l 576 1094 q 449 1045 513 1068 q 319 1001 385 1022 m 439 1258 q 471 1199 467 1233 q 445 1178 461 1186 q 414 1167 429 1169 q 392 1193 401 1178 q 379 1224 383 1208 q 406 1247 390 1238 q 439 1258 422 1256 z "},"Ꞌ":{"ha":299,"x_min":125,"x_max":190,"o":"m 125 478 l 131 894 q 141 896 136 896 q 151 896 146 896 q 190 892 172 896 l 149 476 l 125 478 z "},"Š":{"ha":836,"x_min":124,"x_max":721,"o":"m 376 -11 q 254 -2 317 -11 q 124 25 192 7 l 135 64 q 264 40 196 49 q 403 32 332 32 q 488 35 444 32 q 574 43 531 38 l 549 35 q 615 81 588 54 q 659 138 643 107 q 675 201 675 169 q 637 292 675 254 q 539 363 599 331 q 411 426 479 394 q 283 493 343 457 q 185 577 224 529 q 147 690 147 625 q 187 805 147 757 q 299 878 226 853 q 472 904 372 904 q 578 897 525 904 q 686 875 632 890 l 678 839 q 561 856 618 850 q 451 861 504 861 q 357 856 403 861 q 268 842 311 851 l 290 850 q 219 789 247 829 q 192 700 192 749 q 230 599 192 642 q 328 524 268 557 q 456 461 389 492 q 584 397 524 431 q 683 317 644 363 q 721 208 721 272 q 678 92 721 142 q 558 16 636 43 q 376 -11 481 -11 m 181 26 l 124 25 l 131 276 l 142 276 l 181 26 m 665 638 l 629 875 l 686 875 l 676 638 l 665 638 m 438 1038 l 294 1164 l 310 1181 l 447 1078 l 582 1181 l 597 1164 l 454 1038 l 438 1038 z "},"Ṧ":{"ha":836,"x_min":124,"x_max":721,"o":"m 376 -11 q 254 -2 317 -11 q 124 25 192 7 l 135 64 q 264 40 196 49 q 403 32 332 32 q 488 35 444 32 q 574 43 531 38 l 549 35 q 615 81 588 54 q 659 138 643 107 q 675 201 675 169 q 637 292 675 254 q 539 363 599 331 q 411 426 479 394 q 283 493 343 457 q 185 577 224 529 q 147 690 147 625 q 187 805 147 757 q 299 878 226 853 q 472 904 372 904 q 578 897 525 904 q 686 875 632 890 l 678 839 q 561 856 618 850 q 451 861 504 861 q 357 856 403 861 q 268 842 311 851 l 290 850 q 219 789 247 829 q 192 700 192 749 q 230 599 192 642 q 328 524 268 557 q 456 461 389 492 q 584 397 524 431 q 683 317 644 363 q 721 208 721 272 q 678 92 721 142 q 558 16 636 43 q 376 -11 481 -11 m 181 26 l 124 25 l 131 276 l 142 276 l 181 26 m 665 638 l 629 875 l 686 875 l 676 638 l 665 638 m 575 1125 l 589 1110 l 454 1007 l 436 1007 l 301 1110 l 315 1125 l 444 1047 l 575 1125 m 461 1258 q 483 1231 474 1247 q 493 1199 492 1214 q 467 1178 483 1186 q 436 1167 451 1169 q 415 1193 424 1178 q 401 1224 406 1208 q 428 1247 413 1238 q 461 1258 444 1256 z "},"Ş":{"ha":836,"x_min":124,"x_max":721,"o":"m 376 -11 q 254 -2 317 -11 q 124 25 192 7 l 135 64 q 264 40 196 49 q 403 32 332 32 q 488 35 444 32 q 574 43 531 38 l 549 35 q 615 81 588 54 q 659 138 643 107 q 675 201 675 169 q 637 292 675 254 q 539 363 599 331 q 411 426 479 394 q 283 493 343 457 q 185 577 224 529 q 147 690 147 625 q 187 805 147 757 q 299 878 226 853 q 472 904 372 904 q 578 897 525 904 q 686 875 632 890 l 678 839 q 561 856 618 850 q 451 861 504 861 q 357 856 403 861 q 268 842 311 851 l 290 850 q 219 789 247 829 q 192 700 192 749 q 230 599 192 642 q 328 524 268 557 q 456 461 389 492 q 584 397 524 431 q 683 317 644 363 q 721 208 721 272 q 678 92 721 142 q 558 16 636 43 q 376 -11 481 -11 m 181 26 l 124 25 l 131 276 l 142 276 l 181 26 m 665 638 l 629 875 l 686 875 l 676 638 l 665 638 m 318 -267 l 322 -231 q 408 -246 367 -240 q 492 -253 449 -251 q 516 -227 507 -243 q 525 -194 525 -211 q 510 -160 525 -176 q 461 -129 494 -144 q 375 -99 428 -114 l 392 -67 q 520 -118 479 -89 q 561 -190 561 -147 q 527 -258 561 -232 q 438 -286 493 -283 q 318 -267 383 -289 m 400 15 l 432 15 l 407 -99 l 375 -99 l 400 15 z "},"Ŝ":{"ha":836,"x_min":124,"x_max":721,"o":"m 376 -11 q 254 -2 317 -11 q 124 25 192 7 l 135 64 q 264 40 196 49 q 403 32 332 32 q 488 35 444 32 q 574 43 531 38 l 549 35 q 615 81 588 54 q 659 138 643 107 q 675 201 675 169 q 637 292 675 254 q 539 363 599 331 q 411 426 479 394 q 283 493 343 457 q 185 577 224 529 q 147 690 147 625 q 187 805 147 757 q 299 878 226 853 q 472 904 372 904 q 578 897 525 904 q 686 875 632 890 l 678 839 q 561 856 618 850 q 451 861 504 861 q 357 856 403 861 q 268 842 311 851 l 290 850 q 219 789 247 829 q 192 700 192 749 q 230 599 192 642 q 328 524 268 557 q 456 461 389 492 q 584 397 524 431 q 683 317 644 363 q 721 208 721 272 q 678 92 721 142 q 558 16 636 43 q 376 -11 481 -11 m 181 26 l 124 25 l 131 276 l 142 276 l 181 26 m 665 638 l 629 875 l 686 875 l 676 638 l 665 638 m 468 1193 l 611 1067 l 596 1050 l 458 1153 l 324 1050 l 308 1067 l 451 1193 l 468 1193 z "},"Ș":{"ha":836,"x_min":124,"x_max":721,"o":"m 376 -11 q 254 -2 317 -11 q 124 25 192 7 l 135 64 q 264 40 196 49 q 403 32 332 32 q 488 35 444 32 q 574 43 531 38 l 549 35 q 615 81 588 54 q 659 138 643 107 q 675 201 675 169 q 637 292 675 254 q 539 363 599 331 q 411 426 479 394 q 283 493 343 457 q 185 577 224 529 q 147 690 147 625 q 187 805 147 757 q 299 878 226 853 q 472 904 372 904 q 578 897 525 904 q 686 875 632 890 l 678 839 q 561 856 618 850 q 451 861 504 861 q 357 856 403 861 q 268 842 311 851 l 290 850 q 219 789 247 829 q 192 700 192 749 q 230 599 192 642 q 328 524 268 557 q 456 461 389 492 q 584 397 524 431 q 683 317 644 363 q 721 208 721 272 q 678 92 721 142 q 558 16 636 43 q 376 -11 481 -11 m 181 26 l 124 25 l 131 276 l 142 276 l 181 26 m 665 638 l 629 875 l 686 875 l 676 638 l 665 638 m 371 -256 l 400 -118 l 457 -104 q 425 -181 443 -142 q 383 -260 407 -219 l 371 -256 m 404 -139 l 372 -85 q 401 -66 388 -72 q 429 -54 414 -60 q 445 -75 439 -64 q 457 -104 451 -86 l 404 -139 z "},"Ṡ":{"ha":836,"x_min":124,"x_max":721,"o":"m 376 -11 q 254 -2 317 -11 q 124 25 192 7 l 135 64 q 264 40 196 49 q 403 32 332 32 q 488 35 444 32 q 574 43 531 38 l 549 35 q 615 81 588 54 q 659 138 643 107 q 675 201 675 169 q 637 292 675 254 q 539 363 599 331 q 411 426 479 394 q 283 493 343 457 q 185 577 224 529 q 147 690 147 625 q 187 805 147 757 q 299 878 226 853 q 472 904 372 904 q 578 897 525 904 q 686 875 632 890 l 678 839 q 561 856 618 850 q 451 861 504 861 q 357 856 403 861 q 268 842 311 851 l 290 850 q 219 789 247 829 q 192 700 192 749 q 230 599 192 642 q 328 524 268 557 q 456 461 389 492 q 584 397 524 431 q 683 317 644 363 q 721 208 721 272 q 678 92 721 142 q 558 16 636 43 q 376 -11 481 -11 m 181 26 l 124 25 l 131 276 l 142 276 l 181 26 m 665 638 l 629 875 l 686 875 l 676 638 l 665 638 m 458 1163 q 480 1135 471 1151 q 490 1103 489 1118 q 465 1082 481 1090 q 433 1071 449 1074 q 412 1097 421 1082 q 399 1128 403 1113 q 426 1151 410 1142 q 458 1163 442 1160 z "},"Ṣ":{"ha":836,"x_min":124,"x_max":721,"o":"m 376 -11 q 254 -2 317 -11 q 124 25 192 7 l 135 64 q 264 40 196 49 q 403 32 332 32 q 488 35 444 32 q 574 43 531 38 l 549 35 q 615 81 588 54 q 659 138 643 107 q 675 201 675 169 q 637 292 675 254 q 539 363 599 331 q 411 426 479 394 q 283 493 343 457 q 185 577 224 529 q 147 690 147 625 q 187 805 147 757 q 299 878 226 853 q 472 904 372 904 q 578 897 525 904 q 686 875 632 890 l 678 839 q 561 856 618 850 q 451 861 504 861 q 357 856 403 861 q 268 842 311 851 l 290 850 q 219 789 247 829 q 192 700 192 749 q 230 599 192 642 q 328 524 268 557 q 456 461 389 492 q 584 397 524 431 q 683 317 644 363 q 721 208 721 272 q 678 92 721 142 q 558 16 636 43 q 376 -11 481 -11 m 181 26 l 124 25 l 131 276 l 142 276 l 181 26 m 665 638 l 629 875 l 686 875 l 676 638 l 665 638 m 425 -119 q 445 -147 436 -131 q 456 -178 454 -162 q 431 -197 446 -189 q 400 -208 415 -206 q 381 -183 389 -197 q 367 -153 372 -168 q 393 -132 378 -140 q 425 -119 408 -124 z "},"Ṩ":{"ha":836,"x_min":124,"x_max":721,"o":"m 376 -11 q 254 -2 317 -11 q 124 25 192 7 l 135 64 q 264 40 196 49 q 403 32 332 32 q 488 35 444 32 q 574 43 531 38 l 549 35 q 615 81 588 54 q 659 138 643 107 q 675 201 675 169 q 637 292 675 254 q 539 363 599 331 q 411 426 479 394 q 283 493 343 457 q 185 577 224 529 q 147 690 147 625 q 187 805 147 757 q 299 878 226 853 q 472 904 372 904 q 578 897 525 904 q 686 875 632 890 l 678 839 q 561 856 618 850 q 451 861 504 861 q 357 856 403 861 q 268 842 311 851 l 290 850 q 219 789 247 829 q 192 700 192 749 q 230 599 192 642 q 328 524 268 557 q 456 461 389 492 q 584 397 524 431 q 683 317 644 363 q 721 208 721 272 q 678 92 721 142 q 558 16 636 43 q 376 -11 481 -11 m 181 26 l 124 25 l 131 276 l 142 276 l 181 26 m 665 638 l 629 875 l 686 875 l 676 638 l 665 638 m 425 -119 q 445 -147 436 -131 q 456 -178 454 -162 q 431 -197 446 -189 q 400 -208 415 -206 q 381 -183 389 -197 q 367 -153 372 -168 q 393 -132 378 -140 q 425 -119 408 -124 m 458 1163 q 480 1135 471 1151 q 490 1103 489 1118 q 465 1082 481 1090 q 433 1071 449 1074 q 412 1097 421 1082 q 399 1128 403 1113 q 426 1151 410 1142 q 458 1163 442 1160 z "},"ẞ":{"ha":1000,"x_min":67,"x_max":911,"o":"m 592 -6 q 390 19 501 -6 l 400 51 q 485 38 443 42 q 569 35 528 35 q 684 42 626 35 q 797 63 742 49 l 776 53 q 842 142 818 85 q 867 263 867 199 q 797 424 867 369 q 592 479 728 479 l 469 479 l 469 513 l 754 853 l 282 853 l 282 0 l 67 0 l 67 14 q 130 32 90 25 q 229 40 169 39 l 240 854 l 67 879 l 67 894 l 808 894 l 808 853 l 514 501 l 489 521 l 592 521 q 830 455 749 521 q 911 263 911 389 q 828 63 911 132 q 592 -6 744 -6 m 390 19 l 396 246 l 410 246 l 451 19 l 390 19 z "},"Ə":{"ha":978,"x_min":85,"x_max":868,"o":"m 467 -10 q 272 47 358 -10 q 135 203 185 104 q 85 429 85 303 l 99 439 l 840 439 l 840 397 l 115 397 l 132 413 q 181 216 136 301 q 302 83 226 131 q 474 36 378 36 q 710 113 603 36 q 792 277 764 190 q 819 454 819 364 q 777 669 819 579 q 656 809 735 760 q 468 858 576 858 q 325 838 400 858 q 176 781 250 818 l 165 803 q 319 878 239 851 q 476 904 400 904 q 681 848 593 904 q 819 690 769 792 q 868 456 868 589 q 816 217 868 322 q 673 51 764 113 q 467 -10 582 -10 z "},"T":{"ha":950,"x_min":93,"x_max":857,"o":"m 857 894 l 857 560 l 846 560 l 804 853 l 497 853 l 497 42 l 693 17 l 693 0 l 250 0 l 250 14 q 350 32 301 25 q 444 40 399 39 l 456 853 l 146 853 l 104 560 l 93 560 l 93 894 l 857 894 z "},"Ŧ":{"ha":950,"x_min":93,"x_max":857,"o":"m 857 894 l 857 560 l 846 560 l 804 853 l 497 853 l 497 42 l 693 17 l 693 0 l 250 0 l 250 14 q 350 32 301 25 q 444 40 399 39 l 456 853 l 146 853 l 104 560 l 93 560 l 93 894 l 857 894 m 263 465 l 688 465 l 688 428 l 263 428 l 263 465 z "},"Ť":{"ha":950,"x_min":93,"x_max":857,"o":"m 857 894 l 857 560 l 846 560 l 804 853 l 497 853 l 497 42 l 693 17 l 693 0 l 250 0 l 250 14 q 350 32 301 25 q 444 40 399 39 l 456 853 l 146 853 l 104 560 l 93 560 l 93 894 l 857 894 m 469 1038 l 326 1164 l 342 1181 l 479 1078 l 614 1181 l 629 1164 l 486 1038 l 469 1038 z "},"Ţ":{"ha":950,"x_min":93,"x_max":857,"o":"m 857 894 l 857 560 l 846 560 l 804 853 l 497 853 l 497 42 l 693 17 l 693 0 l 250 0 l 250 14 q 350 32 301 25 q 444 40 399 39 l 456 853 l 146 853 l 104 560 l 93 560 l 93 894 l 857 894 m 382 -267 l 386 -231 q 472 -246 431 -240 q 556 -253 513 -251 q 580 -227 571 -243 q 589 -194 589 -211 q 574 -160 589 -176 q 525 -129 558 -144 q 439 -99 492 -114 l 456 -67 q 584 -118 543 -89 q 625 -190 625 -147 q 591 -258 625 -232 q 502 -286 557 -283 q 382 -267 447 -289 m 464 15 l 496 15 l 471 -99 l 439 -99 l 464 15 z "},"Ț":{"ha":950,"x_min":93,"x_max":857,"o":"m 857 894 l 857 560 l 846 560 l 804 853 l 497 853 l 497 42 l 693 17 l 693 0 l 250 0 l 250 14 q 350 32 301 25 q 444 40 399 39 l 456 853 l 146 853 l 104 560 l 93 560 l 93 894 l 857 894 m 435 -256 l 464 -118 l 521 -104 q 489 -181 507 -142 q 447 -260 471 -219 l 435 -256 m 468 -139 l 436 -85 q 465 -66 451 -72 q 493 -54 478 -60 q 509 -75 503 -64 q 521 -104 515 -86 l 468 -139 z "},"Ṭ":{"ha":950,"x_min":93,"x_max":857,"o":"m 857 894 l 857 560 l 846 560 l 804 853 l 497 853 l 497 42 l 693 17 l 693 0 l 250 0 l 250 14 q 350 32 301 25 q 444 40 399 39 l 456 853 l 146 853 l 104 560 l 93 560 l 93 894 l 857 894 m 489 -119 q 509 -147 500 -131 q 519 -178 518 -162 q 494 -197 510 -189 q 464 -208 479 -206 q 444 -183 453 -197 q 431 -153 436 -168 q 457 -132 442 -140 q 489 -119 472 -124 z "},"Ṯ":{"ha":950,"x_min":93,"x_max":857,"o":"m 857 894 l 857 560 l 846 560 l 804 853 l 497 853 l 497 42 l 693 17 l 693 0 l 250 0 l 250 14 q 350 32 301 25 q 444 40 399 39 l 456 853 l 146 853 l 104 560 l 93 560 l 93 894 l 857 894 m 328 -186 l 328 -150 l 624 -150 l 624 -186 l 328 -186 z "},"U":{"ha":1065,"x_min":42,"x_max":1021,"o":"m 531 -11 q 290 60 372 -11 q 207 271 207 132 l 215 854 l 42 879 l 42 894 l 419 894 l 419 882 q 349 865 389 872 q 257 856 310 858 l 257 271 q 326 91 257 151 q 531 31 394 31 q 698 63 633 31 q 811 167 763 94 l 817 854 l 643 879 l 643 894 l 1021 894 l 1021 882 q 951 865 990 872 q 858 856 911 858 l 860 285 q 774 67 860 144 q 531 -11 688 -11 z "},"Ú":{"ha":1065,"x_min":42,"x_max":1021,"o":"m 531 -11 q 290 60 372 -11 q 207 271 207 132 l 215 854 l 42 879 l 42 894 l 419 894 l 419 882 q 349 865 389 872 q 257 856 310 858 l 257 271 q 326 91 257 151 q 531 31 394 31 q 698 63 633 31 q 811 167 763 94 l 817 854 l 643 879 l 643 894 l 1021 894 l 1021 882 q 951 865 990 872 q 858 856 911 858 l 860 285 q 774 67 860 144 q 531 -11 688 -11 m 443 1015 l 435 1028 l 651 1207 l 660 1207 l 682 1176 q 565 1093 625 1133 q 443 1015 504 1053 z "},"Ŭ":{"ha":1065,"x_min":42,"x_max":1021,"o":"m 531 -11 q 290 60 372 -11 q 207 271 207 132 l 215 854 l 42 879 l 42 894 l 419 894 l 419 882 q 349 865 389 872 q 257 856 310 858 l 257 271 q 326 91 257 151 q 531 31 394 31 q 698 63 633 31 q 811 167 763 94 l 817 854 l 643 879 l 643 894 l 1021 894 l 1021 882 q 951 865 990 872 q 858 856 911 858 l 860 285 q 774 67 860 144 q 531 -11 688 -11 m 533 1046 q 463 1061 494 1046 q 413 1101 432 1076 q 390 1157 394 1126 l 422 1164 q 459 1103 428 1128 q 533 1079 490 1079 q 608 1103 578 1079 q 644 1164 639 1128 l 676 1157 q 655 1101 674 1126 q 605 1061 636 1076 q 533 1046 574 1046 z "},"Ǔ":{"ha":1065,"x_min":42,"x_max":1021,"o":"m 531 -11 q 290 60 372 -11 q 207 271 207 132 l 215 854 l 42 879 l 42 894 l 419 894 l 419 882 q 349 865 389 872 q 257 856 310 858 l 257 271 q 326 91 257 151 q 531 31 394 31 q 698 63 633 31 q 811 167 763 94 l 817 854 l 643 879 l 643 894 l 1021 894 l 1021 882 q 951 865 990 872 q 858 856 911 858 l 860 285 q 774 67 860 144 q 531 -11 688 -11 m 526 1038 l 383 1164 l 399 1181 l 536 1078 l 671 1181 l 686 1164 l 543 1038 l 526 1038 z "},"Û":{"ha":1065,"x_min":42,"x_max":1021,"o":"m 531 -11 q 290 60 372 -11 q 207 271 207 132 l 215 854 l 42 879 l 42 894 l 419 894 l 419 882 q 349 865 389 872 q 257 856 310 858 l 257 271 q 326 91 257 151 q 531 31 394 31 q 698 63 633 31 q 811 167 763 94 l 817 854 l 643 879 l 643 894 l 1021 894 l 1021 882 q 951 865 990 872 q 858 856 911 858 l 860 285 q 774 67 860 144 q 531 -11 688 -11 m 557 1193 l 700 1067 l 685 1050 l 547 1153 l 413 1050 l 397 1067 l 540 1193 l 557 1193 z "},"Ȕ":{"ha":1065,"x_min":42,"x_max":1021,"o":"m 531 -11 q 290 60 372 -11 q 207 271 207 132 l 215 854 l 42 879 l 42 894 l 419 894 l 419 882 q 349 865 389 872 q 257 856 310 858 l 257 271 q 326 91 257 151 q 531 31 394 31 q 698 63 633 31 q 811 167 763 94 l 817 854 l 643 879 l 643 894 l 1021 894 l 1021 882 q 951 865 990 872 q 858 856 911 858 l 860 285 q 774 67 860 144 q 531 -11 688 -11 m 518 1017 q 424 1103 471 1060 q 333 1194 378 1147 l 357 1218 l 364 1217 l 529 1026 l 518 1017 m 667 1017 q 573 1103 619 1060 q 482 1194 526 1147 l 506 1218 l 513 1217 l 678 1026 l 667 1017 z "},"Ü":{"ha":1065,"x_min":42,"x_max":1021,"o":"m 531 -11 q 290 60 372 -11 q 207 271 207 132 l 215 854 l 42 879 l 42 894 l 419 894 l 419 882 q 349 865 389 872 q 257 856 310 858 l 257 271 q 326 91 257 151 q 531 31 394 31 q 698 63 633 31 q 811 167 763 94 l 817 854 l 643 879 l 643 894 l 1021 894 l 1021 882 q 951 865 990 872 q 858 856 911 858 l 860 285 q 774 67 860 144 q 531 -11 688 -11 m 449 1158 q 468 1132 460 1147 q 478 1101 476 1117 q 453 1083 468 1092 q 424 1072 439 1075 q 405 1097 414 1083 q 392 1126 396 1111 q 417 1147 403 1138 q 449 1158 432 1156 m 646 1158 q 665 1132 657 1147 q 675 1101 674 1117 q 651 1083 665 1092 q 621 1072 636 1075 q 601 1097 608 1083 q 589 1126 593 1111 q 615 1147 600 1138 q 646 1158 629 1156 z "},"Ǘ":{"ha":1065,"x_min":42,"x_max":1021,"o":"m 531 -11 q 290 60 372 -11 q 207 271 207 132 l 215 854 l 42 879 l 42 894 l 419 894 l 419 882 q 349 865 389 872 q 257 856 310 858 l 257 271 q 326 91 257 151 q 531 31 394 31 q 698 63 633 31 q 811 167 763 94 l 817 854 l 643 879 l 643 894 l 1021 894 l 1021 882 q 951 865 990 872 q 858 856 911 858 l 860 285 q 774 67 860 144 q 531 -11 688 -11 m 399 1140 l 393 1158 l 633 1271 l 642 1268 l 656 1233 q 528 1184 592 1207 q 399 1140 464 1161 m 408 1007 q 388 1032 397 1018 q 375 1060 379 1046 q 401 1081 386 1072 q 433 1092 417 1090 q 454 1067 446 1082 q 464 1036 463 1051 q 439 1018 454 1026 q 408 1007 424 1010 m 611 1007 q 590 1032 599 1018 q 578 1060 582 1046 q 604 1081 589 1072 q 636 1092 619 1090 q 656 1067 647 1082 q 667 1036 665 1051 q 642 1018 657 1026 q 611 1007 626 1010 z "},"Ǚ":{"ha":1065,"x_min":42,"x_max":1021,"o":"m 531 -11 q 290 60 372 -11 q 207 271 207 132 l 215 854 l 42 879 l 42 894 l 419 894 l 419 882 q 349 865 389 872 q 257 856 310 858 l 257 271 q 326 91 257 151 q 531 31 394 31 q 698 63 633 31 q 811 167 763 94 l 817 854 l 643 879 l 643 894 l 1021 894 l 1021 882 q 951 865 990 872 q 858 856 911 858 l 860 285 q 774 67 860 144 q 531 -11 688 -11 m 451 1090 q 472 1065 464 1079 q 482 1035 481 1050 q 457 1015 472 1024 q 426 1004 442 1007 q 406 1029 415 1015 q 393 1058 397 1043 q 419 1078 404 1069 q 451 1090 435 1088 m 654 1090 q 674 1065 665 1079 q 685 1035 683 1050 q 660 1015 675 1024 q 629 1004 644 1007 q 608 1029 617 1015 q 596 1058 600 1043 q 622 1078 607 1069 q 654 1090 638 1088 m 668 1246 l 682 1231 l 547 1128 l 529 1128 l 394 1231 l 408 1246 l 538 1168 l 668 1246 z "},"Ǜ":{"ha":1065,"x_min":42,"x_max":1021,"o":"m 531 -11 q 290 60 372 -11 q 207 271 207 132 l 215 854 l 42 879 l 42 894 l 419 894 l 419 882 q 349 865 389 872 q 257 856 310 858 l 257 271 q 326 91 257 151 q 531 31 394 31 q 698 63 633 31 q 811 167 763 94 l 817 854 l 643 879 l 643 894 l 1021 894 l 1021 882 q 951 865 990 872 q 858 856 911 858 l 860 285 q 774 67 860 144 q 531 -11 688 -11 m 668 1140 q 540 1184 604 1161 q 411 1233 475 1207 l 425 1268 l 433 1271 l 674 1158 l 668 1140 m 433 1007 q 413 1032 422 1018 q 400 1060 404 1046 q 426 1081 411 1072 q 458 1092 442 1090 q 479 1067 471 1082 q 489 1036 488 1051 q 464 1018 479 1026 q 433 1007 449 1010 m 636 1007 q 615 1032 624 1018 q 603 1060 607 1046 q 629 1081 614 1072 q 661 1092 644 1090 q 681 1067 672 1082 q 692 1036 690 1051 q 667 1018 682 1026 q 636 1007 651 1010 z "},"Ǖ":{"ha":1065,"x_min":42,"x_max":1021,"o":"m 531 -11 q 290 60 372 -11 q 207 271 207 132 l 215 854 l 42 879 l 42 894 l 419 894 l 419 882 q 349 865 389 872 q 257 856 310 858 l 257 271 q 326 91 257 151 q 531 31 394 31 q 698 63 633 31 q 811 167 763 94 l 817 854 l 643 879 l 643 894 l 1021 894 l 1021 882 q 951 865 990 872 q 858 856 911 858 l 860 285 q 774 67 860 144 q 531 -11 688 -11 m 449 1088 q 469 1063 461 1078 q 479 1032 478 1047 q 454 1014 469 1022 q 424 1003 439 1006 q 403 1028 413 1014 q 390 1057 394 1042 q 417 1077 401 1068 q 449 1088 432 1086 m 651 1088 q 672 1063 663 1078 q 682 1032 681 1047 q 657 1014 672 1022 q 626 1003 642 1006 q 606 1028 614 1014 q 593 1057 597 1042 q 619 1077 604 1068 q 651 1088 635 1086 m 368 1186 l 368 1221 l 704 1221 l 704 1186 l 368 1186 z "},"Ụ":{"ha":1065,"x_min":42,"x_max":1021,"o":"m 531 -11 q 290 60 372 -11 q 207 271 207 132 l 215 854 l 42 879 l 42 894 l 419 894 l 419 882 q 349 865 389 872 q 257 856 310 858 l 257 271 q 326 91 257 151 q 531 31 394 31 q 698 63 633 31 q 811 167 763 94 l 817 854 l 643 879 l 643 894 l 1021 894 l 1021 882 q 951 865 990 872 q 858 856 911 858 l 860 285 q 774 67 860 144 q 531 -11 688 -11 m 547 -119 q 567 -147 558 -131 q 578 -178 576 -162 q 553 -197 568 -189 q 522 -208 538 -206 q 503 -183 511 -197 q 489 -153 494 -168 q 515 -132 500 -140 q 547 -119 531 -124 z "},"Ù":{"ha":1065,"x_min":42,"x_max":1021,"o":"m 531 -11 q 290 60 372 -11 q 207 271 207 132 l 215 854 l 42 879 l 42 894 l 419 894 l 419 882 q 349 865 389 872 q 257 856 310 858 l 257 271 q 326 91 257 151 q 531 31 394 31 q 698 63 633 31 q 811 167 763 94 l 817 854 l 643 879 l 643 894 l 1021 894 l 1021 882 q 951 865 990 872 q 858 856 911 858 l 860 285 q 774 67 860 144 q 531 -11 688 -11 m 649 1015 q 527 1093 588 1053 q 410 1176 467 1133 l 432 1207 l 440 1207 l 657 1028 l 649 1015 z "},"Ủ":{"ha":1065,"x_min":42,"x_max":1021,"o":"m 531 -11 q 290 60 372 -11 q 207 271 207 132 l 215 854 l 42 879 l 42 894 l 419 894 l 419 882 q 349 865 389 872 q 257 856 310 858 l 257 271 q 326 91 257 151 q 531 31 394 31 q 698 63 633 31 q 811 167 763 94 l 817 854 l 643 879 l 643 894 l 1021 894 l 1021 882 q 951 865 990 872 q 858 856 911 858 l 860 285 q 774 67 860 144 q 531 -11 688 -11 m 514 967 l 514 997 q 526 1035 514 1019 q 556 1063 539 1050 q 586 1089 574 1075 q 599 1124 599 1103 q 581 1156 599 1146 q 533 1167 564 1167 q 499 1165 518 1167 q 458 1156 479 1163 l 453 1186 q 497 1196 476 1193 q 536 1199 518 1199 q 609 1181 582 1199 q 636 1126 636 1163 q 623 1081 636 1099 q 592 1051 610 1064 q 560 1025 575 1038 q 543 993 546 1013 l 539 965 l 514 967 z "},"Ư":{"ha":1065,"x_min":42,"x_max":1024,"o":"m 996 1040 q 1016 974 1008 1003 q 1024 926 1024 946 q 985 871 1024 883 q 858 856 947 858 l 860 285 q 774 67 860 144 q 531 -11 688 -11 q 290 60 372 -11 q 207 271 207 132 l 215 854 l 42 879 l 42 894 l 419 894 l 419 882 q 349 865 389 872 q 257 856 310 858 l 257 271 q 326 91 257 151 q 531 31 394 31 q 698 63 633 31 q 811 167 763 94 l 817 854 l 643 879 l 643 894 l 976 894 l 944 1026 l 996 1040 z "},"Ứ":{"ha":1065,"x_min":42,"x_max":1024,"o":"m 996 1040 q 1016 974 1008 1003 q 1024 926 1024 946 q 985 871 1024 883 q 858 856 947 858 l 860 285 q 774 67 860 144 q 531 -11 688 -11 q 290 60 372 -11 q 207 271 207 132 l 215 854 l 42 879 l 42 894 l 419 894 l 419 882 q 349 865 389 872 q 257 856 310 858 l 257 271 q 326 91 257 151 q 531 31 394 31 q 698 63 633 31 q 811 167 763 94 l 817 854 l 643 879 l 643 894 l 976 894 l 944 1026 l 996 1040 m 443 1015 l 435 1028 l 651 1207 l 660 1207 l 682 1176 q 565 1093 625 1133 q 443 1015 504 1053 z "},"Ự":{"ha":1065,"x_min":42,"x_max":1024,"o":"m 996 1040 q 1016 974 1008 1003 q 1024 926 1024 946 q 985 871 1024 883 q 858 856 947 858 l 860 285 q 774 67 860 144 q 531 -11 688 -11 q 290 60 372 -11 q 207 271 207 132 l 215 854 l 42 879 l 42 894 l 419 894 l 419 882 q 349 865 389 872 q 257 856 310 858 l 257 271 q 326 91 257 151 q 531 31 394 31 q 698 63 633 31 q 811 167 763 94 l 817 854 l 643 879 l 643 894 l 976 894 l 944 1026 l 996 1040 m 547 -119 q 567 -147 558 -131 q 578 -178 576 -162 q 553 -197 568 -189 q 522 -208 538 -206 q 503 -183 511 -197 q 489 -153 494 -168 q 515 -132 500 -140 q 547 -119 531 -124 z "},"Ừ":{"ha":1065,"x_min":42,"x_max":1024,"o":"m 996 1040 q 1016 974 1008 1003 q 1024 926 1024 946 q 985 871 1024 883 q 858 856 947 858 l 860 285 q 774 67 860 144 q 531 -11 688 -11 q 290 60 372 -11 q 207 271 207 132 l 215 854 l 42 879 l 42 894 l 419 894 l 419 882 q 349 865 389 872 q 257 856 310 858 l 257 271 q 326 91 257 151 q 531 31 394 31 q 698 63 633 31 q 811 167 763 94 l 817 854 l 643 879 l 643 894 l 976 894 l 944 1026 l 996 1040 m 649 1015 q 527 1093 588 1053 q 410 1176 467 1133 l 432 1207 l 440 1207 l 657 1028 l 649 1015 z "},"Ử":{"ha":1065,"x_min":42,"x_max":1024,"o":"m 996 1040 q 1016 974 1008 1003 q 1024 926 1024 946 q 985 871 1024 883 q 858 856 947 858 l 860 285 q 774 67 860 144 q 531 -11 688 -11 q 290 60 372 -11 q 207 271 207 132 l 215 854 l 42 879 l 42 894 l 419 894 l 419 882 q 349 865 389 872 q 257 856 310 858 l 257 271 q 326 91 257 151 q 531 31 394 31 q 698 63 633 31 q 811 167 763 94 l 817 854 l 643 879 l 643 894 l 976 894 l 944 1026 l 996 1040 m 514 967 l 514 997 q 526 1035 514 1019 q 556 1063 539 1050 q 586 1089 574 1075 q 599 1124 599 1103 q 581 1156 599 1146 q 533 1167 564 1167 q 499 1165 518 1167 q 458 1156 479 1163 l 453 1186 q 497 1196 476 1193 q 536 1199 518 1199 q 609 1181 582 1199 q 636 1126 636 1163 q 623 1081 636 1099 q 592 1051 610 1064 q 560 1025 575 1038 q 543 993 546 1013 l 539 965 l 514 967 z "},"Ữ":{"ha":1065,"x_min":42,"x_max":1024,"o":"m 996 1040 q 1016 974 1008 1003 q 1024 926 1024 946 q 985 871 1024 883 q 858 856 947 858 l 860 285 q 774 67 860 144 q 531 -11 688 -11 q 290 60 372 -11 q 207 271 207 132 l 215 854 l 42 879 l 42 894 l 419 894 l 419 882 q 349 865 389 872 q 257 856 310 858 l 257 271 q 326 91 257 151 q 531 31 394 31 q 698 63 633 31 q 811 167 763 94 l 817 854 l 643 879 l 643 894 l 976 894 l 944 1026 l 996 1040 m 363 1049 l 353 1060 q 402 1121 383 1100 q 433 1149 421 1142 q 454 1156 444 1157 q 475 1153 464 1156 l 625 1113 l 704 1185 l 714 1175 q 653 1101 675 1122 q 619 1078 632 1079 q 592 1081 607 1076 l 442 1121 l 363 1049 z "},"Ű":{"ha":1065,"x_min":42,"x_max":1021,"o":"m 531 -11 q 290 60 372 -11 q 207 271 207 132 l 215 854 l 42 879 l 42 894 l 419 894 l 419 882 q 349 865 389 872 q 257 856 310 858 l 257 271 q 326 91 257 151 q 531 31 394 31 q 698 63 633 31 q 811 167 763 94 l 817 854 l 643 879 l 643 894 l 1021 894 l 1021 882 q 951 865 990 872 q 858 856 911 858 l 860 285 q 774 67 860 144 q 531 -11 688 -11 m 374 1031 l 514 1211 l 522 1213 l 551 1188 q 472 1101 513 1144 q 389 1015 431 1057 l 374 1031 m 572 1031 l 713 1211 l 721 1213 l 750 1188 q 670 1101 711 1144 q 588 1015 629 1057 l 572 1031 z "},"Ȗ":{"ha":1065,"x_min":42,"x_max":1021,"o":"m 531 -11 q 290 60 372 -11 q 207 271 207 132 l 215 854 l 42 879 l 42 894 l 419 894 l 419 882 q 349 865 389 872 q 257 856 310 858 l 257 271 q 326 91 257 151 q 531 31 394 31 q 698 63 633 31 q 811 167 763 94 l 817 854 l 643 879 l 643 894 l 1021 894 l 1021 882 q 951 865 990 872 q 858 856 911 858 l 860 285 q 774 67 860 144 q 531 -11 688 -11 m 533 1164 q 604 1149 574 1164 q 654 1108 635 1133 q 676 1053 674 1083 l 644 1046 q 608 1106 639 1082 q 533 1131 578 1131 q 459 1106 489 1131 q 422 1046 429 1082 l 390 1053 q 412 1108 393 1083 q 463 1149 431 1133 q 533 1164 494 1164 z "},"Ū":{"ha":1065,"x_min":42,"x_max":1021,"o":"m 531 -11 q 290 60 372 -11 q 207 271 207 132 l 215 854 l 42 879 l 42 894 l 419 894 l 419 882 q 349 865 389 872 q 257 856 310 858 l 257 271 q 326 91 257 151 q 531 31 394 31 q 698 63 633 31 q 811 167 763 94 l 817 854 l 643 879 l 643 894 l 1021 894 l 1021 882 q 951 865 990 872 q 858 856 911 858 l 860 285 q 774 67 860 144 q 531 -11 688 -11 m 386 1097 l 386 1133 l 682 1133 l 682 1097 l 386 1097 z "},"Ṻ":{"ha":1065,"x_min":42,"x_max":1021,"o":"m 531 -11 q 290 60 372 -11 q 207 271 207 132 l 215 854 l 42 879 l 42 894 l 419 894 l 419 882 q 349 865 389 872 q 257 856 310 858 l 257 271 q 326 91 257 151 q 531 31 394 31 q 698 63 633 31 q 811 167 763 94 l 817 854 l 643 879 l 643 894 l 1021 894 l 1021 882 q 951 865 990 872 q 858 856 911 858 l 860 285 q 774 67 860 144 q 531 -11 688 -11 m 365 1021 l 365 1056 l 701 1056 l 701 1021 l 365 1021 m 418 1154 q 399 1180 407 1165 q 388 1210 390 1194 q 413 1229 399 1221 q 443 1239 428 1238 q 464 1214 456 1228 q 476 1185 472 1200 q 451 1165 467 1174 q 418 1154 435 1157 m 621 1154 q 601 1180 608 1165 q 590 1210 593 1194 q 615 1229 600 1221 q 646 1239 631 1238 q 666 1214 657 1228 q 679 1185 675 1200 q 653 1165 668 1174 q 621 1154 638 1157 z "},"Ų":{"ha":1065,"x_min":42,"x_max":1021,"o":"m 531 -11 q 290 60 372 -11 q 207 271 207 132 l 215 854 l 42 879 l 42 894 l 419 894 l 419 882 q 349 865 389 872 q 257 856 310 858 l 257 271 q 326 91 257 151 q 531 31 394 31 q 698 63 633 31 q 811 167 763 94 l 817 854 l 643 879 l 643 894 l 1021 894 l 1021 882 q 951 865 990 872 q 858 856 911 858 l 860 285 q 774 67 860 144 q 531 -11 688 -11 m 590 -285 q 535 -271 557 -285 q 506 -235 514 -257 q 503 -185 497 -212 q 533 -129 510 -157 l 660 22 l 686 22 l 569 -133 q 545 -212 536 -178 q 600 -246 554 -246 q 658 -231 631 -246 q 707 -187 685 -215 l 715 -207 q 663 -264 696 -243 q 590 -285 631 -285 z "},"Ů":{"ha":1065,"x_min":42,"x_max":1021,"o":"m 531 -11 q 290 60 372 -11 q 207 271 207 132 l 215 854 l 42 879 l 42 894 l 419 894 l 419 882 q 349 865 389 872 q 257 856 310 858 l 257 271 q 326 91 257 151 q 531 31 394 31 q 698 63 633 31 q 811 167 763 94 l 817 854 l 643 879 l 643 894 l 1021 894 l 1021 882 q 951 865 990 872 q 858 856 911 858 l 860 285 q 774 67 860 144 q 531 -11 688 -11 m 533 1018 q 484 1031 506 1018 q 450 1065 463 1043 q 438 1114 438 1086 q 450 1163 438 1142 q 484 1197 463 1185 q 533 1210 506 1210 q 602 1183 575 1210 q 629 1114 629 1156 q 617 1065 629 1086 q 583 1031 604 1043 q 533 1018 561 1018 m 533 1050 q 579 1069 561 1050 q 597 1114 597 1088 q 579 1160 597 1142 q 533 1178 561 1178 q 488 1160 507 1178 q 469 1114 469 1142 q 488 1069 469 1088 q 533 1050 507 1050 z "},"Ũ":{"ha":1065,"x_min":42,"x_max":1021,"o":"m 531 -11 q 290 60 372 -11 q 207 271 207 132 l 215 854 l 42 879 l 42 894 l 419 894 l 419 882 q 349 865 389 872 q 257 856 310 858 l 257 271 q 326 91 257 151 q 531 31 394 31 q 698 63 633 31 q 811 167 763 94 l 817 854 l 643 879 l 643 894 l 1021 894 l 1021 882 q 951 865 990 872 q 858 856 911 858 l 860 285 q 774 67 860 144 q 531 -11 688 -11 m 363 1049 l 353 1060 q 402 1121 383 1100 q 433 1149 421 1142 q 454 1156 444 1157 q 475 1153 464 1156 l 625 1113 l 704 1185 l 714 1175 q 653 1101 675 1122 q 619 1078 632 1079 q 592 1081 607 1076 l 442 1121 l 363 1049 z "},"Ṹ":{"ha":1065,"x_min":42,"x_max":1021,"o":"m 531 -11 q 290 60 372 -11 q 207 271 207 132 l 215 854 l 42 879 l 42 894 l 419 894 l 419 882 q 349 865 389 872 q 257 856 310 858 l 257 271 q 326 91 257 151 q 531 31 394 31 q 698 63 633 31 q 811 167 763 94 l 817 854 l 643 879 l 643 894 l 1021 894 l 1021 882 q 951 865 990 872 q 858 856 911 858 l 860 285 q 774 67 860 144 q 531 -11 688 -11 m 351 1003 l 342 1014 q 404 1069 382 1051 q 443 1092 426 1088 q 479 1092 460 1096 l 624 1060 l 715 1114 l 725 1106 q 663 1049 686 1067 q 622 1027 639 1031 q 585 1028 606 1024 l 443 1060 l 351 1003 m 389 1136 l 386 1150 l 647 1253 l 656 1251 l 667 1215 q 529 1172 599 1192 q 389 1136 460 1153 z "},"V":{"ha":979,"x_min":36,"x_max":943,"o":"m 461 0 l 133 881 l 182 881 l 497 21 l 482 21 l 811 881 l 858 881 l 515 0 l 461 0 m 167 856 q 101 866 135 860 q 36 882 68 872 l 36 894 l 347 894 l 347 879 l 167 856 m 832 856 q 726 866 779 860 q 619 882 672 872 l 619 894 l 943 894 l 943 879 l 832 856 z "},"W":{"ha":1426,"x_min":38,"x_max":1389,"o":"m 950 0 l 663 881 l 708 881 l 986 21 l 971 21 l 1257 881 l 1304 881 l 1004 0 l 950 0 m 414 0 l 126 881 l 175 881 l 450 21 l 435 21 l 699 814 l 726 765 l 467 0 l 414 0 m 167 856 q 102 866 135 860 q 38 882 69 872 l 38 894 l 346 894 l 346 879 l 167 856 m 703 856 q 626 866 664 860 q 547 882 588 872 l 547 894 l 867 894 l 867 879 l 703 856 m 1279 856 q 1175 866 1228 860 q 1069 882 1122 872 l 1069 894 l 1389 894 l 1389 879 l 1279 856 z "},"Ẃ":{"ha":1426,"x_min":38,"x_max":1389,"o":"m 950 0 l 663 881 l 708 881 l 986 21 l 971 21 l 1257 881 l 1304 881 l 1004 0 l 950 0 m 414 0 l 126 881 l 175 881 l 450 21 l 435 21 l 699 814 l 726 765 l 467 0 l 414 0 m 167 856 q 102 866 135 860 q 38 882 69 872 l 38 894 l 346 894 l 346 879 l 167 856 m 703 856 q 626 866 664 860 q 547 882 588 872 l 547 894 l 867 894 l 867 879 l 703 856 m 1279 856 q 1175 866 1228 860 q 1069 882 1122 872 l 1069 894 l 1389 894 l 1389 879 l 1279 856 m 624 1015 l 615 1028 l 832 1207 l 840 1207 l 863 1176 q 745 1093 806 1133 q 624 1015 685 1053 z "},"Ŵ":{"ha":1426,"x_min":38,"x_max":1389,"o":"m 950 0 l 663 881 l 708 881 l 986 21 l 971 21 l 1257 881 l 1304 881 l 1004 0 l 950 0 m 414 0 l 126 881 l 175 881 l 450 21 l 435 21 l 699 814 l 726 765 l 467 0 l 414 0 m 167 856 q 102 866 135 860 q 38 882 69 872 l 38 894 l 346 894 l 346 879 l 167 856 m 703 856 q 626 866 664 860 q 547 882 588 872 l 547 894 l 867 894 l 867 879 l 703 856 m 1279 856 q 1175 866 1228 860 q 1069 882 1122 872 l 1069 894 l 1389 894 l 1389 879 l 1279 856 m 738 1193 l 881 1067 l 865 1050 l 728 1153 l 593 1050 l 578 1067 l 721 1193 l 738 1193 z "},"Ẅ":{"ha":1426,"x_min":38,"x_max":1389,"o":"m 950 0 l 663 881 l 708 881 l 986 21 l 971 21 l 1257 881 l 1304 881 l 1004 0 l 950 0 m 414 0 l 126 881 l 175 881 l 450 21 l 435 21 l 699 814 l 726 765 l 467 0 l 414 0 m 167 856 q 102 866 135 860 q 38 882 69 872 l 38 894 l 346 894 l 346 879 l 167 856 m 703 856 q 626 866 664 860 q 547 882 588 872 l 547 894 l 867 894 l 867 879 l 703 856 m 1279 856 q 1175 866 1228 860 q 1069 882 1122 872 l 1069 894 l 1389 894 l 1389 879 l 1279 856 m 629 1158 q 649 1132 640 1147 q 658 1101 657 1117 q 634 1083 649 1092 q 604 1072 619 1075 q 585 1097 594 1083 q 572 1126 576 1111 q 598 1147 583 1138 q 629 1158 613 1156 m 826 1158 q 846 1132 838 1147 q 856 1101 854 1117 q 831 1083 846 1092 q 801 1072 817 1075 q 781 1097 789 1083 q 769 1126 774 1111 q 795 1147 781 1138 q 826 1158 810 1156 z "},"Ẁ":{"ha":1426,"x_min":38,"x_max":1389,"o":"m 950 0 l 663 881 l 708 881 l 986 21 l 971 21 l 1257 881 l 1304 881 l 1004 0 l 950 0 m 414 0 l 126 881 l 175 881 l 450 21 l 435 21 l 699 814 l 726 765 l 467 0 l 414 0 m 167 856 q 102 866 135 860 q 38 882 69 872 l 38 894 l 346 894 l 346 879 l 167 856 m 703 856 q 626 866 664 860 q 547 882 588 872 l 547 894 l 867 894 l 867 879 l 703 856 m 1279 856 q 1175 866 1228 860 q 1069 882 1122 872 l 1069 894 l 1389 894 l 1389 879 l 1279 856 m 829 1015 q 708 1093 768 1053 q 590 1176 647 1133 l 613 1207 l 621 1207 l 838 1028 l 829 1015 z "},"X":{"ha":1064,"x_min":47,"x_max":1010,"o":"m 171 14 l 171 18 l 526 504 l 540 504 l 883 25 l 883 14 l 838 14 l 524 456 l 544 456 l 219 14 l 171 14 m 525 454 l 231 868 l 231 881 l 275 881 l 543 504 l 526 504 l 800 881 l 847 881 l 847 876 l 542 454 l 525 454 m 632 0 l 632 10 q 739 34 685 25 q 849 44 793 43 l 1010 17 l 1010 0 l 632 0 m 47 0 l 47 10 q 133 34 90 25 q 222 44 176 43 l 425 17 l 425 0 l 47 0 m 485 894 l 485 885 q 372 861 429 869 q 254 850 314 853 l 107 878 l 107 894 l 485 894 m 983 894 l 983 885 q 890 861 938 869 q 794 850 843 853 l 606 878 l 606 894 l 983 894 z "},"Y":{"ha":944,"x_min":35,"x_max":911,"o":"m 453 329 l 157 868 l 157 881 l 201 881 l 471 379 l 454 379 l 729 881 l 776 881 l 776 876 l 469 329 l 453 329 m 251 0 l 251 14 q 344 32 300 25 q 432 40 389 39 l 438 375 l 485 375 l 485 42 l 667 17 l 667 0 l 251 0 m 182 850 l 35 878 l 35 894 l 413 894 l 413 885 q 299 861 357 869 q 182 850 242 853 m 722 850 l 533 878 l 533 894 l 911 894 l 911 885 q 818 861 865 869 q 722 850 771 853 z "},"Ý":{"ha":944,"x_min":35,"x_max":911,"o":"m 453 329 l 157 868 l 157 881 l 201 881 l 471 379 l 454 379 l 729 881 l 776 881 l 776 876 l 469 329 l 453 329 m 251 0 l 251 14 q 344 32 300 25 q 432 40 389 39 l 438 375 l 485 375 l 485 42 l 667 17 l 667 0 l 251 0 m 182 850 l 35 878 l 35 894 l 413 894 l 413 885 q 299 861 357 869 q 182 850 242 853 m 722 850 l 533 878 l 533 894 l 911 894 l 911 885 q 818 861 865 869 q 722 850 771 853 m 382 1015 l 374 1028 l 590 1207 l 599 1207 l 621 1176 q 503 1093 564 1133 q 382 1015 443 1053 z "},"Ŷ":{"ha":944,"x_min":35,"x_max":911,"o":"m 453 329 l 157 868 l 157 881 l 201 881 l 471 379 l 454 379 l 729 881 l 776 881 l 776 876 l 469 329 l 453 329 m 251 0 l 251 14 q 344 32 300 25 q 432 40 389 39 l 438 375 l 485 375 l 485 42 l 667 17 l 667 0 l 251 0 m 182 850 l 35 878 l 35 894 l 413 894 l 413 885 q 299 861 357 869 q 182 850 242 853 m 722 850 l 533 878 l 533 894 l 911 894 l 911 885 q 818 861 865 869 q 722 850 771 853 m 496 1193 l 639 1067 l 624 1050 l 486 1153 l 351 1050 l 336 1067 l 479 1193 l 496 1193 z "},"Ÿ":{"ha":944,"x_min":35,"x_max":911,"o":"m 453 329 l 157 868 l 157 881 l 201 881 l 471 379 l 454 379 l 729 881 l 776 881 l 776 876 l 469 329 l 453 329 m 251 0 l 251 14 q 344 32 300 25 q 432 40 389 39 l 438 375 l 485 375 l 485 42 l 667 17 l 667 0 l 251 0 m 182 850 l 35 878 l 35 894 l 413 894 l 413 885 q 299 861 357 869 q 182 850 242 853 m 722 850 l 533 878 l 533 894 l 911 894 l 911 885 q 818 861 865 869 q 722 850 771 853 m 388 1158 q 407 1132 399 1147 q 417 1101 415 1117 q 392 1083 407 1092 q 363 1072 378 1075 q 344 1097 353 1083 q 331 1126 335 1111 q 356 1147 342 1138 q 388 1158 371 1156 m 585 1158 q 604 1132 596 1147 q 614 1101 613 1117 q 590 1083 604 1092 q 560 1072 575 1075 q 540 1097 547 1083 q 528 1126 532 1111 q 553 1147 539 1138 q 585 1158 568 1156 z "},"Ẏ":{"ha":944,"x_min":35,"x_max":911,"o":"m 453 329 l 157 868 l 157 881 l 201 881 l 471 379 l 454 379 l 729 881 l 776 881 l 776 876 l 469 329 l 453 329 m 251 0 l 251 14 q 344 32 300 25 q 432 40 389 39 l 438 375 l 485 375 l 485 42 l 667 17 l 667 0 l 251 0 m 182 850 l 35 878 l 35 894 l 413 894 l 413 885 q 299 861 357 869 q 182 850 242 853 m 722 850 l 533 878 l 533 894 l 911 894 l 911 885 q 818 861 865 869 q 722 850 771 853 m 486 1163 q 508 1135 499 1151 q 518 1103 517 1118 q 492 1082 508 1090 q 461 1071 476 1074 q 440 1097 449 1082 q 426 1128 431 1113 q 453 1151 438 1142 q 486 1163 469 1160 z "},"Ỵ":{"ha":944,"x_min":35,"x_max":911,"o":"m 453 329 l 157 868 l 157 881 l 201 881 l 471 379 l 454 379 l 729 881 l 776 881 l 776 876 l 469 329 l 453 329 m 251 0 l 251 14 q 344 32 300 25 q 432 40 389 39 l 438 375 l 485 375 l 485 42 l 667 17 l 667 0 l 251 0 m 182 850 l 35 878 l 35 894 l 413 894 l 413 885 q 299 861 357 869 q 182 850 242 853 m 722 850 l 533 878 l 533 894 l 911 894 l 911 885 q 818 861 865 869 q 722 850 771 853 m 486 -119 q 506 -147 497 -131 q 517 -178 515 -162 q 492 -197 507 -189 q 461 -208 476 -206 q 442 -183 450 -197 q 428 -153 433 -168 q 454 -132 439 -140 q 486 -119 469 -124 z "},"Ỳ":{"ha":944,"x_min":35,"x_max":911,"o":"m 453 329 l 157 868 l 157 881 l 201 881 l 471 379 l 454 379 l 729 881 l 776 881 l 776 876 l 469 329 l 453 329 m 251 0 l 251 14 q 344 32 300 25 q 432 40 389 39 l 438 375 l 485 375 l 485 42 l 667 17 l 667 0 l 251 0 m 182 850 l 35 878 l 35 894 l 413 894 l 413 885 q 299 861 357 869 q 182 850 242 853 m 722 850 l 533 878 l 533 894 l 911 894 l 911 885 q 818 861 865 869 q 722 850 771 853 m 588 1015 q 466 1093 526 1053 q 349 1176 406 1133 l 371 1207 l 379 1207 l 596 1028 l 588 1015 z "},"Ỷ":{"ha":944,"x_min":35,"x_max":911,"o":"m 453 329 l 157 868 l 157 881 l 201 881 l 471 379 l 454 379 l 729 881 l 776 881 l 776 876 l 469 329 l 453 329 m 251 0 l 251 14 q 344 32 300 25 q 432 40 389 39 l 438 375 l 485 375 l 485 42 l 667 17 l 667 0 l 251 0 m 182 850 l 35 878 l 35 894 l 413 894 l 413 885 q 299 861 357 869 q 182 850 242 853 m 722 850 l 533 878 l 533 894 l 911 894 l 911 885 q 818 861 865 869 q 722 850 771 853 m 453 967 l 453 997 q 465 1035 453 1019 q 495 1063 478 1050 q 525 1089 513 1075 q 538 1124 538 1103 q 520 1156 538 1146 q 472 1167 503 1167 q 438 1165 457 1167 q 397 1156 418 1163 l 392 1186 q 436 1196 415 1193 q 475 1199 457 1199 q 548 1181 521 1199 q 575 1126 575 1163 q 562 1081 575 1099 q 531 1051 549 1064 q 499 1025 514 1038 q 482 993 485 1013 l 478 965 l 453 967 z "},"Ȳ":{"ha":944,"x_min":35,"x_max":911,"o":"m 453 329 l 157 868 l 157 881 l 201 881 l 471 379 l 454 379 l 729 881 l 776 881 l 776 876 l 469 329 l 453 329 m 251 0 l 251 14 q 344 32 300 25 q 432 40 389 39 l 438 375 l 485 375 l 485 42 l 667 17 l 667 0 l 251 0 m 182 850 l 35 878 l 35 894 l 413 894 l 413 885 q 299 861 357 869 q 182 850 242 853 m 722 850 l 533 878 l 533 894 l 911 894 l 911 885 q 818 861 865 869 q 722 850 771 853 m 325 1097 l 325 1133 l 621 1133 l 621 1097 l 325 1097 z "},"Ỹ":{"ha":944,"x_min":35,"x_max":911,"o":"m 453 329 l 157 868 l 157 881 l 201 881 l 471 379 l 454 379 l 729 881 l 776 881 l 776 876 l 469 329 l 453 329 m 251 0 l 251 14 q 344 32 300 25 q 432 40 389 39 l 438 375 l 485 375 l 485 42 l 667 17 l 667 0 l 251 0 m 182 850 l 35 878 l 35 894 l 413 894 l 413 885 q 299 861 357 869 q 182 850 242 853 m 722 850 l 533 878 l 533 894 l 911 894 l 911 885 q 818 861 865 869 q 722 850 771 853 m 301 1049 l 292 1060 q 341 1121 322 1100 q 372 1149 360 1142 q 393 1156 383 1157 q 414 1153 403 1156 l 564 1113 l 643 1185 l 653 1175 q 592 1101 614 1122 q 558 1078 571 1079 q 531 1081 546 1076 l 381 1121 l 301 1049 z "},"Z":{"ha":894,"x_min":93,"x_max":789,"o":"m 93 0 l 93 4 l 707 861 l 169 851 l 139 646 l 129 646 l 124 894 l 781 894 l 781 890 l 168 33 l 742 43 l 772 258 l 782 258 l 789 0 l 93 0 z "},"Ź":{"ha":894,"x_min":93,"x_max":789,"o":"m 93 0 l 93 4 l 707 861 l 169 851 l 139 646 l 129 646 l 124 894 l 781 894 l 781 890 l 168 33 l 742 43 l 772 258 l 782 258 l 789 0 l 93 0 m 356 1015 l 347 1028 l 564 1207 l 572 1207 l 594 1176 q 477 1093 538 1133 q 356 1015 417 1053 z "},"Ž":{"ha":894,"x_min":93,"x_max":789,"o":"m 93 0 l 93 4 l 707 861 l 169 851 l 139 646 l 129 646 l 124 894 l 781 894 l 781 890 l 168 33 l 742 43 l 772 258 l 782 258 l 789 0 l 93 0 m 439 1038 l 296 1164 l 311 1181 l 449 1078 l 583 1181 l 599 1164 l 456 1038 l 439 1038 z "},"Ż":{"ha":894,"x_min":93,"x_max":789,"o":"m 93 0 l 93 4 l 707 861 l 169 851 l 139 646 l 129 646 l 124 894 l 781 894 l 781 890 l 168 33 l 742 43 l 772 258 l 782 258 l 789 0 l 93 0 m 460 1163 q 481 1135 472 1151 q 492 1103 490 1118 q 466 1082 482 1090 q 435 1071 450 1074 q 413 1097 422 1082 q 400 1128 404 1113 q 427 1151 411 1142 q 460 1163 443 1160 z "},"Ẓ":{"ha":894,"x_min":93,"x_max":789,"o":"m 93 0 l 93 4 l 707 861 l 169 851 l 139 646 l 129 646 l 124 894 l 781 894 l 781 890 l 168 33 l 742 43 l 772 258 l 782 258 l 789 0 l 93 0 m 460 -119 q 480 -147 471 -131 q 490 -178 489 -162 q 465 -197 481 -189 q 435 -208 450 -206 q 415 -183 424 -197 q 401 -153 407 -168 q 428 -132 413 -140 q 460 -119 443 -124 z "},"Ằ":{"ha":981,"x_min":38,"x_max":944,"o":"m 842 35 q 894 26 868 31 q 944 14 919 21 l 944 0 l 633 0 l 633 17 l 790 36 l 483 871 l 497 871 l 178 36 q 270 26 225 32 q 361 14 315 21 l 361 0 l 38 0 l 38 17 l 132 36 l 465 894 l 521 894 l 842 35 m 275 326 l 275 368 l 697 368 l 697 326 l 275 326 m 613 1140 q 484 1184 549 1161 q 356 1233 419 1207 l 369 1268 l 378 1271 l 618 1158 l 613 1140 m 490 1001 q 424 1014 454 1001 q 374 1048 393 1026 q 353 1094 356 1069 l 386 1101 q 421 1054 393 1074 q 490 1035 449 1035 q 561 1054 532 1035 q 596 1101 590 1074 l 628 1094 q 607 1048 625 1069 q 559 1014 589 1026 q 490 1001 529 1001 z "},"a":{"ha":674,"x_min":74,"x_max":665,"o":"m 574 -6 q 508 24 539 -6 q 467 108 478 53 l 478 553 q 264 633 390 633 q 206 628 235 633 q 146 614 176 624 l 160 626 l 139 443 q 106 478 118 454 q 94 528 94 501 q 120 602 94 569 q 191 654 146 635 q 292 674 236 674 q 413 649 356 674 q 514 575 471 624 l 514 56 l 665 58 q 639 22 654 36 q 607 1 624 8 q 574 -6 590 -6 m 247 -12 q 122 38 171 -11 q 74 161 74 86 q 92 231 74 201 q 156 283 110 260 q 285 329 203 307 q 497 376 368 351 l 497 339 l 121 253 l 136 264 q 125 217 129 242 q 121 171 121 192 q 155 73 121 108 q 253 38 189 38 q 360 60 301 38 q 483 129 419 83 l 483 104 q 372 31 428 58 q 247 -12 317 3 z "},"á":{"ha":674,"x_min":74,"x_max":665,"o":"m 574 -6 q 508 24 539 -6 q 467 108 478 53 l 478 553 q 264 633 390 633 q 206 628 235 633 q 146 614 176 624 l 160 626 l 139 443 q 106 478 118 454 q 94 528 94 501 q 120 602 94 569 q 191 654 146 635 q 292 674 236 674 q 413 649 356 674 q 514 575 471 624 l 514 56 l 665 58 q 639 22 654 36 q 607 1 624 8 q 574 -6 590 -6 m 247 -12 q 122 38 171 -11 q 74 161 74 86 q 92 231 74 201 q 156 283 110 260 q 285 329 203 307 q 497 376 368 351 l 497 339 l 121 253 l 136 264 q 125 217 129 242 q 121 171 121 192 q 155 73 121 108 q 253 38 189 38 q 360 60 301 38 q 483 129 419 83 l 483 104 q 372 31 428 58 q 247 -12 317 3 m 233 785 l 225 797 l 442 976 l 450 976 l 472 946 q 355 863 415 903 q 233 785 294 822 z "},"ă":{"ha":674,"x_min":74,"x_max":665,"o":"m 574 -6 q 508 24 539 -6 q 467 108 478 53 l 478 553 q 264 633 390 633 q 206 628 235 633 q 146 614 176 624 l 160 626 l 139 443 q 106 478 118 454 q 94 528 94 501 q 120 602 94 569 q 191 654 146 635 q 292 674 236 674 q 413 649 356 674 q 514 575 471 624 l 514 56 l 665 58 q 639 22 654 36 q 607 1 624 8 q 574 -6 590 -6 m 247 -12 q 122 38 171 -11 q 74 161 74 86 q 92 231 74 201 q 156 283 110 260 q 285 329 203 307 q 497 376 368 351 l 497 339 l 121 253 l 136 264 q 125 217 129 242 q 121 171 121 192 q 155 73 121 108 q 253 38 189 38 q 360 60 301 38 q 483 129 419 83 l 483 104 q 372 31 428 58 q 247 -12 317 3 m 324 815 q 253 831 285 815 q 203 871 222 846 q 181 926 185 896 l 213 933 q 249 873 218 897 q 324 849 281 849 q 399 873 368 849 q 435 933 429 897 l 467 926 q 445 871 464 896 q 395 831 426 846 q 324 815 364 815 z "},"ắ":{"ha":674,"x_min":74,"x_max":665,"o":"m 574 -6 q 508 24 539 -6 q 467 108 478 53 l 478 553 q 264 633 390 633 q 206 628 235 633 q 146 614 176 624 l 160 626 l 139 443 q 106 478 118 454 q 94 528 94 501 q 120 602 94 569 q 191 654 146 635 q 292 674 236 674 q 413 649 356 674 q 514 575 471 624 l 514 56 l 665 58 q 639 22 654 36 q 607 1 624 8 q 574 -6 590 -6 m 247 -12 q 122 38 171 -11 q 74 161 74 86 q 92 231 74 201 q 156 283 110 260 q 285 329 203 307 q 497 376 368 351 l 497 339 l 121 253 l 136 264 q 125 217 129 242 q 121 171 121 192 q 155 73 121 108 q 253 38 189 38 q 360 60 301 38 q 483 129 419 83 l 483 104 q 372 31 428 58 q 247 -12 317 3 m 201 910 l 196 928 l 436 1040 l 444 1038 l 458 1003 q 331 953 394 976 q 201 910 267 931 m 324 771 q 255 783 285 771 q 207 817 225 796 q 186 864 189 839 l 218 871 q 253 824 224 843 q 324 804 282 804 q 394 824 365 804 q 428 871 422 843 l 461 864 q 440 817 458 839 q 391 783 421 796 q 324 771 361 771 z "},"ặ":{"ha":674,"x_min":74,"x_max":665,"o":"m 574 -6 q 508 24 539 -6 q 467 108 478 53 l 478 553 q 264 633 390 633 q 206 628 235 633 q 146 614 176 624 l 160 626 l 139 443 q 106 478 118 454 q 94 528 94 501 q 120 602 94 569 q 191 654 146 635 q 292 674 236 674 q 413 649 356 674 q 514 575 471 624 l 514 56 l 665 58 q 639 22 654 36 q 607 1 624 8 q 574 -6 590 -6 m 247 -12 q 122 38 171 -11 q 74 161 74 86 q 92 231 74 201 q 156 283 110 260 q 285 329 203 307 q 497 376 368 351 l 497 339 l 121 253 l 136 264 q 125 217 129 242 q 121 171 121 192 q 155 73 121 108 q 253 38 189 38 q 360 60 301 38 q 483 129 419 83 l 483 104 q 372 31 428 58 q 247 -12 317 3 m 324 -119 q 344 -147 335 -131 q 354 -178 353 -162 q 329 -197 344 -189 q 299 -208 314 -206 q 279 -183 288 -197 q 265 -153 271 -168 q 292 -132 276 -140 q 324 -119 307 -124 m 324 815 q 253 831 285 815 q 203 871 222 846 q 181 926 185 896 l 213 933 q 249 873 218 897 q 324 849 281 849 q 399 873 368 849 q 435 933 429 897 l 467 926 q 445 871 464 896 q 395 831 426 846 q 324 815 364 815 z "},"ằ":{"ha":674,"x_min":74,"x_max":665,"o":"m 574 -6 q 508 24 539 -6 q 467 108 478 53 l 478 553 q 264 633 390 633 q 206 628 235 633 q 146 614 176 624 l 160 626 l 139 443 q 106 478 118 454 q 94 528 94 501 q 120 602 94 569 q 191 654 146 635 q 292 674 236 674 q 413 649 356 674 q 514 575 471 624 l 514 56 l 665 58 q 639 22 654 36 q 607 1 624 8 q 574 -6 590 -6 m 247 -12 q 122 38 171 -11 q 74 161 74 86 q 92 231 74 201 q 156 283 110 260 q 285 329 203 307 q 497 376 368 351 l 497 339 l 121 253 l 136 264 q 125 217 129 242 q 121 171 121 192 q 155 73 121 108 q 253 38 189 38 q 360 60 301 38 q 483 129 419 83 l 483 104 q 372 31 428 58 q 247 -12 317 3 m 446 910 q 317 953 382 931 q 189 1003 253 976 l 203 1038 l 211 1040 l 451 928 l 446 910 m 324 771 q 257 783 288 771 q 208 817 226 796 q 186 864 189 839 l 219 871 q 254 824 226 843 q 324 804 282 804 q 394 824 365 804 q 429 871 424 843 l 461 864 q 440 817 458 839 q 392 783 422 796 q 324 771 363 771 z "},"ẳ":{"ha":674,"x_min":74,"x_max":665,"o":"m 574 -6 q 508 24 539 -6 q 467 108 478 53 l 478 553 q 264 633 390 633 q 206 628 235 633 q 146 614 176 624 l 160 626 l 139 443 q 106 478 118 454 q 94 528 94 501 q 120 602 94 569 q 191 654 146 635 q 292 674 236 674 q 413 649 356 674 q 514 575 471 624 l 514 56 l 665 58 q 639 22 654 36 q 607 1 624 8 q 574 -6 590 -6 m 247 -12 q 122 38 171 -11 q 74 161 74 86 q 92 231 74 201 q 156 283 110 260 q 285 329 203 307 q 497 376 368 351 l 497 339 l 121 253 l 136 264 q 125 217 129 242 q 121 171 121 192 q 155 73 121 108 q 253 38 189 38 q 360 60 301 38 q 483 129 419 83 l 483 104 q 372 31 428 58 q 247 -12 317 3 m 324 771 q 253 783 283 771 q 204 817 222 796 q 182 865 186 839 l 215 872 q 251 824 221 843 q 324 804 281 804 q 396 824 367 804 q 431 872 425 843 l 465 865 q 443 817 463 839 q 393 783 424 796 q 324 771 363 771 m 306 886 l 306 910 q 325 947 306 933 q 364 974 344 961 q 383 1008 383 988 q 367 1033 383 1025 q 324 1042 351 1042 q 290 1040 307 1042 q 256 1033 272 1038 l 250 1061 q 289 1068 269 1065 q 326 1071 308 1071 q 394 1056 369 1071 q 419 1013 419 1040 q 408 976 419 990 q 380 952 396 963 q 351 931 364 942 q 335 906 338 921 l 331 885 l 306 886 z "},"ẵ":{"ha":674,"x_min":74,"x_max":665,"o":"m 574 -6 q 508 24 539 -6 q 467 108 478 53 l 478 553 q 264 633 390 633 q 206 628 235 633 q 146 614 176 624 l 160 626 l 139 443 q 106 478 118 454 q 94 528 94 501 q 120 602 94 569 q 191 654 146 635 q 292 674 236 674 q 413 649 356 674 q 514 575 471 624 l 514 56 l 665 58 q 639 22 654 36 q 607 1 624 8 q 574 -6 590 -6 m 247 -12 q 122 38 171 -11 q 74 161 74 86 q 92 231 74 201 q 156 283 110 260 q 285 329 203 307 q 497 376 368 351 l 497 339 l 121 253 l 136 264 q 125 217 129 242 q 121 171 121 192 q 155 73 121 108 q 253 38 189 38 q 360 60 301 38 q 483 129 419 83 l 483 104 q 372 31 428 58 q 247 -12 317 3 m 321 771 q 251 783 282 771 q 201 817 219 796 q 179 865 183 839 l 213 871 q 248 822 218 842 q 321 803 278 803 q 392 822 363 803 q 429 871 421 842 l 460 865 q 438 817 457 839 q 390 783 419 796 q 321 771 360 771 m 142 935 l 132 946 q 194 1001 172 983 q 233 1024 217 1019 q 269 1024 250 1028 l 414 992 l 506 1046 l 515 1038 q 453 981 476 999 q 413 959 429 963 q 375 960 396 956 l 233 992 l 142 935 z "},"ǎ":{"ha":674,"x_min":74,"x_max":665,"o":"m 574 -6 q 508 24 539 -6 q 467 108 478 53 l 478 553 q 264 633 390 633 q 206 628 235 633 q 146 614 176 624 l 160 626 l 139 443 q 106 478 118 454 q 94 528 94 501 q 120 602 94 569 q 191 654 146 635 q 292 674 236 674 q 413 649 356 674 q 514 575 471 624 l 514 56 l 665 58 q 639 22 654 36 q 607 1 624 8 q 574 -6 590 -6 m 247 -12 q 122 38 171 -11 q 74 161 74 86 q 92 231 74 201 q 156 283 110 260 q 285 329 203 307 q 497 376 368 351 l 497 339 l 121 253 l 136 264 q 125 217 129 242 q 121 171 121 192 q 155 73 121 108 q 253 38 189 38 q 360 60 301 38 q 483 129 419 83 l 483 104 q 372 31 428 58 q 247 -12 317 3 m 317 807 l 174 933 l 189 950 l 326 847 l 461 950 l 476 933 l 333 807 l 317 807 z "},"â":{"ha":674,"x_min":74,"x_max":665,"o":"m 574 -6 q 508 24 539 -6 q 467 108 478 53 l 478 553 q 264 633 390 633 q 206 628 235 633 q 146 614 176 624 l 160 626 l 139 443 q 106 478 118 454 q 94 528 94 501 q 120 602 94 569 q 191 654 146 635 q 292 674 236 674 q 413 649 356 674 q 514 575 471 624 l 514 56 l 665 58 q 639 22 654 36 q 607 1 624 8 q 574 -6 590 -6 m 247 -12 q 122 38 171 -11 q 74 161 74 86 q 92 231 74 201 q 156 283 110 260 q 285 329 203 307 q 497 376 368 351 l 497 339 l 121 253 l 136 264 q 125 217 129 242 q 121 171 121 192 q 155 73 121 108 q 253 38 189 38 q 360 60 301 38 q 483 129 419 83 l 483 104 q 372 31 428 58 q 247 -12 317 3 m 347 963 l 490 836 l 475 819 l 338 922 l 203 819 l 188 836 l 331 963 l 347 963 z "},"ấ":{"ha":674,"x_min":74,"x_max":665,"o":"m 574 -6 q 508 24 539 -6 q 467 108 478 53 l 478 553 q 264 633 390 633 q 206 628 235 633 q 146 614 176 624 l 160 626 l 139 443 q 106 478 118 454 q 94 528 94 501 q 120 602 94 569 q 191 654 146 635 q 292 674 236 674 q 413 649 356 674 q 514 575 471 624 l 514 56 l 665 58 q 639 22 654 36 q 607 1 624 8 q 574 -6 590 -6 m 247 -12 q 122 38 171 -11 q 74 161 74 86 q 92 231 74 201 q 156 283 110 260 q 285 329 203 307 q 497 376 368 351 l 497 339 l 121 253 l 136 264 q 125 217 129 242 q 121 171 121 192 q 155 73 121 108 q 253 38 189 38 q 360 60 301 38 q 483 129 419 83 l 483 104 q 372 31 428 58 q 247 -12 317 3 m 203 910 l 197 928 l 438 1040 l 446 1038 l 460 1003 q 332 953 396 976 q 203 910 268 931 m 190 776 l 176 792 l 311 894 l 329 894 l 464 792 l 450 776 l 321 854 l 190 776 z "},"ậ":{"ha":674,"x_min":74,"x_max":665,"o":"m 574 -6 q 508 24 539 -6 q 467 108 478 53 l 478 553 q 264 633 390 633 q 206 628 235 633 q 146 614 176 624 l 160 626 l 139 443 q 106 478 118 454 q 94 528 94 501 q 120 602 94 569 q 191 654 146 635 q 292 674 236 674 q 413 649 356 674 q 514 575 471 624 l 514 56 l 665 58 q 639 22 654 36 q 607 1 624 8 q 574 -6 590 -6 m 247 -12 q 122 38 171 -11 q 74 161 74 86 q 92 231 74 201 q 156 283 110 260 q 285 329 203 307 q 497 376 368 351 l 497 339 l 121 253 l 136 264 q 125 217 129 242 q 121 171 121 192 q 155 73 121 108 q 253 38 189 38 q 360 60 301 38 q 483 129 419 83 l 483 104 q 372 31 428 58 q 247 -12 317 3 m 324 -119 q 344 -147 335 -131 q 354 -178 353 -162 q 329 -197 344 -189 q 299 -208 314 -206 q 279 -183 288 -197 q 265 -153 271 -168 q 292 -132 276 -140 q 324 -119 307 -124 m 347 963 l 490 836 l 475 819 l 338 922 l 203 819 l 188 836 l 331 963 l 347 963 z "},"ầ":{"ha":674,"x_min":74,"x_max":665,"o":"m 574 -6 q 508 24 539 -6 q 467 108 478 53 l 478 553 q 264 633 390 633 q 206 628 235 633 q 146 614 176 624 l 160 626 l 139 443 q 106 478 118 454 q 94 528 94 501 q 120 602 94 569 q 191 654 146 635 q 292 674 236 674 q 413 649 356 674 q 514 575 471 624 l 514 56 l 665 58 q 639 22 654 36 q 607 1 624 8 q 574 -6 590 -6 m 247 -12 q 122 38 171 -11 q 74 161 74 86 q 92 231 74 201 q 156 283 110 260 q 285 329 203 307 q 497 376 368 351 l 497 339 l 121 253 l 136 264 q 125 217 129 242 q 121 171 121 192 q 155 73 121 108 q 253 38 189 38 q 360 60 301 38 q 483 129 419 83 l 483 104 q 372 31 428 58 q 247 -12 317 3 m 444 910 q 316 953 381 931 q 188 1003 251 976 l 201 1038 l 210 1040 l 450 928 l 444 910 m 197 776 l 183 792 l 318 894 l 336 894 l 471 792 l 457 776 l 326 854 l 197 776 z "},"ẩ":{"ha":674,"x_min":74,"x_max":665,"o":"m 574 -6 q 508 24 539 -6 q 467 108 478 53 l 478 553 q 264 633 390 633 q 206 628 235 633 q 146 614 176 624 l 160 626 l 139 443 q 106 478 118 454 q 94 528 94 501 q 120 602 94 569 q 191 654 146 635 q 292 674 236 674 q 413 649 356 674 q 514 575 471 624 l 514 56 l 665 58 q 639 22 654 36 q 607 1 624 8 q 574 -6 590 -6 m 247 -12 q 122 38 171 -11 q 74 161 74 86 q 92 231 74 201 q 156 283 110 260 q 285 329 203 307 q 497 376 368 351 l 497 339 l 121 253 l 136 264 q 125 217 129 242 q 121 171 121 192 q 155 73 121 108 q 253 38 189 38 q 360 60 301 38 q 483 129 419 83 l 483 104 q 372 31 428 58 q 247 -12 317 3 m 194 775 l 176 792 l 315 897 l 338 897 l 476 792 l 458 775 l 325 857 l 194 775 m 407 872 l 407 896 q 426 933 407 919 q 465 960 446 947 q 485 994 485 974 q 425 1028 485 1028 q 391 1026 408 1028 q 357 1019 374 1024 l 351 1047 q 390 1054 371 1051 q 428 1057 410 1057 q 496 1042 471 1057 q 521 999 521 1026 q 509 963 521 976 q 481 938 497 949 q 452 917 465 928 q 436 892 439 907 l 432 871 l 407 872 z "},"ẫ":{"ha":674,"x_min":74,"x_max":665,"o":"m 574 -6 q 508 24 539 -6 q 467 108 478 53 l 478 553 q 264 633 390 633 q 206 628 235 633 q 146 614 176 624 l 160 626 l 139 443 q 106 478 118 454 q 94 528 94 501 q 120 602 94 569 q 191 654 146 635 q 292 674 236 674 q 413 649 356 674 q 514 575 471 624 l 514 56 l 665 58 q 639 22 654 36 q 607 1 624 8 q 574 -6 590 -6 m 247 -12 q 122 38 171 -11 q 74 161 74 86 q 92 231 74 201 q 156 283 110 260 q 285 329 203 307 q 497 376 368 351 l 497 339 l 121 253 l 136 264 q 125 217 129 242 q 121 171 121 192 q 155 73 121 108 q 253 38 189 38 q 360 60 301 38 q 483 129 419 83 l 483 104 q 372 31 428 58 q 247 -12 317 3 m 189 776 l 175 792 l 310 896 l 328 896 l 463 792 l 449 776 l 319 856 l 189 776 m 142 935 l 132 946 q 194 1001 172 983 q 233 1024 217 1019 q 269 1024 250 1028 l 414 992 l 506 1046 l 515 1038 q 453 981 476 999 q 413 959 429 963 q 375 960 396 956 l 233 992 l 142 935 z "},"ȁ":{"ha":674,"x_min":74,"x_max":665,"o":"m 574 -6 q 508 24 539 -6 q 467 108 478 53 l 478 553 q 264 633 390 633 q 206 628 235 633 q 146 614 176 624 l 160 626 l 139 443 q 106 478 118 454 q 94 528 94 501 q 120 602 94 569 q 191 654 146 635 q 292 674 236 674 q 413 649 356 674 q 514 575 471 624 l 514 56 l 665 58 q 639 22 654 36 q 607 1 624 8 q 574 -6 590 -6 m 247 -12 q 122 38 171 -11 q 74 161 74 86 q 92 231 74 201 q 156 283 110 260 q 285 329 203 307 q 497 376 368 351 l 497 339 l 121 253 l 136 264 q 125 217 129 242 q 121 171 121 192 q 155 73 121 108 q 253 38 189 38 q 360 60 301 38 q 483 129 419 83 l 483 104 q 372 31 428 58 q 247 -12 317 3 m 308 786 q 215 873 261 829 q 124 964 168 917 l 147 988 l 154 986 l 319 796 l 308 786 m 457 786 q 363 873 410 829 q 272 964 317 917 l 296 988 l 303 986 l 468 796 l 457 786 z "},"ä":{"ha":674,"x_min":74,"x_max":665,"o":"m 574 -6 q 508 24 539 -6 q 467 108 478 53 l 478 553 q 264 633 390 633 q 206 628 235 633 q 146 614 176 624 l 160 626 l 139 443 q 106 478 118 454 q 94 528 94 501 q 120 602 94 569 q 191 654 146 635 q 292 674 236 674 q 413 649 356 674 q 514 575 471 624 l 514 56 l 665 58 q 639 22 654 36 q 607 1 624 8 q 574 -6 590 -6 m 247 -12 q 122 38 171 -11 q 74 161 74 86 q 92 231 74 201 q 156 283 110 260 q 285 329 203 307 q 497 376 368 351 l 497 339 l 121 253 l 136 264 q 125 217 129 242 q 121 171 121 192 q 155 73 121 108 q 253 38 189 38 q 360 60 301 38 q 483 129 419 83 l 483 104 q 372 31 428 58 q 247 -12 317 3 m 239 928 q 258 901 250 917 q 268 871 267 886 q 244 853 258 861 q 214 842 229 844 q 195 867 204 853 q 182 896 186 881 q 208 916 193 907 q 239 928 222 925 m 436 928 q 456 901 447 917 q 465 871 464 886 q 441 853 456 861 q 411 842 426 844 q 391 867 399 853 q 379 896 383 881 q 405 916 390 907 q 436 928 419 925 z "},"ạ":{"ha":674,"x_min":74,"x_max":665,"o":"m 574 -6 q 508 24 539 -6 q 467 108 478 53 l 478 553 q 264 633 390 633 q 206 628 235 633 q 146 614 176 624 l 160 626 l 139 443 q 106 478 118 454 q 94 528 94 501 q 120 602 94 569 q 191 654 146 635 q 292 674 236 674 q 413 649 356 674 q 514 575 471 624 l 514 56 l 665 58 q 639 22 654 36 q 607 1 624 8 q 574 -6 590 -6 m 247 -12 q 122 38 171 -11 q 74 161 74 86 q 92 231 74 201 q 156 283 110 260 q 285 329 203 307 q 497 376 368 351 l 497 339 l 121 253 l 136 264 q 125 217 129 242 q 121 171 121 192 q 155 73 121 108 q 253 38 189 38 q 360 60 301 38 q 483 129 419 83 l 483 104 q 372 31 428 58 q 247 -12 317 3 m 324 -119 q 344 -147 335 -131 q 354 -178 353 -162 q 329 -197 344 -189 q 299 -208 314 -206 q 279 -183 288 -197 q 265 -153 271 -168 q 292 -132 276 -140 q 324 -119 307 -124 z "},"à":{"ha":674,"x_min":74,"x_max":665,"o":"m 574 -6 q 508 24 539 -6 q 467 108 478 53 l 478 553 q 264 633 390 633 q 206 628 235 633 q 146 614 176 624 l 160 626 l 139 443 q 106 478 118 454 q 94 528 94 501 q 120 602 94 569 q 191 654 146 635 q 292 674 236 674 q 413 649 356 674 q 514 575 471 624 l 514 56 l 665 58 q 639 22 654 36 q 607 1 624 8 q 574 -6 590 -6 m 247 -12 q 122 38 171 -11 q 74 161 74 86 q 92 231 74 201 q 156 283 110 260 q 285 329 203 307 q 497 376 368 351 l 497 339 l 121 253 l 136 264 q 125 217 129 242 q 121 171 121 192 q 155 73 121 108 q 253 38 189 38 q 360 60 301 38 q 483 129 419 83 l 483 104 q 372 31 428 58 q 247 -12 317 3 m 439 785 q 317 863 378 822 q 200 946 257 903 l 222 976 l 231 976 l 447 797 l 439 785 z "},"ả":{"ha":674,"x_min":74,"x_max":665,"o":"m 574 -6 q 508 24 539 -6 q 467 108 478 53 l 478 553 q 264 633 390 633 q 206 628 235 633 q 146 614 176 624 l 160 626 l 139 443 q 106 478 118 454 q 94 528 94 501 q 120 602 94 569 q 191 654 146 635 q 292 674 236 674 q 413 649 356 674 q 514 575 471 624 l 514 56 l 665 58 q 639 22 654 36 q 607 1 624 8 q 574 -6 590 -6 m 247 -12 q 122 38 171 -11 q 74 161 74 86 q 92 231 74 201 q 156 283 110 260 q 285 329 203 307 q 497 376 368 351 l 497 339 l 121 253 l 136 264 q 125 217 129 242 q 121 171 121 192 q 155 73 121 108 q 253 38 189 38 q 360 60 301 38 q 483 129 419 83 l 483 104 q 372 31 428 58 q 247 -12 317 3 m 304 736 l 304 767 q 317 804 304 789 q 347 832 329 819 q 376 858 364 844 q 389 893 389 872 q 372 926 389 915 q 324 936 354 936 q 289 934 308 936 q 249 925 269 932 l 243 956 q 288 965 267 963 q 326 968 308 968 q 399 950 372 968 q 426 896 426 932 q 413 851 426 868 q 383 820 400 833 q 351 794 365 807 q 333 763 336 782 l 329 735 l 304 736 z "},"ȃ":{"ha":674,"x_min":74,"x_max":665,"o":"m 574 -6 q 508 24 539 -6 q 467 108 478 53 l 478 553 q 264 633 390 633 q 206 628 235 633 q 146 614 176 624 l 160 626 l 139 443 q 106 478 118 454 q 94 528 94 501 q 120 602 94 569 q 191 654 146 635 q 292 674 236 674 q 413 649 356 674 q 514 575 471 624 l 514 56 l 665 58 q 639 22 654 36 q 607 1 624 8 q 574 -6 590 -6 m 247 -12 q 122 38 171 -11 q 74 161 74 86 q 92 231 74 201 q 156 283 110 260 q 285 329 203 307 q 497 376 368 351 l 497 339 l 121 253 l 136 264 q 125 217 129 242 q 121 171 121 192 q 155 73 121 108 q 253 38 189 38 q 360 60 301 38 q 483 129 419 83 l 483 104 q 372 31 428 58 q 247 -12 317 3 m 324 933 q 394 918 364 933 q 444 878 425 903 q 467 822 464 853 l 435 815 q 399 876 429 851 q 324 900 368 900 q 249 876 279 900 q 213 815 219 851 l 181 822 q 202 878 183 853 q 253 918 221 903 q 324 933 285 933 z "},"ā":{"ha":674,"x_min":74,"x_max":665,"o":"m 574 -6 q 508 24 539 -6 q 467 108 478 53 l 478 553 q 264 633 390 633 q 206 628 235 633 q 146 614 176 624 l 160 626 l 139 443 q 106 478 118 454 q 94 528 94 501 q 120 602 94 569 q 191 654 146 635 q 292 674 236 674 q 413 649 356 674 q 514 575 471 624 l 514 56 l 665 58 q 639 22 654 36 q 607 1 624 8 q 574 -6 590 -6 m 247 -12 q 122 38 171 -11 q 74 161 74 86 q 92 231 74 201 q 156 283 110 260 q 285 329 203 307 q 497 376 368 351 l 497 339 l 121 253 l 136 264 q 125 217 129 242 q 121 171 121 192 q 155 73 121 108 q 253 38 189 38 q 360 60 301 38 q 483 129 419 83 l 483 104 q 372 31 428 58 q 247 -12 317 3 m 176 867 l 176 903 l 472 903 l 472 867 l 176 867 z "},"ą":{"ha":674,"x_min":74,"x_max":665,"o":"m 574 -6 q 508 24 539 -6 q 467 108 478 53 l 478 553 q 264 633 390 633 q 206 628 235 633 q 146 614 176 624 l 160 626 l 139 443 q 106 478 118 454 q 94 528 94 501 q 120 602 94 569 q 191 654 146 635 q 292 674 236 674 q 413 649 356 674 q 514 575 471 624 l 514 56 l 665 58 q 639 22 654 36 q 607 1 624 8 q 574 -6 590 -6 m 247 -12 q 122 38 171 -11 q 74 161 74 86 q 92 231 74 201 q 156 283 110 260 q 285 329 203 307 q 497 376 368 351 l 497 339 l 121 253 l 136 264 q 125 217 129 242 q 121 171 121 192 q 155 73 121 108 q 253 38 189 38 q 360 60 301 38 q 483 129 419 83 l 483 104 q 372 31 428 58 q 247 -12 317 3 m 535 -285 q 480 -271 501 -285 q 450 -235 458 -257 q 448 -185 442 -212 q 478 -129 454 -157 l 604 22 l 631 22 l 514 -133 q 490 -212 481 -178 q 544 -246 499 -246 q 602 -231 575 -246 q 651 -187 629 -215 l 660 -207 q 608 -264 640 -243 q 535 -285 575 -285 z "},"å":{"ha":674,"x_min":74,"x_max":665,"o":"m 574 -6 q 508 24 539 -6 q 467 108 478 53 l 478 553 q 264 633 390 633 q 206 628 235 633 q 146 614 176 624 l 160 626 l 139 443 q 106 478 118 454 q 94 528 94 501 q 120 602 94 569 q 191 654 146 635 q 292 674 236 674 q 413 649 356 674 q 514 575 471 624 l 514 56 l 665 58 q 639 22 654 36 q 607 1 624 8 q 574 -6 590 -6 m 247 -12 q 122 38 171 -11 q 74 161 74 86 q 92 231 74 201 q 156 283 110 260 q 285 329 203 307 q 497 376 368 351 l 497 339 l 121 253 l 136 264 q 125 217 129 242 q 121 171 121 192 q 155 73 121 108 q 253 38 189 38 q 360 60 301 38 q 483 129 419 83 l 483 104 q 372 31 428 58 q 247 -12 317 3 m 324 788 q 274 800 296 788 q 240 834 253 813 q 228 883 228 856 q 240 933 228 911 q 274 967 253 954 q 324 979 296 979 q 392 952 365 979 q 419 883 419 925 q 407 834 419 856 q 373 800 394 813 q 324 788 351 788 m 324 819 q 369 838 351 819 q 388 883 388 857 q 369 929 388 911 q 324 947 351 947 q 278 929 297 947 q 260 883 260 911 q 278 838 260 857 q 324 819 297 819 z "},"ǻ":{"ha":674,"x_min":74,"x_max":665,"o":"m 574 -6 q 508 24 539 -6 q 467 108 478 53 l 478 553 q 264 633 390 633 q 206 628 235 633 q 146 614 176 624 l 160 626 l 139 443 q 106 478 118 454 q 94 528 94 501 q 120 602 94 569 q 191 654 146 635 q 292 674 236 674 q 413 649 356 674 q 514 575 471 624 l 514 56 l 665 58 q 639 22 654 36 q 607 1 624 8 q 574 -6 590 -6 m 247 -12 q 122 38 171 -11 q 74 161 74 86 q 92 231 74 201 q 156 283 110 260 q 285 329 203 307 q 497 376 368 351 l 497 339 l 121 253 l 136 264 q 125 217 129 242 q 121 171 121 192 q 155 73 121 108 q 253 38 189 38 q 360 60 301 38 q 483 129 419 83 l 483 104 q 372 31 428 58 q 247 -12 317 3 m 324 788 q 274 800 296 788 q 240 834 253 813 q 228 883 228 856 q 240 933 228 911 q 274 967 253 954 q 324 979 296 979 q 392 952 365 979 q 419 883 419 925 q 407 834 419 856 q 373 800 394 813 q 324 788 351 788 m 324 819 q 369 838 351 819 q 388 883 388 857 q 369 929 388 911 q 324 947 351 947 q 278 929 297 947 q 260 883 260 911 q 278 838 260 857 q 324 819 297 819 m 233 1003 l 225 1015 l 442 1194 l 450 1194 l 472 1164 q 355 1081 415 1121 q 233 1003 294 1040 z "},"ã":{"ha":674,"x_min":74,"x_max":665,"o":"m 574 -6 q 508 24 539 -6 q 467 108 478 53 l 478 553 q 264 633 390 633 q 206 628 235 633 q 146 614 176 624 l 160 626 l 139 443 q 106 478 118 454 q 94 528 94 501 q 120 602 94 569 q 191 654 146 635 q 292 674 236 674 q 413 649 356 674 q 514 575 471 624 l 514 56 l 665 58 q 639 22 654 36 q 607 1 624 8 q 574 -6 590 -6 m 247 -12 q 122 38 171 -11 q 74 161 74 86 q 92 231 74 201 q 156 283 110 260 q 285 329 203 307 q 497 376 368 351 l 497 339 l 121 253 l 136 264 q 125 217 129 242 q 121 171 121 192 q 155 73 121 108 q 253 38 189 38 q 360 60 301 38 q 483 129 419 83 l 483 104 q 372 31 428 58 q 247 -12 317 3 m 153 818 l 143 829 q 192 890 174 869 q 223 919 211 911 q 244 926 235 926 q 265 922 254 925 l 415 882 l 494 954 l 504 944 q 444 870 465 892 q 410 847 422 849 q 382 850 397 846 l 232 890 l 153 818 z "},"æ":{"ha":1050,"x_min":76,"x_max":975,"o":"m 738 -8 q 540 85 611 -8 q 469 347 469 179 q 542 591 469 508 q 754 674 614 674 q 869 643 819 674 q 947 560 919 613 q 974 439 975 507 l 968 353 q 830 335 896 342 q 685 325 764 328 q 492 322 606 322 l 492 361 l 925 368 l 932 435 q 880 578 932 524 q 742 632 828 632 q 654 619 703 632 q 561 582 606 606 q 526 468 539 531 q 514 343 514 406 q 581 116 514 196 q 758 36 649 36 q 857 50 804 36 q 965 94 910 64 l 969 86 q 738 -8 854 -8 m 260 -12 q 125 34 174 -11 q 76 157 76 79 q 94 229 76 199 q 157 283 111 260 q 285 329 203 307 q 497 376 368 351 l 497 339 l 136 256 q 127 212 131 233 q 124 171 124 190 q 157 72 124 107 q 254 38 190 38 q 382 69 314 38 q 526 163 450 101 l 526 135 q 401 42 465 78 q 260 -12 338 7 m 510 522 q 265 633 410 633 q 147 614 210 633 l 161 626 l 140 443 q 108 478 119 454 q 96 528 96 501 q 122 602 96 569 q 192 654 147 635 q 293 674 238 674 q 427 642 363 674 q 539 551 492 611 l 510 522 z "},"ǽ":{"ha":1050,"x_min":76,"x_max":975,"o":"m 738 -8 q 540 85 611 -8 q 469 347 469 179 q 542 591 469 508 q 754 674 614 674 q 869 643 819 674 q 947 560 919 613 q 974 439 975 507 l 968 353 q 830 335 896 342 q 685 325 764 328 q 492 322 606 322 l 492 361 l 925 368 l 932 435 q 880 578 932 524 q 742 632 828 632 q 654 619 703 632 q 561 582 606 606 q 526 468 539 531 q 514 343 514 406 q 581 116 514 196 q 758 36 649 36 q 857 50 804 36 q 965 94 910 64 l 969 86 q 738 -8 854 -8 m 260 -12 q 125 34 174 -11 q 76 157 76 79 q 94 229 76 199 q 157 283 111 260 q 285 329 203 307 q 497 376 368 351 l 497 339 l 136 256 q 127 212 131 233 q 124 171 124 190 q 157 72 124 107 q 254 38 190 38 q 382 69 314 38 q 526 163 450 101 l 526 135 q 401 42 465 78 q 260 -12 338 7 m 510 522 q 265 633 410 633 q 147 614 210 633 l 161 626 l 140 443 q 108 478 119 454 q 96 528 96 501 q 122 602 96 569 q 192 654 147 635 q 293 674 238 674 q 427 642 363 674 q 539 551 492 611 l 510 522 m 431 785 l 422 797 l 639 976 l 647 976 l 669 946 q 552 863 613 903 q 431 785 492 822 z "},"b":{"ha":704,"x_min":78,"x_max":636,"o":"m 128 25 l 160 53 q 240 34 201 40 q 314 28 279 28 q 519 110 444 28 q 594 340 594 193 q 572 483 594 418 q 504 604 549 549 l 560 547 q 361 631 460 631 q 165 547 264 631 l 165 575 q 253 635 208 611 q 344 675 297 660 q 350 675 347 675 q 354 675 353 675 q 505 631 442 675 q 602 512 568 588 q 636 342 636 436 q 596 154 636 233 q 483 33 556 75 q 311 -10 410 -10 q 223 -1 269 -10 q 128 25 176 7 m 128 25 l 140 907 l 78 979 q 126 1004 103 994 q 176 1019 150 1014 l 176 25 l 128 25 z "},"c":{"ha":599,"x_min":68,"x_max":535,"o":"m 331 -8 q 196 35 256 -8 q 102 155 136 79 q 68 328 68 231 q 107 511 68 433 q 213 631 146 589 q 361 674 279 674 q 444 664 403 674 q 524 635 485 654 l 508 593 q 360 632 443 632 q 263 617 311 632 q 172 575 215 603 l 192 593 q 133 472 154 540 q 113 331 113 403 q 144 173 113 239 q 231 71 176 107 q 354 35 286 35 q 440 49 396 35 q 531 92 485 63 l 535 82 q 331 -8 436 -8 m 507 464 l 468 635 l 524 635 l 518 464 l 507 464 z "},"ć":{"ha":599,"x_min":68,"x_max":535,"o":"m 331 -8 q 196 35 256 -8 q 102 155 136 79 q 68 328 68 231 q 107 511 68 433 q 213 631 146 589 q 361 674 279 674 q 444 664 403 674 q 524 635 485 654 l 508 593 q 360 632 443 632 q 263 617 311 632 q 172 575 215 603 l 192 593 q 133 472 154 540 q 113 331 113 403 q 144 173 113 239 q 231 71 176 107 q 354 35 286 35 q 440 49 396 35 q 531 92 485 63 l 535 82 q 331 -8 436 -8 m 507 464 l 468 635 l 524 635 l 518 464 l 507 464 m 257 785 l 249 797 l 465 976 l 474 976 l 496 946 q 378 863 439 903 q 257 785 318 822 z "},"č":{"ha":599,"x_min":68,"x_max":535,"o":"m 331 -8 q 196 35 256 -8 q 102 155 136 79 q 68 328 68 231 q 107 511 68 433 q 213 631 146 589 q 361 674 279 674 q 444 664 403 674 q 524 635 485 654 l 508 593 q 360 632 443 632 q 263 617 311 632 q 172 575 215 603 l 192 593 q 133 472 154 540 q 113 331 113 403 q 144 173 113 239 q 231 71 176 107 q 354 35 286 35 q 440 49 396 35 q 531 92 485 63 l 535 82 q 331 -8 436 -8 m 507 464 l 468 635 l 524 635 l 518 464 l 507 464 m 340 807 l 197 933 l 213 950 l 350 847 l 485 950 l 500 933 l 357 807 l 340 807 z "},"ç":{"ha":599,"x_min":68,"x_max":535,"o":"m 331 -8 q 196 35 256 -8 q 102 155 136 79 q 68 328 68 231 q 107 511 68 433 q 213 631 146 589 q 361 674 279 674 q 444 664 403 674 q 524 635 485 654 l 508 593 q 360 632 443 632 q 263 617 311 632 q 172 575 215 603 l 192 593 q 133 472 154 540 q 113 331 113 403 q 144 173 113 239 q 231 71 176 107 q 354 35 286 35 q 440 49 396 35 q 531 92 485 63 l 535 82 q 331 -8 436 -8 m 507 464 l 468 635 l 524 635 l 518 464 l 507 464 m 221 -267 l 225 -231 q 310 -246 269 -240 q 394 -253 351 -251 q 419 -227 410 -243 q 428 -194 428 -211 q 413 -160 428 -176 q 364 -129 397 -144 q 278 -99 331 -114 l 294 -67 q 423 -118 382 -89 q 464 -190 464 -147 q 430 -258 464 -232 q 341 -286 396 -283 q 221 -267 286 -289 m 303 15 l 335 15 l 310 -99 l 278 -99 l 303 15 z "},"ḉ":{"ha":599,"x_min":68,"x_max":535,"o":"m 331 -8 q 196 35 256 -8 q 102 155 136 79 q 68 328 68 231 q 107 511 68 433 q 213 631 146 589 q 361 674 279 674 q 444 664 403 674 q 524 635 485 654 l 508 593 q 360 632 443 632 q 263 617 311 632 q 172 575 215 603 l 192 593 q 133 472 154 540 q 113 331 113 403 q 144 173 113 239 q 231 71 176 107 q 354 35 286 35 q 440 49 396 35 q 531 92 485 63 l 535 82 q 331 -8 436 -8 m 507 464 l 468 635 l 524 635 l 518 464 l 507 464 m 221 -267 l 225 -231 q 310 -246 269 -240 q 394 -253 351 -251 q 419 -227 410 -243 q 428 -194 428 -211 q 413 -160 428 -176 q 364 -129 397 -144 q 278 -99 331 -114 l 294 -67 q 423 -118 382 -89 q 464 -190 464 -147 q 430 -258 464 -232 q 341 -286 396 -283 q 221 -267 286 -289 m 303 15 l 335 15 l 310 -99 l 278 -99 l 303 15 m 257 785 l 249 797 l 465 976 l 474 976 l 496 946 q 378 863 439 903 q 257 785 318 822 z "},"ĉ":{"ha":599,"x_min":68,"x_max":535,"o":"m 331 -8 q 196 35 256 -8 q 102 155 136 79 q 68 328 68 231 q 107 511 68 433 q 213 631 146 589 q 361 674 279 674 q 444 664 403 674 q 524 635 485 654 l 508 593 q 360 632 443 632 q 263 617 311 632 q 172 575 215 603 l 192 593 q 133 472 154 540 q 113 331 113 403 q 144 173 113 239 q 231 71 176 107 q 354 35 286 35 q 440 49 396 35 q 531 92 485 63 l 535 82 q 331 -8 436 -8 m 507 464 l 468 635 l 524 635 l 518 464 l 507 464 m 371 963 l 514 836 l 499 819 l 361 922 l 226 819 l 211 836 l 354 963 l 371 963 z "},"ċ":{"ha":599,"x_min":68,"x_max":535,"o":"m 331 -8 q 196 35 256 -8 q 102 155 136 79 q 68 328 68 231 q 107 511 68 433 q 213 631 146 589 q 361 674 279 674 q 444 664 403 674 q 524 635 485 654 l 508 593 q 360 632 443 632 q 263 617 311 632 q 172 575 215 603 l 192 593 q 133 472 154 540 q 113 331 113 403 q 144 173 113 239 q 231 71 176 107 q 354 35 286 35 q 440 49 396 35 q 531 92 485 63 l 535 82 q 331 -8 436 -8 m 507 464 l 468 635 l 524 635 l 518 464 l 507 464 m 361 932 q 383 904 374 921 q 393 872 392 888 q 367 851 383 860 q 336 840 351 843 q 315 867 324 851 q 301 897 306 882 q 328 920 313 911 q 361 932 344 929 z "},"d":{"ha":738,"x_min":68,"x_max":722,"o":"m 349 -11 q 202 31 265 -11 q 103 147 139 72 q 68 322 68 222 q 158 581 68 488 q 397 674 247 674 q 475 667 435 674 q 558 649 515 661 l 546 611 q 388 635 456 635 q 274 618 328 635 q 167 568 219 601 l 185 586 q 131 467 150 535 q 111 324 111 399 q 141 167 111 232 q 222 67 171 101 q 336 33 274 33 q 434 53 383 33 q 536 115 485 74 l 536 89 q 452 32 497 58 q 354 -11 407 6 q 352 -11 353 -11 q 349 -11 351 -11 m 632 -6 q 588 7 610 -6 q 549 44 565 19 q 526 103 533 68 l 538 907 l 476 979 q 521 1003 499 993 q 574 1019 543 1013 l 574 56 l 722 58 q 696 23 711 38 q 665 1 681 8 q 632 -6 649 -6 m 553 1043 l 551 1044 l 553 1044 l 553 1043 z "},"ð":{"ha":707,"x_min":68,"x_max":625,"o":"m 342 -10 q 199 32 261 -10 q 103 148 138 74 q 68 319 68 222 q 107 506 68 428 q 210 625 146 583 q 347 667 274 667 q 466 638 406 667 q 578 549 526 610 l 582 515 q 472 601 535 572 q 342 629 408 629 q 263 619 303 629 q 186 586 222 608 q 130 460 149 526 q 111 326 111 394 q 141 173 111 240 q 224 67 171 106 q 346 29 278 29 q 469 70 417 29 q 552 184 522 111 q 582 354 582 257 q 536 580 582 471 q 397 792 490 689 q 161 996 303 896 l 181 1017 q 426 813 326 921 q 575 590 525 706 q 625 351 625 474 q 590 163 625 244 q 490 35 554 81 q 342 -10 426 -10 m 190 764 l 179 796 l 547 913 l 557 879 l 190 764 z "},"ď":{"ha":742,"x_min":68,"x_max":738,"o":"m 349 -11 q 202 31 265 -11 q 103 147 139 72 q 68 322 68 222 q 158 581 68 488 q 397 674 247 674 q 475 667 435 674 q 558 649 515 661 l 546 611 q 388 635 456 635 q 274 618 328 635 q 167 568 219 601 l 185 586 q 131 467 150 535 q 111 324 111 399 q 141 167 111 232 q 222 67 171 101 q 336 33 274 33 q 434 53 383 33 q 536 115 485 74 l 536 89 q 452 32 497 58 q 354 -11 407 6 q 352 -11 353 -11 q 349 -11 351 -11 m 632 -6 q 588 7 610 -6 q 549 44 565 19 q 526 103 533 68 l 538 907 l 476 979 q 521 1003 499 993 q 574 1019 543 1013 l 574 56 l 722 58 q 696 23 711 38 q 665 1 681 8 q 632 -6 649 -6 m 553 1043 l 551 1044 l 553 1044 l 553 1043 m 693 908 l 676 1114 q 738 1114 707 1121 l 719 908 l 693 908 z "},"đ":{"ha":738,"x_min":68,"x_max":722,"o":"m 349 -11 q 202 31 265 -11 q 103 147 139 72 q 68 322 68 222 q 158 581 68 488 q 397 674 247 674 q 475 667 435 674 q 558 649 515 661 l 546 611 q 388 635 456 635 q 274 618 328 635 q 167 568 219 601 l 185 586 q 131 467 150 535 q 111 324 111 399 q 141 167 111 232 q 222 67 171 101 q 336 33 274 33 q 434 53 383 33 q 536 115 485 74 l 536 89 q 452 32 497 58 q 354 -11 407 6 q 352 -11 353 -11 q 349 -11 351 -11 m 632 -6 q 588 7 610 -6 q 549 44 565 19 q 526 103 533 68 l 538 907 l 476 979 q 521 1003 499 993 q 574 1019 543 1013 l 574 56 l 722 58 q 696 23 711 38 q 665 1 681 8 q 632 -6 649 -6 m 553 1043 l 551 1044 l 553 1044 l 553 1043 m 268 807 l 693 807 l 693 769 l 268 769 l 268 807 z "},"ḍ":{"ha":738,"x_min":68,"x_max":722,"o":"m 349 -11 q 202 31 265 -11 q 103 147 139 72 q 68 322 68 222 q 158 581 68 488 q 397 674 247 674 q 475 667 435 674 q 558 649 515 661 l 546 611 q 388 635 456 635 q 274 618 328 635 q 167 568 219 601 l 185 586 q 131 467 150 535 q 111 324 111 399 q 141 167 111 232 q 222 67 171 101 q 336 33 274 33 q 434 53 383 33 q 536 115 485 74 l 536 89 q 452 32 497 58 q 354 -11 407 6 q 352 -11 353 -11 q 349 -11 351 -11 m 632 -6 q 588 7 610 -6 q 549 44 565 19 q 526 103 533 68 l 538 907 l 476 979 q 521 1003 499 993 q 574 1019 543 1013 l 574 56 l 722 58 q 696 23 711 38 q 665 1 681 8 q 632 -6 649 -6 m 553 1043 l 551 1044 l 553 1044 l 553 1043 m 381 -119 q 401 -147 392 -131 q 411 -178 410 -162 q 386 -197 401 -189 q 356 -208 371 -206 q 336 -183 344 -197 q 322 -153 328 -168 q 349 -132 333 -140 q 381 -119 364 -124 z "},"ḏ":{"ha":738,"x_min":68,"x_max":722,"o":"m 349 -11 q 202 31 265 -11 q 103 147 139 72 q 68 322 68 222 q 158 581 68 488 q 397 674 247 674 q 475 667 435 674 q 558 649 515 661 l 546 611 q 388 635 456 635 q 274 618 328 635 q 167 568 219 601 l 185 586 q 131 467 150 535 q 111 324 111 399 q 141 167 111 232 q 222 67 171 101 q 336 33 274 33 q 434 53 383 33 q 536 115 485 74 l 536 89 q 452 32 497 58 q 354 -11 407 6 q 352 -11 353 -11 q 349 -11 351 -11 m 632 -6 q 588 7 610 -6 q 549 44 565 19 q 526 103 533 68 l 538 907 l 476 979 q 521 1003 499 993 q 574 1019 543 1013 l 574 56 l 722 58 q 696 23 711 38 q 665 1 681 8 q 632 -6 649 -6 m 553 1043 l 551 1044 l 553 1044 l 553 1043 m 219 -186 l 219 -150 l 515 -150 l 515 -186 l 219 -186 z "},"ǆ":{"ha":1396,"x_min":68,"x_max":1329,"o":"m 349 -11 q 202 31 265 -11 q 103 147 139 72 q 68 322 68 222 q 158 581 68 488 q 397 674 247 674 q 475 667 435 674 q 558 649 515 661 l 546 611 q 388 635 456 635 q 274 618 328 635 q 167 568 219 601 l 185 586 q 131 467 150 535 q 111 324 111 399 q 141 167 111 232 q 222 67 171 101 q 336 33 274 33 q 434 53 383 33 q 536 115 485 74 l 536 89 q 452 32 497 58 q 354 -11 407 6 q 352 -11 353 -11 q 349 -11 351 -11 m 632 -6 q 588 7 610 -6 q 549 44 565 19 q 526 103 533 68 l 538 907 l 476 979 q 521 1003 499 993 q 574 1019 543 1013 l 574 56 l 722 58 q 696 23 711 38 q 665 1 681 8 q 632 -6 649 -6 m 553 1043 l 551 1044 l 553 1044 l 553 1043 m 790 0 l 790 4 l 1246 628 l 867 628 l 836 471 l 826 471 l 821 664 l 1319 664 l 1319 660 l 865 36 l 1282 35 l 1313 203 l 1321 203 l 1329 0 l 790 0 m 1058 807 l 915 933 l 931 950 l 1068 847 l 1203 950 l 1218 933 l 1075 807 l 1058 807 z "},"e":{"ha":650,"x_min":68,"x_max":575,"o":"m 336 -8 q 197 33 257 -8 q 102 149 136 75 q 68 321 68 224 q 104 501 68 421 q 204 627 140 581 q 351 674 268 674 q 467 643 417 674 q 546 560 517 613 q 574 439 575 507 l 569 350 q 433 334 501 340 q 282 325 364 328 q 90 322 200 322 l 90 361 l 528 368 l 531 435 q 478 576 531 521 q 344 632 426 632 q 265 619 306 632 q 188 582 224 606 q 132 460 151 526 q 113 328 113 394 q 180 113 113 189 q 357 36 247 36 q 565 96 454 36 l 569 86 q 454 15 514 39 q 336 -8 394 -8 z "},"é":{"ha":650,"x_min":68,"x_max":575,"o":"m 336 -8 q 197 33 257 -8 q 102 149 136 75 q 68 321 68 224 q 104 501 68 421 q 204 627 140 581 q 351 674 268 674 q 467 643 417 674 q 546 560 517 613 q 574 439 575 507 l 569 350 q 433 334 501 340 q 282 325 364 328 q 90 322 200 322 l 90 361 l 528 368 l 531 435 q 478 576 531 521 q 344 632 426 632 q 265 619 306 632 q 188 582 224 606 q 132 460 151 526 q 113 328 113 394 q 180 113 113 189 q 357 36 247 36 q 565 96 454 36 l 569 86 q 454 15 514 39 q 336 -8 394 -8 m 256 785 l 247 797 l 464 976 l 472 976 l 494 946 q 377 863 438 903 q 256 785 317 822 z "},"ĕ":{"ha":650,"x_min":68,"x_max":575,"o":"m 336 -8 q 197 33 257 -8 q 102 149 136 75 q 68 321 68 224 q 104 501 68 421 q 204 627 140 581 q 351 674 268 674 q 467 643 417 674 q 546 560 517 613 q 574 439 575 507 l 569 350 q 433 334 501 340 q 282 325 364 328 q 90 322 200 322 l 90 361 l 528 368 l 531 435 q 478 576 531 521 q 344 632 426 632 q 265 619 306 632 q 188 582 224 606 q 132 460 151 526 q 113 328 113 394 q 180 113 113 189 q 357 36 247 36 q 565 96 454 36 l 569 86 q 454 15 514 39 q 336 -8 394 -8 m 346 815 q 276 831 307 815 q 226 871 244 846 q 203 926 207 896 l 235 933 q 272 873 240 897 q 346 849 303 849 q 421 873 390 849 q 457 933 451 897 l 489 926 q 467 871 486 896 q 417 831 449 846 q 346 815 386 815 z "},"ě":{"ha":650,"x_min":68,"x_max":575,"o":"m 336 -8 q 197 33 257 -8 q 102 149 136 75 q 68 321 68 224 q 104 501 68 421 q 204 627 140 581 q 351 674 268 674 q 467 643 417 674 q 546 560 517 613 q 574 439 575 507 l 569 350 q 433 334 501 340 q 282 325 364 328 q 90 322 200 322 l 90 361 l 528 368 l 531 435 q 478 576 531 521 q 344 632 426 632 q 265 619 306 632 q 188 582 224 606 q 132 460 151 526 q 113 328 113 394 q 180 113 113 189 q 357 36 247 36 q 565 96 454 36 l 569 86 q 454 15 514 39 q 336 -8 394 -8 m 339 807 l 196 933 l 211 950 l 349 847 l 483 950 l 499 933 l 356 807 l 339 807 z "},"ḝ":{"ha":650,"x_min":68,"x_max":575,"o":"m 336 -8 q 197 33 257 -8 q 102 149 136 75 q 68 321 68 224 q 104 501 68 421 q 204 627 140 581 q 351 674 268 674 q 467 643 417 674 q 546 560 517 613 q 574 439 575 507 l 569 350 q 433 334 501 340 q 282 325 364 328 q 90 322 200 322 l 90 361 l 528 368 l 531 435 q 478 576 531 521 q 344 632 426 632 q 265 619 306 632 q 188 582 224 606 q 132 460 151 526 q 113 328 113 394 q 180 113 113 189 q 357 36 247 36 q 565 96 454 36 l 569 86 q 454 15 514 39 q 336 -8 394 -8 m 239 -267 l 243 -231 q 328 -246 288 -240 q 413 -253 369 -251 q 437 -227 428 -243 q 446 -194 446 -211 q 431 -160 446 -176 q 382 -129 415 -144 q 296 -99 349 -114 l 313 -67 q 441 -118 400 -89 q 482 -190 482 -147 q 448 -258 482 -232 q 359 -286 414 -283 q 239 -267 304 -289 m 321 15 l 353 15 l 328 -99 l 296 -99 l 321 15 m 346 815 q 276 831 307 815 q 226 871 244 846 q 203 926 207 896 l 235 933 q 272 873 240 897 q 346 849 303 849 q 421 873 390 849 q 457 933 451 897 l 489 926 q 467 871 486 896 q 417 831 449 846 q 346 815 386 815 z "},"ê":{"ha":650,"x_min":68,"x_max":575,"o":"m 336 -8 q 197 33 257 -8 q 102 149 136 75 q 68 321 68 224 q 104 501 68 421 q 204 627 140 581 q 351 674 268 674 q 467 643 417 674 q 546 560 517 613 q 574 439 575 507 l 569 350 q 433 334 501 340 q 282 325 364 328 q 90 322 200 322 l 90 361 l 528 368 l 531 435 q 478 576 531 521 q 344 632 426 632 q 265 619 306 632 q 188 582 224 606 q 132 460 151 526 q 113 328 113 394 q 180 113 113 189 q 357 36 247 36 q 565 96 454 36 l 569 86 q 454 15 514 39 q 336 -8 394 -8 m 369 963 l 513 836 l 497 819 l 360 922 l 225 819 l 210 836 l 353 963 l 369 963 z "},"ế":{"ha":650,"x_min":68,"x_max":575,"o":"m 336 -8 q 197 33 257 -8 q 102 149 136 75 q 68 321 68 224 q 104 501 68 421 q 204 627 140 581 q 351 674 268 674 q 467 643 417 674 q 546 560 517 613 q 574 439 575 507 l 569 350 q 433 334 501 340 q 282 325 364 328 q 90 322 200 322 l 90 361 l 528 368 l 531 435 q 478 576 531 521 q 344 632 426 632 q 265 619 306 632 q 188 582 224 606 q 132 460 151 526 q 113 328 113 394 q 180 113 113 189 q 357 36 247 36 q 565 96 454 36 l 569 86 q 454 15 514 39 q 336 -8 394 -8 m 225 910 l 219 928 l 460 1040 l 468 1038 l 482 1003 q 354 953 418 976 q 225 910 290 931 m 213 776 l 199 792 l 333 894 l 351 894 l 486 792 l 472 776 l 343 854 l 213 776 z "},"ệ":{"ha":650,"x_min":68,"x_max":575,"o":"m 336 -8 q 197 33 257 -8 q 102 149 136 75 q 68 321 68 224 q 104 501 68 421 q 204 627 140 581 q 351 674 268 674 q 467 643 417 674 q 546 560 517 613 q 574 439 575 507 l 569 350 q 433 334 501 340 q 282 325 364 328 q 90 322 200 322 l 90 361 l 528 368 l 531 435 q 478 576 531 521 q 344 632 426 632 q 265 619 306 632 q 188 582 224 606 q 132 460 151 526 q 113 328 113 394 q 180 113 113 189 q 357 36 247 36 q 565 96 454 36 l 569 86 q 454 15 514 39 q 336 -8 394 -8 m 346 -119 q 366 -147 357 -131 q 376 -178 375 -162 q 351 -197 367 -189 q 321 -208 336 -206 q 301 -183 310 -197 q 288 -153 293 -168 q 314 -132 299 -140 q 346 -119 329 -124 m 369 963 l 513 836 l 497 819 l 360 922 l 225 819 l 210 836 l 353 963 l 369 963 z "},"ề":{"ha":650,"x_min":68,"x_max":575,"o":"m 336 -8 q 197 33 257 -8 q 102 149 136 75 q 68 321 68 224 q 104 501 68 421 q 204 627 140 581 q 351 674 268 674 q 467 643 417 674 q 546 560 517 613 q 574 439 575 507 l 569 350 q 433 334 501 340 q 282 325 364 328 q 90 322 200 322 l 90 361 l 528 368 l 531 435 q 478 576 531 521 q 344 632 426 632 q 265 619 306 632 q 188 582 224 606 q 132 460 151 526 q 113 328 113 394 q 180 113 113 189 q 357 36 247 36 q 565 96 454 36 l 569 86 q 454 15 514 39 q 336 -8 394 -8 m 467 910 q 338 953 403 931 q 210 1003 274 976 l 224 1038 l 232 1040 l 472 928 l 467 910 m 219 776 l 206 792 l 340 894 l 358 894 l 493 792 l 479 776 l 349 854 l 219 776 z "},"ể":{"ha":650,"x_min":68,"x_max":575,"o":"m 336 -8 q 197 33 257 -8 q 102 149 136 75 q 68 321 68 224 q 104 501 68 421 q 204 627 140 581 q 351 674 268 674 q 467 643 417 674 q 546 560 517 613 q 574 439 575 507 l 569 350 q 433 334 501 340 q 282 325 364 328 q 90 322 200 322 l 90 361 l 528 368 l 531 435 q 478 576 531 521 q 344 632 426 632 q 265 619 306 632 q 188 582 224 606 q 132 460 151 526 q 113 328 113 394 q 180 113 113 189 q 357 36 247 36 q 565 96 454 36 l 569 86 q 454 15 514 39 q 336 -8 394 -8 m 217 775 l 199 792 l 338 897 l 360 897 l 499 792 l 481 775 l 347 857 l 217 775 m 429 872 l 429 896 q 449 933 429 919 q 488 960 468 947 q 507 994 507 974 q 447 1028 507 1028 q 413 1026 431 1028 q 379 1019 396 1024 l 374 1047 q 413 1054 393 1051 q 450 1057 432 1057 q 518 1042 493 1057 q 543 999 543 1026 q 531 963 543 976 q 503 938 519 949 q 474 917 488 928 q 458 892 461 907 l 454 871 l 429 872 z "},"ễ":{"ha":650,"x_min":68,"x_max":575,"o":"m 336 -8 q 197 33 257 -8 q 102 149 136 75 q 68 321 68 224 q 104 501 68 421 q 204 627 140 581 q 351 674 268 674 q 467 643 417 674 q 546 560 517 613 q 574 439 575 507 l 569 350 q 433 334 501 340 q 282 325 364 328 q 90 322 200 322 l 90 361 l 528 368 l 531 435 q 478 576 531 521 q 344 632 426 632 q 265 619 306 632 q 188 582 224 606 q 132 460 151 526 q 113 328 113 394 q 180 113 113 189 q 357 36 247 36 q 565 96 454 36 l 569 86 q 454 15 514 39 q 336 -8 394 -8 m 211 776 l 197 792 l 332 896 l 350 896 l 485 792 l 471 776 l 342 856 l 211 776 m 164 935 l 154 946 q 217 1001 194 983 q 256 1024 239 1019 q 292 1024 272 1028 l 436 992 l 528 1046 l 538 1038 q 475 981 499 999 q 435 959 451 963 q 397 960 418 956 l 256 992 l 164 935 z "},"ȅ":{"ha":650,"x_min":68,"x_max":575,"o":"m 336 -8 q 197 33 257 -8 q 102 149 136 75 q 68 321 68 224 q 104 501 68 421 q 204 627 140 581 q 351 674 268 674 q 467 643 417 674 q 546 560 517 613 q 574 439 575 507 l 569 350 q 433 334 501 340 q 282 325 364 328 q 90 322 200 322 l 90 361 l 528 368 l 531 435 q 478 576 531 521 q 344 632 426 632 q 265 619 306 632 q 188 582 224 606 q 132 460 151 526 q 113 328 113 394 q 180 113 113 189 q 357 36 247 36 q 565 96 454 36 l 569 86 q 454 15 514 39 q 336 -8 394 -8 m 331 786 q 237 873 283 829 q 146 964 190 917 l 169 988 l 176 986 l 342 796 l 331 786 m 479 786 q 385 873 432 829 q 294 964 339 917 l 318 988 l 325 986 l 490 796 l 479 786 z "},"ë":{"ha":650,"x_min":68,"x_max":575,"o":"m 336 -8 q 197 33 257 -8 q 102 149 136 75 q 68 321 68 224 q 104 501 68 421 q 204 627 140 581 q 351 674 268 674 q 467 643 417 674 q 546 560 517 613 q 574 439 575 507 l 569 350 q 433 334 501 340 q 282 325 364 328 q 90 322 200 322 l 90 361 l 528 368 l 531 435 q 478 576 531 521 q 344 632 426 632 q 265 619 306 632 q 188 582 224 606 q 132 460 151 526 q 113 328 113 394 q 180 113 113 189 q 357 36 247 36 q 565 96 454 36 l 569 86 q 454 15 514 39 q 336 -8 394 -8 m 261 928 q 281 901 272 917 q 290 871 289 886 q 266 853 281 861 q 236 842 251 844 q 217 867 226 853 q 204 896 208 881 q 230 916 215 907 q 261 928 244 925 m 458 928 q 478 901 469 917 q 488 871 486 886 q 463 853 478 861 q 433 842 449 844 q 413 867 421 853 q 401 896 406 881 q 427 916 413 907 q 458 928 442 925 z "},"ė":{"ha":650,"x_min":68,"x_max":575,"o":"m 336 -8 q 197 33 257 -8 q 102 149 136 75 q 68 321 68 224 q 104 501 68 421 q 204 627 140 581 q 351 674 268 674 q 467 643 417 674 q 546 560 517 613 q 574 439 575 507 l 569 350 q 433 334 501 340 q 282 325 364 328 q 90 322 200 322 l 90 361 l 528 368 l 531 435 q 478 576 531 521 q 344 632 426 632 q 265 619 306 632 q 188 582 224 606 q 132 460 151 526 q 113 328 113 394 q 180 113 113 189 q 357 36 247 36 q 565 96 454 36 l 569 86 q 454 15 514 39 q 336 -8 394 -8 m 360 932 q 381 904 372 921 q 392 872 390 888 q 366 851 382 860 q 335 840 350 843 q 313 867 322 851 q 300 897 304 882 q 327 920 311 911 q 360 932 343 929 z "},"ẹ":{"ha":650,"x_min":68,"x_max":575,"o":"m 336 -8 q 197 33 257 -8 q 102 149 136 75 q 68 321 68 224 q 104 501 68 421 q 204 627 140 581 q 351 674 268 674 q 467 643 417 674 q 546 560 517 613 q 574 439 575 507 l 569 350 q 433 334 501 340 q 282 325 364 328 q 90 322 200 322 l 90 361 l 528 368 l 531 435 q 478 576 531 521 q 344 632 426 632 q 265 619 306 632 q 188 582 224 606 q 132 460 151 526 q 113 328 113 394 q 180 113 113 189 q 357 36 247 36 q 565 96 454 36 l 569 86 q 454 15 514 39 q 336 -8 394 -8 m 346 -119 q 366 -147 357 -131 q 376 -178 375 -162 q 351 -197 367 -189 q 321 -208 336 -206 q 301 -183 310 -197 q 288 -153 293 -168 q 314 -132 299 -140 q 346 -119 329 -124 z "},"è":{"ha":650,"x_min":68,"x_max":575,"o":"m 336 -8 q 197 33 257 -8 q 102 149 136 75 q 68 321 68 224 q 104 501 68 421 q 204 627 140 581 q 351 674 268 674 q 467 643 417 674 q 546 560 517 613 q 574 439 575 507 l 569 350 q 433 334 501 340 q 282 325 364 328 q 90 322 200 322 l 90 361 l 528 368 l 531 435 q 478 576 531 521 q 344 632 426 632 q 265 619 306 632 q 188 582 224 606 q 132 460 151 526 q 113 328 113 394 q 180 113 113 189 q 357 36 247 36 q 565 96 454 36 l 569 86 q 454 15 514 39 q 336 -8 394 -8 m 461 785 q 340 863 400 822 q 222 946 279 903 l 244 976 l 253 976 l 469 797 l 461 785 z "},"ẻ":{"ha":650,"x_min":68,"x_max":575,"o":"m 336 -8 q 197 33 257 -8 q 102 149 136 75 q 68 321 68 224 q 104 501 68 421 q 204 627 140 581 q 351 674 268 674 q 467 643 417 674 q 546 560 517 613 q 574 439 575 507 l 569 350 q 433 334 501 340 q 282 325 364 328 q 90 322 200 322 l 90 361 l 528 368 l 531 435 q 478 576 531 521 q 344 632 426 632 q 265 619 306 632 q 188 582 224 606 q 132 460 151 526 q 113 328 113 394 q 180 113 113 189 q 357 36 247 36 q 565 96 454 36 l 569 86 q 454 15 514 39 q 336 -8 394 -8 m 326 736 l 326 767 q 339 804 326 789 q 369 832 351 819 q 399 858 386 844 q 411 893 411 872 q 394 926 411 915 q 346 936 376 936 q 311 934 331 936 q 271 925 292 932 l 265 956 q 310 965 289 963 q 349 968 331 968 q 422 950 394 968 q 449 896 449 932 q 435 851 449 868 q 405 820 422 833 q 373 794 388 807 q 356 763 358 782 l 351 735 l 326 736 z "},"ȇ":{"ha":650,"x_min":68,"x_max":575,"o":"m 336 -8 q 197 33 257 -8 q 102 149 136 75 q 68 321 68 224 q 104 501 68 421 q 204 627 140 581 q 351 674 268 674 q 467 643 417 674 q 546 560 517 613 q 574 439 575 507 l 569 350 q 433 334 501 340 q 282 325 364 328 q 90 322 200 322 l 90 361 l 528 368 l 531 435 q 478 576 531 521 q 344 632 426 632 q 265 619 306 632 q 188 582 224 606 q 132 460 151 526 q 113 328 113 394 q 180 113 113 189 q 357 36 247 36 q 565 96 454 36 l 569 86 q 454 15 514 39 q 336 -8 394 -8 m 346 933 q 417 918 386 933 q 467 878 447 903 q 489 822 486 853 l 457 815 q 421 876 451 851 q 346 900 390 900 q 272 876 301 900 q 235 815 242 851 l 203 822 q 224 878 206 853 q 275 918 243 903 q 346 933 307 933 z "},"ē":{"ha":650,"x_min":68,"x_max":575,"o":"m 336 -8 q 197 33 257 -8 q 102 149 136 75 q 68 321 68 224 q 104 501 68 421 q 204 627 140 581 q 351 674 268 674 q 467 643 417 674 q 546 560 517 613 q 574 439 575 507 l 569 350 q 433 334 501 340 q 282 325 364 328 q 90 322 200 322 l 90 361 l 528 368 l 531 435 q 478 576 531 521 q 344 632 426 632 q 265 619 306 632 q 188 582 224 606 q 132 460 151 526 q 113 328 113 394 q 180 113 113 189 q 357 36 247 36 q 565 96 454 36 l 569 86 q 454 15 514 39 q 336 -8 394 -8 m 199 867 l 199 903 l 494 903 l 494 867 l 199 867 z "},"ḗ":{"ha":650,"x_min":68,"x_max":575,"o":"m 336 -8 q 197 33 257 -8 q 102 149 136 75 q 68 321 68 224 q 104 501 68 421 q 204 627 140 581 q 351 674 268 674 q 467 643 417 674 q 546 560 517 613 q 574 439 575 507 l 569 350 q 433 334 501 340 q 282 325 364 328 q 90 322 200 322 l 90 361 l 528 368 l 531 435 q 478 576 531 521 q 344 632 426 632 q 265 619 306 632 q 188 582 224 606 q 132 460 151 526 q 113 328 113 394 q 180 113 113 189 q 357 36 247 36 q 565 96 454 36 l 569 86 q 454 15 514 39 q 336 -8 394 -8 m 178 790 l 178 825 l 514 825 l 514 790 l 178 790 m 210 906 l 207 919 l 468 1022 l 476 1021 l 488 985 q 350 942 419 961 q 210 906 281 922 z "},"ḕ":{"ha":650,"x_min":68,"x_max":575,"o":"m 336 -8 q 197 33 257 -8 q 102 149 136 75 q 68 321 68 224 q 104 501 68 421 q 204 627 140 581 q 351 674 268 674 q 467 643 417 674 q 546 560 517 613 q 574 439 575 507 l 569 350 q 433 334 501 340 q 282 325 364 328 q 90 322 200 322 l 90 361 l 528 368 l 531 435 q 478 576 531 521 q 344 632 426 632 q 265 619 306 632 q 188 582 224 606 q 132 460 151 526 q 113 328 113 394 q 180 113 113 189 q 357 36 247 36 q 565 96 454 36 l 569 86 q 454 15 514 39 q 336 -8 394 -8 m 482 906 q 342 942 411 922 q 204 985 272 961 l 215 1021 l 224 1022 l 485 919 l 482 906 m 178 790 l 178 825 l 514 825 l 514 790 l 178 790 z "},"ę":{"ha":650,"x_min":68,"x_max":575,"o":"m 336 -8 q 197 33 257 -8 q 102 149 136 75 q 68 321 68 224 q 104 501 68 421 q 204 627 140 581 q 351 674 268 674 q 467 643 417 674 q 546 560 517 613 q 574 439 575 507 l 569 350 q 433 334 501 340 q 282 325 364 328 q 90 322 200 322 l 90 361 l 528 368 l 531 435 q 478 576 531 521 q 344 632 426 632 q 265 619 306 632 q 188 582 224 606 q 132 460 151 526 q 113 328 113 394 q 180 113 113 189 q 357 36 247 36 q 565 96 454 36 l 569 86 q 454 15 514 39 q 336 -8 394 -8 m 358 -278 q 303 -264 325 -278 q 274 -228 282 -250 q 272 -178 265 -206 q 301 -122 278 -150 l 428 29 l 454 29 l 338 -126 q 313 -205 304 -171 q 368 -239 322 -239 q 426 -224 399 -239 q 475 -181 453 -208 l 483 -200 q 431 -257 464 -236 q 358 -278 399 -278 z "},"ẽ":{"ha":650,"x_min":68,"x_max":575,"o":"m 336 -8 q 197 33 257 -8 q 102 149 136 75 q 68 321 68 224 q 104 501 68 421 q 204 627 140 581 q 351 674 268 674 q 467 643 417 674 q 546 560 517 613 q 574 439 575 507 l 569 350 q 433 334 501 340 q 282 325 364 328 q 90 322 200 322 l 90 361 l 528 368 l 531 435 q 478 576 531 521 q 344 632 426 632 q 265 619 306 632 q 188 582 224 606 q 132 460 151 526 q 113 328 113 394 q 180 113 113 189 q 357 36 247 36 q 565 96 454 36 l 569 86 q 454 15 514 39 q 336 -8 394 -8 m 175 818 l 165 829 q 215 890 196 869 q 245 919 233 911 q 267 926 257 926 q 288 922 276 925 l 438 882 l 517 954 l 526 944 q 466 870 488 892 q 432 847 444 849 q 404 850 419 846 l 254 890 l 175 818 z "},"ə":{"ha":650,"x_min":76,"x_max":582,"o":"m 314 672 q 453 631 393 672 q 548 515 514 589 q 582 343 582 440 q 546 163 582 243 q 446 37 510 83 q 299 -10 382 -10 q 184 21 235 -10 q 105 104 133 51 q 76 225 76 157 l 81 314 q 218 331 150 325 q 369 339 286 336 q 560 342 451 342 l 560 303 l 122 296 l 119 229 q 172 88 119 143 q 306 32 225 32 q 385 45 344 32 q 463 82 426 58 q 538 336 538 197 q 470 551 538 475 q 293 628 403 628 q 85 568 196 628 l 81 578 q 314 672 194 672 z "},"f":{"ha":425,"x_min":50,"x_max":443,"o":"m 50 628 l 50 639 q 106 656 78 650 q 169 664 135 663 q 181 827 169 760 q 219 938 193 894 q 288 1001 246 981 q 388 1021 329 1021 q 415 1020 400 1021 q 443 1017 429 1019 l 443 967 q 406 970 425 969 q 369 971 388 971 q 313 969 342 971 q 257 961 285 967 q 223 853 235 932 q 211 664 211 775 l 418 664 l 414 628 l 50 628 m 210 643 l 210 36 l 349 10 l 349 0 l 61 0 l 61 11 q 104 26 81 19 q 161 38 128 33 l 171 643 l 210 643 z "},"g":{"ha":699,"x_min":44,"x_max":696,"o":"m 321 -286 q 119 -231 194 -286 q 46 -79 44 -176 q 111 13 69 -26 q 208 75 153 51 l 231 75 q 124 -22 153 18 q 94 -97 94 -61 q 160 -206 94 -165 q 329 -247 225 -247 q 524 -197 449 -247 q 600 -65 600 -146 q 587 -3 600 -37 q 546 58 574 31 l 199 58 q 163 111 175 83 q 150 165 150 139 q 163 220 150 193 q 199 272 175 247 l 196 104 l 499 104 q 573 83 540 104 q 624 27 606 63 q 643 -54 643 -8 q 602 -176 643 -124 q 488 -257 561 -228 q 321 -286 415 -286 m 329 224 q 149 281 217 224 q 82 436 82 339 q 116 560 82 507 q 210 644 150 614 q 350 674 271 674 q 533 615 463 674 q 604 460 604 557 q 569 335 604 389 q 472 253 533 282 q 329 224 410 224 m 331 263 q 500 315 438 263 q 563 453 563 367 q 503 585 563 538 q 344 633 443 633 q 263 626 306 633 q 181 606 221 619 q 136 511 150 554 q 122 435 122 468 q 179 309 122 356 q 331 263 236 263 m 522 600 q 513 639 517 619 q 510 676 510 658 q 539 751 510 726 q 625 776 568 776 q 658 774 640 776 q 696 768 675 772 l 689 729 l 554 729 l 528 600 l 522 600 z "},"ğ":{"ha":699,"x_min":44,"x_max":696,"o":"m 321 -286 q 119 -231 194 -286 q 46 -79 44 -176 q 111 13 69 -26 q 208 75 153 51 l 231 75 q 124 -22 153 18 q 94 -97 94 -61 q 160 -206 94 -165 q 329 -247 225 -247 q 524 -197 449 -247 q 600 -65 600 -146 q 587 -3 600 -37 q 546 58 574 31 l 199 58 q 163 111 175 83 q 150 165 150 139 q 163 220 150 193 q 199 272 175 247 l 196 104 l 499 104 q 573 83 540 104 q 624 27 606 63 q 643 -54 643 -8 q 602 -176 643 -124 q 488 -257 561 -228 q 321 -286 415 -286 m 329 224 q 149 281 217 224 q 82 436 82 339 q 116 560 82 507 q 210 644 150 614 q 350 674 271 674 q 533 615 463 674 q 604 460 604 557 q 569 335 604 389 q 472 253 533 282 q 329 224 410 224 m 331 263 q 500 315 438 263 q 563 453 563 367 q 503 585 563 538 q 344 633 443 633 q 263 626 306 633 q 181 606 221 619 q 136 511 150 554 q 122 435 122 468 q 179 309 122 356 q 331 263 236 263 m 522 600 q 513 639 517 619 q 510 676 510 658 q 539 751 510 726 q 625 776 568 776 q 658 774 640 776 q 696 768 675 772 l 689 729 l 554 729 l 528 600 l 522 600 m 351 825 q 281 840 313 825 q 231 881 250 856 q 208 936 213 906 l 240 943 q 277 883 246 907 q 351 858 308 858 q 426 883 396 858 q 463 943 457 907 l 494 936 q 473 881 492 906 q 423 840 454 856 q 351 825 392 825 z "},"ǧ":{"ha":699,"x_min":44,"x_max":696,"o":"m 321 -286 q 119 -231 194 -286 q 46 -79 44 -176 q 111 13 69 -26 q 208 75 153 51 l 231 75 q 124 -22 153 18 q 94 -97 94 -61 q 160 -206 94 -165 q 329 -247 225 -247 q 524 -197 449 -247 q 600 -65 600 -146 q 587 -3 600 -37 q 546 58 574 31 l 199 58 q 163 111 175 83 q 150 165 150 139 q 163 220 150 193 q 199 272 175 247 l 196 104 l 499 104 q 573 83 540 104 q 624 27 606 63 q 643 -54 643 -8 q 602 -176 643 -124 q 488 -257 561 -228 q 321 -286 415 -286 m 329 224 q 149 281 217 224 q 82 436 82 339 q 116 560 82 507 q 210 644 150 614 q 350 674 271 674 q 533 615 463 674 q 604 460 604 557 q 569 335 604 389 q 472 253 533 282 q 329 224 410 224 m 331 263 q 500 315 438 263 q 563 453 563 367 q 503 585 563 538 q 344 633 443 633 q 263 626 306 633 q 181 606 221 619 q 136 511 150 554 q 122 435 122 468 q 179 309 122 356 q 331 263 236 263 m 522 600 q 513 639 517 619 q 510 676 510 658 q 539 751 510 726 q 625 776 568 776 q 658 774 640 776 q 696 768 675 772 l 689 729 l 554 729 l 528 600 l 522 600 m 344 817 l 201 943 l 217 960 l 354 857 l 489 960 l 504 943 l 361 817 l 344 817 z "}}}
